<?xml version="1.0" encoding="UTF-8"?>
<svg id="Warstwa_2" data-name="Warstwa 2" xmlns="http://www.w3.org/2000/svg" xmlns:xlink="http://www.w3.org/1999/xlink" viewBox="0 0 200 212.01">
  <defs>
    <style>
      .cls-1 {
        fill: #dc4949;
      }

      .cls-1, .cls-2, .cls-3, .cls-4, .cls-5, .cls-6, .cls-7, .cls-8, .cls-9, .cls-10, .cls-11, .cls-12, .cls-13, .cls-14, .cls-15, .cls-16 {
        stroke-width: 0px;
      }

      .cls-2 {
        fill: #f9e4d0;
      }

      .cls-3 {
        fill: #ffeac6;
      }

      .cls-4 {
        fill: #5d3223;
      }

      .cls-5 {
        fill: none;
      }

      .cls-6 {
        fill: #3c2721;
      }

      .cls-7 {
        fill: #572100;
      }

      .cls-8 {
        fill: #ed9a8e;
      }

      .cls-9 {
        fill: #ef6b6b;
      }

      .cls-17 {
        clip-path: url(#clippath);
      }

      .cls-10 {
        fill: #db5e5e;
      }

      .cls-11 {
        fill: #ba3838;
      }

      .cls-12 {
        fill: #efbbaa;
      }

      .cls-13 {
        fill: #7c4837;
      }

      .cls-14 {
        fill: #fff;
      }

      .cls-15 {
        fill: #f56c6c;
      }

      .cls-16 {
        fill: #8d5847;
      }
    </style>
    <clipPath id="clippath">
      <path id="Layer0_3_1_STROKES-2" data-name="Layer0 3 1 STROKES" class="cls-5" d="M200,111.98c0,27.66-9.76,51.23-29.27,70.71-19.51,19.55-43.08,29.32-70.71,29.32s-51.21-9.77-70.76-29.32C9.76,163.21,0,139.64,0,111.98S9.76,60.77,29.27,41.22c19.55-19.47,43.14-29.21,70.76-29.21s51.19,9.74,70.71,29.21c19.51,19.55,29.27,43.14,29.27,70.76Z"/>
    </clipPath>
  </defs>
  <g id="Warstwa_1-2" data-name="Warstwa 1">
    <g>
      <g id="Layer0_3_1_STROKES" data-name="Layer0 3 1 STROKES">
        <path class="cls-3" d="M200,111.98c0,27.66-9.76,51.23-29.27,70.71-19.51,19.55-43.08,29.32-70.71,29.32s-51.21-9.77-70.76-29.32C9.76,163.21,0,139.64,0,111.98S9.76,60.77,29.27,41.22c19.55-19.47,43.14-29.21,70.76-29.21s51.19,9.74,70.71,29.21c19.51,19.55,29.27,43.14,29.27,70.76Z"/>
      </g>
      <g class="cls-17">
        <g>
          <g id="Layer0_2_FILL" data-name="Layer0 2 FILL">
            <path class="cls-2" d="M63.81,178.73c.48-1.3.93-2.46,1.34-3.49-6.26,4.7-11.9,17.98-16.9,39.86h9.64c-1.79-4.19-1.65-10.24.43-18.15,2.05-7.68,3.88-13.75,5.49-18.22M138.54,175.74c.13.28.25.56.37.83,1.78,4.57,3.85,11.37,6.22,20.37,2.11,7.9,2.27,13.95.49,18.15h9.64c-4.58-20.06-9.7-32.9-15.37-38.53-.51-.52-1.04-.98-1.59-1.4.1.2.18.39.24.57Z"/>
            <path class="cls-9" d="M61.36,219.82l-.06-.04c-1.59-1.15-2.81-2.7-3.61-4.6-1.8-4.22-1.66-10.38.42-18.3,2.04-7.65,3.89-13.78,5.5-18.23l.04-.11.11-.03c.57-.15,1.19-.22,1.83-.22,2.68,0,6,1.3,9.88,3.87,3.5,2.28,6.79,5.07,9.8,8.28,1.87,1.99,4.44,3.47,7.65,4.38,3.24.96,6.48,1.47,9.64,1.51h.25c3.12,0,6.49-.87,10.02-2.58,3.67-1.72,7.22-4.25,10.56-7.51,1.65-1.92,3.02-3.48,4.08-4.62,1.97-2.13,3.85-3.5,5.58-4.06,2.4-.73,4.37-1.14,5.85-1.22h.16s.06.14.06.14c1.77,4.56,3.87,11.42,6.23,20.4,2.11,7.92,2.27,14.07.48,18.3-.8,1.9-2.02,3.45-3.61,4.6l-.06.04H61.36Z"/>
            <path class="cls-9" d="M142.07,219.6c1.57-1.13,2.75-2.64,3.54-4.51,1.78-4.2,1.62-10.25-.49-18.15-2.37-9.01-4.45-15.8-6.22-20.37-1.47.08-3.4.48-5.8,1.21-1.71.55-3.54,1.88-5.49,4-1.06,1.14-2.42,2.69-4.09,4.63-3.37,3.3-6.91,5.82-10.61,7.55-3.67,1.78-7.13,2.65-10.37,2.6-3.2-.05-6.43-.56-9.7-1.52-3.26-.93-5.84-2.41-7.75-4.44-3.01-3.22-6.26-5.97-9.76-8.25-4.77-3.16-8.62-4.37-11.53-3.62-1.61,4.46-3.44,10.53-5.49,18.22-2.08,7.91-2.22,13.96-.43,18.15.79,1.87,1.97,3.37,3.54,4.51h80.64Z"/>
            <path class="cls-1" d="M138.9,176.57c-.12-.27-.24-.54-.37-.83-.06-.18-.14-.37-.24-.57-.27-.64-.53-1.23-.79-1.78-3.58-1.06-6.79-1.9-9.64-2.54-5.53-1.27-10.23-2.07-14.09-2.41,1.16.33,2.36.97,3.6,1.9,2.2,1.69,3.29,3.41,3.29,5.14,0,2.62-1.61,5.75-4.82,9.39-3.17,3.7-7.7,5.71-13.6,6.03-5.86.32-10.62-1.52-14.27-5.52-3.62-3.97-5.43-7.27-5.43-9.9,0-1.73,1.1-3.45,3.29-5.14,1.33-.99,2.59-1.65,3.78-1.97-3.8.38-8.45,1.19-13.97,2.41-2.84.67-6.06,1.54-9.64,2.6-.27.56-.56,1.17-.85,1.84-.42,1.03-.86,2.19-1.34,3.49,2.91-.75,6.76.46,11.53,3.62,3.5,2.28,6.75,5.04,9.76,8.25,1.91,2.03,4.49,3.51,7.75,4.44,3.27.97,6.5,1.48,9.7,1.52,3.24.05,6.7-.82,10.37-2.6,3.71-1.74,7.24-4.25,10.61-7.55,1.67-1.95,3.03-3.49,4.09-4.63,1.95-2.12,3.78-3.45,5.49-4,2.39-.73,4.33-1.13,5.8-1.21Z"/>
            <path class="cls-8" d="M89.61,168.38c-1.19.32-2.45.97-3.78,1.97-2.2,1.69-3.29,3.41-3.29,5.14,0,2.63,1.81,5.93,5.43,9.9,3.66,4,8.42,5.84,14.27,5.52,5.9-.32,10.43-2.33,13.6-6.03,3.21-3.64,4.82-6.78,4.82-9.39,0-1.73-1.1-3.45-3.29-5.14-1.24-.94-2.44-1.57-3.6-1.9-.07-.02-.15-.04-.24-.06.04,1.52.06,2.98.06,4.38,0-1.4-.02-2.86-.06-4.38-.07-5.29-.27-11.34-.61-18.15-7.87,2.37-15.43,2.37-22.69,0-.31,6.81-.51,12.86-.61,18.15v4.38-4.38Z"/>
          </g>
          <g id="Layer0_2_1_STROKES" data-name="Layer0 2 1 STROKES">
            <g>
              <path class="cls-7" d="M137.89,175.33c1.96,4.52,3.33,9.3,4.69,14.03.9,3.14,1.8,6.29,2.55,9.47.68,2.86,1.18,5.8,1.23,8.74.04,2.48-.23,5-1.2,7.3-.14.33.22.67.53.67h9.64c.24,0,.43-.23.38-.46-1.61-7.05-3.45-14.08-5.86-20.91-1.69-4.78-3.65-9.56-6.42-13.82-1.33-2.04-2.9-4-4.84-5.48-.5-.38-1.04.27-.53.66,3.41,2.6,5.65,6.59,7.47,10.39,2.57,5.36,4.45,11.04,6.08,16.74,1.18,4.12,2.22,8.27,3.17,12.45l.38-.46h-9.64l.53.67c1.95-4.66,1.35-10.1.35-14.91-.68-3.3-1.64-6.56-2.55-9.81-.77-2.72-1.56-5.43-2.43-8.12-.8-2.5-1.64-4.99-2.69-7.39-.23-.52-1.11-.35-.85.25Z"/>
              <path class="cls-7" d="M138.74,175.08c-.24-.54-.47-1.1-.74-1.63s-.65-.55-1.19-.71c-1.21-.35-2.41-.69-3.63-1.02-2.23-.6-4.47-1.14-6.72-1.63-4.21-.93-8.46-1.72-12.76-2.1-.61-.05-.36.77.05.9,1.37.42,2.61,1.19,3.71,2.09.94.77,1.84,1.68,2.35,2.81.81,1.8.13,3.89-.69,5.57-1.09,2.25-2.71,4.37-4.48,6.13-1.54,1.53-3.42,2.73-5.44,3.52-4.34,1.71-9.59,2.07-14.06.63-2.13-.69-4.08-1.86-5.73-3.36-1.89-1.72-3.61-3.86-4.89-6.07-.98-1.68-2-3.9-1.33-5.87.45-1.33,1.48-2.42,2.55-3.29,1.2-.99,2.58-1.8,4.09-2.22.54-.15.18-.94-.29-.89-7.84.79-15.61,2.63-23.16,4.86-.2.06-.53.09-.7.22s-.24.37-.32.55c-.25.54-.49,1.09-.72,1.64-.46,1.09-.88,2.2-1.3,3.31-.19.51.69.98.89.43.67-1.8,1.36-3.6,2.2-5.33l-.24.22c7.67-2.28,15.55-4.19,23.52-5l-.29-.89c-2.61.72-5.34,2.62-6.68,5-1.04,1.83-.74,3.85.03,5.72,1.02,2.47,2.74,4.65,4.51,6.63,1.66,1.86,3.58,3.43,5.85,4.48,4.68,2.17,10.41,2.09,15.27.54,4.94-1.58,8.68-5.24,11.18-9.72,1.11-1.99,2.04-4.5,1.19-6.75-.52-1.38-1.59-2.52-2.7-3.45-1.26-1.05-2.69-1.91-4.27-2.39l.05.9c7.98.71,15.91,2.68,23.58,4.94l-.39-.32c.29.6.56,1.2.82,1.81.23.52,1.11.35.85-.25h0Z"/>
              <path class="cls-7" d="M145.16,214.88c-.66,1.53-1.63,2.92-2.94,3.98,0,0-.41.36-.25.29,0,0-.01,0-.02,0-.03.01-.07,0-.1,0-.35.06-.76,0-1.11,0h-75.94c-1.08,0-2.24-.11-3.32,0-.05,0-.1,0-.15,0l.35.13c-1.52-1.12-2.63-2.58-3.38-4.3-.08-.2-.3-.33-.51-.33h-9.64l.53.67c1.67-7.27,3.56-14.51,6.09-21.53,1.73-4.79,3.73-9.63,6.68-13.81,1.14-1.61,2.43-3.15,4.02-4.34.46-.35-.18-1.11-.61-.78-3.17,2.39-5.33,5.94-7.11,9.42-2.81,5.48-4.79,11.38-6.52,17.28-1.29,4.41-2.41,8.86-3.44,13.33-.08.34.17.67.53.67h9.64l-.51-.33c.64,1.48,1.54,2.82,2.73,3.92.38.35.84.87,1.38.91.33.03.68,0,1.01,0h71.23c2.1,0,4.19,0,6.29,0h1.61c.12,0,.25.01.37,0,.49-.05.91-.55,1.26-.87,1.18-1.08,2.07-2.41,2.7-3.88.21-.49-.66-.97-.89-.43h0Z"/>
              <path class="cls-7" d="M89.17,168.27c-.02,1.46-.03,2.92-.03,4.38,0,.26.18.49.44.55.22.05.5-.08.5-.34,0-1.46.01-2.92.03-4.38,0-.26-.18-.49-.44-.55-.22-.05-.5.08-.5.34h0Z"/>
              <path class="cls-7" d="M89.78,150.12c-.29,6.05-.52,12.1-.61,18.15,0,.53.93.82.94.21.09-6.05.32-12.11.61-18.15.03-.53-.91-.82-.94-.21h0Z"/>
              <path class="cls-7" d="M90.22,150.67c7.49,2.42,15.41,2.23,22.93,0l-.67-.54c.28,6.05.5,12.1.58,18.15,0,.26.18.49.44.55.09.02.18.04.27.06.63.14.62-.76.07-.89-.09-.02-.18-.04-.27-.06l.44.55c-.08-6.05-.3-12.1-.58-18.15-.02-.33-.32-.65-.67-.54-7.37,2.19-15.1,2.37-22.46,0-.62-.2-.6.71-.07.89h0Z"/>
              <path class="cls-7" d="M113.05,168.27c.04,1.46.06,2.92.06,4.38,0,.26.18.49.44.55.22.05.5-.08.5-.34,0-1.46-.02-2.92-.06-4.38,0-.26-.17-.49-.44-.55-.21-.05-.51.08-.5.34h0Z"/>
              <path class="cls-7" d="M63.36,178.51c-1.63,4.55-2.99,9.19-4.28,13.84-1.47,5.31-3.03,10.73-2.89,16.29.06,2.25.4,4.49,1.27,6.57.22.53,1.1.35.85-.25-1.7-4.04-1.34-8.71-.61-12.92.51-2.91,1.3-5.75,2.08-8.59.71-2.59,1.45-5.16,2.23-7.73.7-2.28,1.43-4.54,2.23-6.78.18-.51-.69-.98-.89-.43h0Z"/>
            </g>
          </g>
        </g>
      </g>
      <g>
        <g>
          <g id="Layer0_9_FILL" data-name="Layer0 9 FILL">
            <path class="cls-4" d="M149.18,135.88v.06c-.37,1.81-.87,3.45-1.49,4.92,2.54-1.88,4.41-3.8,5.59-5.75,1.11-1.95,2.12-3.76,3.04-5.42-.07,0-.13.02-.17.06-2.07,1-4.22,1.66-6.47,1.99-.15,1.73-.31,3.12-.5,4.15M43.89,129.24c.92,1.81,1.99,3.76,3.21,5.86,1.29,2.18,3.45,4.28,6.47,6.31-.85-1.66-1.46-3.49-1.83-5.48v-.06c-.18-1.03-.33-2.42-.44-4.15-2.32-.33-4.52-1-6.58-1.99-.29-.15-.57-.31-.83-.5M37.25,86.81c-.63,6.9-.57,13.19.17,18.87.15,1.25.79,4.48,1.94,9.68,1.55-3.61,5.05-5.42,10.51-5.42.37,0,.76.02,1.16.06.11-2.43.31-6.01.61-10.73-5.2.59-8.72.96-10.57,1.11,1.84-.15,5.37-.52,10.57-1.11,1.95-.26,4.13-.53,6.53-.83.11-.7.24-1.48.39-2.32.33-1.84.7-3.45,1.11-4.81-.22-1.07-.41-2.12-.55-3.15.15,1.03.33,2.08.55,3.15.18,1.07.41,2.14.66,3.21.33,1.33.66,2.49,1,3.49.85-.15,1.73-.26,2.66-.33,5.24-.7,10.86-1.2,16.87-1.49.3-1.62.57-3.12.83-4.48.41-1.99.89-4.22,1.44-6.69-.11-.96-.24-1.86-.39-2.71.15.85.28,1.75.39,2.71.33,2.07.7,4.3,1.11,6.69.26,1.55.5,3.01.72,4.37,2.95-.11,5.98-.17,9.07-.17,15.2,0,26.17.22,32.92.66.44-3.76.96-7.87,1.55-12.34.04-.48.09-.96.17-1.44-.07.48-.13.96-.17,1.44,1.77,3.5,3.02,6.58,3.76,9.24.29.92.63,2.14,1,3.65,2.29.22,4.39.41,6.31.55-.07-1.51-.13-3.02-.17-4.54-.04-1.03-.07-2.05-.11-3.04-.04-.48-.07-.96-.11-1.44.04.48.07.96.11,1.44.96,1.77,1.75,3.5,2.38,5.2.41,1.03.68,1.94.83,2.71,2.62.26,4.89.46,6.8.61,2.69.22,4.59.37,5.7.44-1.11-.07-3.01-.22-5.7-.44.3,5.72.5,9.52.61,11.4.37-.04.72-.06,1.05-.06,4.02,0,6.99.96,8.91,2.88.26.26.48.53.66.83,2.14-10.07,2.99-20.23,2.54-30.48-.22-5.57-1.05-10.73-2.49-15.49-1.73,5.05-3.56,10.57-5.48,16.54-1.4,0-3.78.13-7.14.39-1.84.15-3.39.26-4.65.33-.7-2.03-1.57-4.56-2.6-7.58l-.39.33c-.63.77-2.12,2.43-4.48,4.98-.3-1.03-.61-2.25-.94-3.65-.52-2.07-1.57-4.46-3.15-7.19-1,1.44-3.19,4.46-6.58,9.07-1.59,2.18-2.88,3.98-3.87,5.42-2.25-.04-5.46-.18-9.63-.44-4.35-.3-6.69-.44-7.03-.44-2.91,0-7.54.13-13.89.39-.66-2.47-1.05-3.89-1.16-4.26-.04-.07-1.22-3.82-3.54-11.23-1.07,1.84-2.86,4.35-5.37,7.52-2.54,3.21-4.59,5.88-6.14,8.02-2.1.07-4.59.29-7.47.66-.77.04-1.48.11-2.1.22-.26-.63-.52-1.2-.77-1.72-1.07-2.25-2.84-5.61-5.31-10.07-.89,1.29-2.23,3.14-4.04,5.53-1.36,2.18-2.43,4.24-3.21,6.2-.81.11-1.81.28-2.99.5-.74.11-1.38.2-1.94.28-.85-4.2-1.53-7.73-2.05-10.57-1.25-6.9-1.88-11.25-1.88-13.06v-1.44c-.52,1.22-.98,2.43-1.38,3.65-2.21,6.9-3.6,13.81-4.15,20.75M83.89,22.57c1.14-.18,1.84-.3,2.1-.33,11.03-1.62,21.12-1.57,30.26.17,1.66.3,3.97.94,6.92,1.94.3-2.03.44-4.04.44-6.03,0-4.43-1.36-8.24-4.09-11.45-3.65-4.24-9.17-6.36-16.54-6.36-6.97,0-11.99,1.66-15.05,4.98-2.77,3.06-4.15,7.87-4.15,14.44,0,.81.04,1.7.11,2.66Z"/>
            <path class="cls-8" d="M150.12,118.18v.89c-.04,5.35-.18,9.57-.44,12.67,2.25-.33,4.41-1,6.47-1.99.04-.04.09-.06.17-.06.15-.11.31-.2.5-.28,3.76-2.1,5.64-5.07,5.64-8.91,0-2.03-.31-3.74-.94-5.15-.26-.63-.59-1.2-1-1.72-.18-.3-.41-.57-.66-.83-1.92-1.92-4.89-2.88-8.91-2.88-.33,0-.68.02-1.05.06.07,1.29.13,2.64.17,4.04.89.04,1.72.15,2.49.33,1.51.44,2.75,1.33,3.71,2.66.92,1.33,1.38,2.53,1.38,3.6,0,.22-.09.7-.28,1.44-.15.74-.26,1.16-.33,1.27.07-.11.18-.53.33-1.27.18-.74.28-1.22.28-1.44,0-1.07-.46-2.27-1.38-3.6-.96-1.33-2.19-2.21-3.71-2.66-.77-.18-1.6-.3-2.49-.33v.11c.04.55.06,1.11.06,1.66v2.38M154.32,118.45c-.29,1.14-.59,1.97-.89,2.49.3-.52.59-1.35.89-2.49.37-1.22.55-2.05.55-2.49,0,.44-.18,1.27-.55,2.49M51.03,109.99c-.41-.04-.79-.06-1.16-.06-5.46,0-8.96,1.81-10.51,5.42-.18.41-.35.85-.5,1.33-.29,1.11-.44,2.38-.44,3.82,0,2.88,1.07,5.27,3.21,7.19.66.55,1.42,1.07,2.27,1.55.26.18.53.35.83.5,2.07,1,4.26,1.66,6.58,1.99-.29-3.28-.46-7.8-.5-13.55v-2.38c0-.55.02-1.11.06-1.66,0-.04,0-.07,0-.11-2.77.07-4.85,1.07-6.25,2.99-.92,1.33-1.38,2.53-1.38,3.6,0,.22.09.7.28,1.44.15.74.26,1.16.33,1.27-.07-.11-.18-.53-.33-1.27-.18-.74-.28-1.22-.28-1.44,0-1.07.46-2.27,1.38-3.6,1.4-1.92,3.49-2.91,6.25-2.99.04-1.4.09-2.75.17-4.04M46.55,118.45c.3,1.14.59,1.97.89,2.49-.29-.52-.59-1.35-.89-2.49-.37-1.22-.55-2.05-.55-2.49,0,.44.18,1.27.55,2.49Z"/>
            <path class="cls-2" d="M83.12,84.98c-.55,2.47-1.03,4.7-1.44,6.69-.26,1.36-.53,2.86-.83,4.48-6.01.3-11.64.79-16.87,1.49-.92.07-1.81.18-2.66.33-.33-1-.66-2.16-1-3.49-.26-1.07-.48-2.14-.66-3.21-.41,1.36-.77,2.97-1.11,4.81-.15.85-.28,1.62-.39,2.32-2.4.29-4.57.57-6.53.83-.29,4.72-.5,8.3-.61,10.73-.07,1.29-.13,2.64-.17,4.04,0,.04,0,.07,0,.11-.04.55-.06,1.11-.06,1.66v2.38c.04,5.75.2,10.27.5,13.55.11,1.73.26,3.12.44,4.15v.06c.37,1.99.98,3.82,1.83,5.48.22.48.5.94.83,1.38.7,1.18,1.57,2.25,2.6,3.21,1.55,1.44,4.17,3.25,7.86,5.42,2.66,1.62,5.92,3.45,9.79,5.48,9.04,4.72,17.11,7.28,24.23,7.69,7.16.37,15.79-2.01,25.89-7.14,3.69-1.92,6.9-3.63,9.63-5.15.04-.07.09-.11.17-.11,4.54-2.58,7.63-4.65,9.29-6.2,1.59-1.44,2.86-3.15,3.82-5.15.63-1.48,1.12-3.12,1.49-4.92v-.06c.18-1.03.35-2.42.5-4.15.26-3.1.41-7.32.44-12.67v-3.26c0-.55-.02-1.11-.06-1.66v-.11c-.04-1.4-.09-2.75-.17-4.04-.11-1.88-.31-5.68-.61-11.4-1.92-.15-4.19-.35-6.8-.61-.15-.77-.42-1.68-.83-2.71-.63-1.7-1.42-3.43-2.38-5.2.04,1,.07,2.01.11,3.04.04,1.51.09,3.02.17,4.54-1.92-.15-4.02-.33-6.31-.55-.37-1.51-.7-2.73-1-3.65-.74-2.66-1.99-5.74-3.76-9.24-.59,4.46-1.11,8.58-1.55,12.34-6.75-.44-17.72-.66-32.92-.66-3.1,0-6.12.06-9.07.17-.22-1.36-.46-2.82-.72-4.37-.41-2.4-.77-4.63-1.11-6.69M79.47,115.91c1.22,1.59,1.6,3.36,1.16,5.31-.22,1.03-.66,1.94-1.33,2.71-.66.85-1.48,1.46-2.43,1.83-.92.41-1.9.55-2.93.44-1.07-.07-2.01-.41-2.82-1-.92-.7-1.59-1.49-1.99-2.38-.48-1-.7-2.05-.66-3.15,0-1.11.28-2.12.83-3.04.55-1,1.31-1.77,2.27-2.32,1-.55,2.03-.83,3.1-.83,1.95,0,3.56.81,4.81,2.43M119.85,118.18c.44-1.73,1.36-3.02,2.77-3.87,1.18-.7,2.49-.96,3.93-.77,1.48.22,2.67.83,3.6,1.83.92.96,1.51,2.18,1.77,3.65.22,1.4.06,2.71-.5,3.93-.63,1.29-1.48,2.29-2.55,2.99-1.07.63-2.27.87-3.6.72-1.33-.15-2.49-.65-3.49-1.49-.92-.85-1.57-1.92-1.94-3.21-.33-1.29-.33-2.54,0-3.76Z"/>
            <path class="cls-12" d="M122.62,114.3c-1.4.85-2.32,2.14-2.77,3.87-.33,1.22-.33,2.47,0,3.76.37,1.29,1.01,2.36,1.94,3.21,1,.85,2.16,1.35,3.49,1.49,1.33.15,2.53-.09,3.6-.72,1.07-.7,1.92-1.7,2.55-2.99.55-1.22.72-2.53.5-3.93-.26-1.48-.85-2.69-1.77-3.65-.92-1-2.12-1.6-3.6-1.83-1.44-.18-2.75.07-3.93.77M80.63,121.22c.44-1.95.06-3.73-1.16-5.31-1.25-1.62-2.86-2.43-4.81-2.43-1.07,0-2.1.28-3.1.83-.96.55-1.72,1.33-2.27,2.32-.55.92-.83,1.94-.83,3.04-.04,1.11.18,2.16.66,3.15.41.89,1.07,1.68,1.99,2.38.81.59,1.75.92,2.82,1,1.03.11,2.01-.04,2.93-.44.96-.37,1.77-.98,2.43-1.83.66-.77,1.11-1.68,1.33-2.71Z"/>
            <path class="cls-15" d="M83.84,28.61c.37-.07.74-.15,1.11-.22.33-.07.68-.15,1.05-.22,11.03-1.59,21.12-1.53,30.26.17,1.95.41,3.82.85,5.59,1.33.3.04.59.09.89.17.96-1.62,1.38-3.36,1.27-5.2-.29-.11-.57-.2-.83-.28-2.95-1-5.26-1.64-6.92-1.94-9.15-1.73-19.23-1.79-30.26-.17-.26.04-.96.15-2.1.33-.33.04-.7.07-1.11.11-.52,1.92-.17,3.89,1.05,5.92Z"/>
            <path class="cls-13" d="M46.5,87.51c-.85-4.19-1.53-7.75-2.05-10.57-1.25-6.88-1.89-11.29-1.89-13.1v-1.44c2.27-5.58,5.57-10.77,9.85-15.53,5.23-5.86,10.46-10.23,15.55-12.99,4.61-2.43,9.93-4.28,15.83-5.5l1.11-.22c.33-.07.68-.15,1.05-.22,5.33-.77,10.49-1.15,15.37-1.15,5.22,0,10.26.44,14.98,1.32,1.97.41,3.85.86,5.61,1.33.27.03.58.09.88.17,6.38,1.84,12.01,4.48,16.73,7.84,6.23,4.5,11.71,10.7,16.27,18.44,2.1,3.58,3.78,7.52,5,11.72l.02.07-.02.07c-1.72,5.02-3.56,10.59-5.48,16.54l-.05.15h-.16c-1.38,0-3.78.13-7.12.39-1.85.15-3.4.26-4.65.33h-.17s-.05-.15-.05-.15c-.68-1.96-1.51-4.38-2.5-7.27l-.14.12c-.6.74-2.11,2.42-4.46,4.96l-.27.29-.11-.38c-.3-1.04-.61-2.27-.94-3.66-.49-1.96-1.48-4.26-2.96-6.83-1.07,1.53-3.22,4.48-6.39,8.79-1.57,2.15-2.87,3.98-3.87,5.42l-.07.1h-.12c-2.23-.04-5.48-.19-9.64-.45-5.38-.36-6.79-.44-7.01-.44-2.91,0-7.57.13-13.88.39h-.18s-.05-.16-.05-.16c-.66-2.47-1.05-3.89-1.16-4.25,0-.01-.05-.09-3.39-10.76-1.09,1.8-2.82,4.2-5.13,7.12-2.54,3.2-4.6,5.9-6.13,8.01l-.06.09h-.11c-2.09.08-4.59.3-7.45.67-.78.04-1.48.11-2.09.22l-.18.03-.07-.16c-.26-.62-.51-1.19-.77-1.7-1.04-2.19-2.77-5.46-5.13-9.75-.88,1.27-2.17,3.03-3.84,5.25-1.34,2.14-2.41,4.21-3.18,6.14l-.05.12-.13.02c-.82.11-1.82.28-2.98.5-.75.11-1.39.21-1.95.28l-.21.03-.04-.2Z"/>
            <path class="cls-13" d="M84.94,28.38c-.37.07-.74.15-1.11.22-5.9,1.22-11.16,3.04-15.77,5.48-5.09,2.77-10.25,7.08-15.49,12.95-4.28,4.76-7.54,9.88-9.79,15.38v1.44c0,1.81.63,6.16,1.88,13.06.52,2.84,1.2,6.36,2.05,10.57.55-.07,1.2-.17,1.94-.28,1.18-.22,2.18-.39,2.99-.5.77-1.95,1.84-4.02,3.21-6.2,1.81-2.4,3.15-4.24,4.04-5.53,2.47,4.46,4.24,7.82,5.31,10.07.26.52.52,1.09.77,1.72.63-.11,1.33-.18,2.1-.22,2.88-.37,5.37-.59,7.47-.66,1.55-2.14,3.6-4.81,6.14-8.02,2.51-3.17,4.3-5.68,5.37-7.52,2.32,7.41,3.5,11.16,3.54,11.23.11.37.5,1.79,1.16,4.26,6.34-.26,10.97-.39,13.89-.39.33,0,2.67.15,7.03.44,4.17.26,7.38.41,9.63.44,1-1.44,2.29-3.25,3.87-5.42,3.39-4.61,5.59-7.63,6.58-9.07,1.59,2.73,2.64,5.13,3.15,7.19.33,1.4.65,2.62.94,3.65,2.36-2.54,3.85-4.2,4.48-4.98l.39-.33c1.03,3.02,1.9,5.55,2.6,7.58,1.25-.07,2.8-.18,4.65-.33,3.36-.26,5.74-.39,7.14-.39,1.92-5.98,3.74-11.49,5.48-16.54-1.22-4.2-2.88-8.1-4.98-11.67-4.57-7.75-9.98-13.87-16.21-18.37-4.72-3.36-10.27-5.96-16.65-7.8-.29-.07-.59-.13-.89-.17-1.77-.48-3.63-.92-5.59-1.33-9.15-1.7-19.23-1.75-30.26-.17-.37.07-.72.15-1.05.22Z"/>
          </g>
          <g id="Layer0_9_1_STROKES" data-name="Layer0 9 1 STROKES">
            <g>
              <path class="cls-7" d="M122.79,29.35c-3.11-.73-6.2-1.51-9.37-1.97-2.97-.43-5.97-.68-8.97-.79-3.2-.11-6.41-.05-9.6.16s-6.76.49-10.04,1.17c-5.95,1.24-11.83,2.92-17.2,5.85s-9.73,6.85-13.77,11.14c-4.8,5.09-8.83,10.8-11.51,17.29-.23.56.67.99.91.41,2.32-5.63,5.67-10.74,9.73-15.27s8.47-8.68,13.63-11.84,10.63-4.94,16.29-6.2c6.35-1.41,12.97-1.88,19.47-1.81,3.38.04,6.76.26,10.11.71s6.82,1.29,10.21,2.09c.63.15.72-.81.12-.95h0Z"/>
              <path class="cls-7" d="M161.03,67.51c-2.15-7.37-5.93-14.09-10.73-20.06-4.35-5.41-9.6-10.06-15.72-13.37-3.73-2.02-7.71-3.55-11.78-4.73l.39.68c.97-1.68,1.4-3.51,1.3-5.44,0-.16-.15-.35-.3-.4-10.26-3.75-21.51-4.16-32.3-3.15-1.74.16-3.48.37-5.22.62-1.32.19-2.62.43-3.95.55-.23.02-.37.18-.42.39-.56,2.21.02,4.35,1.15,6.28.32.54,1.1.01.78-.54-1.01-1.72-1.45-3.61-.96-5.56l-.42.39c2.62-.24,5.22-.75,7.84-1.03,2.89-.31,5.79-.5,8.7-.57,5.52-.12,11.06.25,16.5,1.26,2.69.5,5.36,1.29,7.93,2.23l-.3-.4c.09,1.77-.36,3.43-1.24,4.96-.17.3.14.61.39.68,6.86,1.99,13.41,5.08,18.94,9.64s9.84,10.02,13.42,16.03c2.21,3.71,3.88,7.71,5.09,11.85.17.59,1.08.3.9-.31h0Z"/>
              <path class="cls-7" d="M84.38,22.54c-.34-4.6-.06-9.68,2.02-13.88,1.72-3.48,4.85-5.63,8.53-6.69,2.28-.66,4.66-.91,7.02-.98s4.92.08,7.32.59c4.05.86,7.81,2.86,10.38,6.16,1.63,2.09,2.73,4.54,3.2,7.15.55,3.07.29,6.29-.15,9.36-.09.6.88.8.97.17.76-5.34.76-10.87-2.13-15.61-2.32-3.8-6-6.41-10.22-7.69-2.38-.72-4.85-1.03-7.33-1.1s-5.16.08-7.68.6c-3.95.81-7.77,2.68-9.99,6.17-2.92,4.57-3.28,10.55-2.89,15.81.05.61,1.02.57.97-.07h0Z"/>
              <path class="cls-7" d="M42.33,62.2c-1.56,3.71-2.65,7.62-3.55,11.54s-1.51,7.67-1.89,11.56c-.67,6.93-.95,14.07.12,20.97.47,3.06,1.19,6.09,1.86,9.12.1.43.73.65.94.17,1.88-4.3,6.86-5.45,11.16-5.1.24.02.53-.1.54-.39.16-3.58.39-7.16.61-10.73.02-.3-.23-.61-.55-.57-3.52.4-7.04.82-10.57,1.11-.64.05-.48,1.01.13.96,3.53-.28,7.05-.71,10.57-1.11l-.55-.57c-.22,3.58-.44,7.15-.61,10.73l.54-.39c-4.74-.39-10.12.91-12.19,5.64l.94.17c-.62-2.82-1.25-5.63-1.75-8.47s-.66-5.6-.75-8.4c-.23-7.64.46-15.4,2.04-22.88.93-4.4,2.11-8.8,3.85-12.95.23-.56-.67-.99-.91-.41h0Z"/>
              <path class="cls-7" d="M150.38,109.95c-.22-3.8-.41-7.6-.61-11.4-.01-.2-.22-.42-.42-.44-2.27-.18-4.54-.39-6.8-.61l.42.44c-.56-2.81-1.89-5.53-3.24-8.03-.25-.47-.96-.4-.94.19.09,2.53.16,5.05.28,7.58l.54-.51c-2.1-.16-4.21-.35-6.31-.55l.42.44c-.51-2.09-1.08-4.18-1.81-6.2-.84-2.33-1.87-4.59-2.98-6.81-.2-.4-.87-.46-.94.07-.54,4.11-1.06,8.22-1.55,12.34l.54-.39c-10.09-.66-20.24-.65-30.35-.67-3.92,0-7.85.02-11.77.16l.55.44c-.6-3.69-1.23-7.37-1.83-11.07-.09-.54-.85-.6-.97-.05-.83,3.71-1.59,7.43-2.27,11.18l.42-.39c-3.37.17-6.74.4-10.11.72-1.57.15-3.14.32-4.7.51s-3.16.33-4.72.6l.52.32c-.71-2.15-1.24-4.35-1.63-6.57-.07-.41-.79-.68-.94-.17-.7,2.38-1.14,4.81-1.53,7.26l.42-.39c-2.18.27-4.35.54-6.53.83-.63.08-.47,1.04.13.96,2.17-.29,4.35-.56,6.53-.83.22-.03.39-.18.42-.39.37-2.36.79-4.72,1.46-7.02l-.94-.17c.4,2.31.96,4.59,1.69,6.82.06.19.32.36.52.32,1.53-.26,3.07-.39,4.61-.58s3.21-.37,4.81-.52c3.36-.32,6.73-.55,10.11-.72.22-.01.38-.19.42-.39.68-3.74,1.44-7.46,2.27-11.18l-.97-.05c.59,3.69,1.23,7.38,1.83,11.07.04.27.28.45.55.44,6.72-.25,13.44-.18,20.16-.12,5.14.05,10.29.12,15.43.31,2.09.07,4.19.17,6.28.3.26.02.51-.1.54-.39.48-4.12,1.01-8.23,1.55-12.34l-.94.07c2.06,4.1,3.63,8.31,4.73,12.77.05.2.2.42.42.44,2.1.2,4.2.39,6.31.55.33.03.56-.17.54-.51-.12-2.53-.18-5.05-.28-7.58l-.94.19c1.3,2.42,2.63,5.08,3.18,7.79.04.2.2.42.42.44,2.27.22,4.53.43,6.8.61l-.42-.44c.2,3.8.39,7.6.61,11.4.04.61,1.01.57.97-.07h0Z"/>
              <path class="cls-7" d="M58.62,88.17c.15,1.06.34,2.11.55,3.15.05.26.27.47.55.44.25-.02.47-.26.42-.52-.22-1.05-.4-2.1-.55-3.15-.04-.26-.28-.47-.55-.44s-.46.26-.42.52h0Z"/>
              <path class="cls-7" d="M50.55,109.9c-.34,6.12-.29,12.28.04,18.4.13,2.43.27,4.89.63,7.31.44,2.89,1.54,5.57,3.15,8,1.38,2.09,3.29,3.67,5.32,5.09,2.27,1.58,4.67,3,7.06,4.39,5.48,3.19,11.12,6.23,17.06,8.48,4.94,1.88,10.17,3.3,15.47,3.51,5.01.2,10.03-.91,14.75-2.5,6.04-2.03,11.67-5,17.27-8.01,2.55-1.37,4.82-2.64,7.29-4.17,1.88-1.16,3.77-2.37,5.42-3.85,2.07-1.86,3.71-4.15,4.64-6.78s1.31-5.33,1.53-8.1c.2-2.49.29-4.99.36-7.48.08-3.16.19-6.34.05-9.5-.07-1.58-.11-3.16-.2-4.74l-.42.52c3.39-.31,8.12.33,10.17,3.44.24.37.79.22.87-.18,1.29-6.12,2.13-12.32,2.48-18.56s.34-12.26-.46-18.31c-.42-3.16-1.08-6.29-1.99-9.35-.18-.59-1.09-.3-.9.31,1.67,5.55,2.35,11.3,2.52,17.08.18,6.11-.11,12.24-.87,18.31-.43,3.47-1.02,6.92-1.74,10.34l.87-.18c-2.24-3.41-7.34-4.2-11.08-3.86-.27.03-.43.25-.42.52.34,6.02.29,12.07,0,18.09-.25,5.19-.55,10.79-3.73,15.13-2.89,3.94-7.51,6.23-11.6,8.67-2.48,1.48-5.1,2.78-7.66,4.13-2.85,1.5-5.74,2.91-8.72,4.12-4.87,1.99-10.02,3.55-15.29,3.91-4.9.33-9.84-.62-14.5-2.07-5.89-1.83-11.41-4.58-16.8-7.53-2.43-1.33-4.82-2.72-7.19-4.16-2.12-1.28-4.25-2.63-6.13-4.25-2.16-1.86-3.74-4.34-4.7-7s-1.11-5.18-1.33-7.87c-.2-2.38-.29-4.77-.36-7.15-.09-3.1-.21-6.24-.07-9.34.07-1.54.11-3.08.19-4.62.03-.6-.93-.81-.97-.17h0Z"/>
              <path class="cls-7" d="M38.9,115.15c-1.57,3.55-1.4,8.21.98,11.36,1.21,1.59,2.96,2.85,4.75,3.72,2.07,1.01,4.33,1.65,6.61,1.98.64.09.73-.86.12-.95-2.09-.31-4.13-.88-6.06-1.76-1.68-.77-3.37-1.92-4.53-3.38-2.29-2.9-2.43-7.25-.97-10.55.24-.55-.66-.98-.91-.41h0Z"/>
              <path class="cls-7" d="M50.8,113.55c-2.55.08-5.04,1.02-6.58,3.15-.79,1.09-1.48,2.45-1.48,3.82,0,.53.16,1.05.28,1.56s.17,1.05.43,1.51c.31.55,1.09.02.78-.54.06.11,0-.06-.02-.08-.03-.1-.06-.2-.08-.31-.08-.32-.14-.65-.22-.97-.09-.4-.21-.82-.19-1.23.06-1.2.71-2.41,1.43-3.33,1.42-1.8,3.54-2.54,5.77-2.62.64-.02.48-.98-.13-.96h0Z"/>
              <path class="cls-7" d="M45.51,116c0,.83.31,1.69.54,2.47.28.94.51,1.88.99,2.74.13.23.49.27.68.13.24-.17.22-.45.09-.67.03.06-.01-.03-.02-.05-.02-.03-.03-.07-.05-.1-.04-.08-.08-.16-.11-.24-.08-.19-.15-.38-.22-.58-.18-.51-.31-1.03-.46-1.55-.21-.71-.47-1.48-.48-2.23,0-.26-.31-.46-.55-.44-.29.02-.42.26-.42.52h0Z"/>
              <path class="cls-7" d="M43.44,129.4c.64,1.25,1.3,2.49,1.99,3.71.64,1.15,1.25,2.33,2.04,3.39,1.57,2.12,3.65,3.81,5.81,5.28.52.35,1.12-.37.59-.73-2.1-1.42-4.11-3.04-5.63-5.08-.76-1.02-1.35-2.16-1.97-3.27-.66-1.19-1.31-2.4-1.93-3.61-.28-.54-1.2-.26-.9.31h0Z"/>
              <path class="cls-7" d="M82.25,82.31c.16.9.28,1.8.39,2.71.03.25.29.48.55.44s.45-.25.42-.52c-.11-.91-.23-1.81-.39-2.71-.04-.25-.28-.48-.55-.44-.25.03-.47.25-.42.52h0Z"/>
              <path class="cls-7" d="M128.17,82.68c-.07.48-.13.96-.17,1.44,0,.13.02.25.1.36s.21.19.33.21c.25.03.52-.12.54-.39.04-.48.09-.96.17-1.44.04-.25-.17-.53-.43-.56s-.5.12-.54.39h0Z"/>
              <path class="cls-7" d="M138.68,88.67c.04.48.07.96.11,1.44.02.25.3.48.55.44.27-.03.44-.25.42-.52-.04-.48-.07-.96-.11-1.44-.02-.25-.3-.48-.55-.44-.27.03-.44.25-.42.52h0Z"/>
              <path class="cls-7" d="M160.13,113.91c1.4,1.84,1.84,4.23,1.84,6.5,0,1.77-.43,3.52-1.4,5.01-1.05,1.6-2.57,2.75-4.23,3.66-.47.26-.64.68-.89,1.14-.29.52-.58,1.04-.87,1.55-.62,1.1-1.2,2.24-1.88,3.31-1.36,2.14-3.29,3.87-5.31,5.37-.5.37.11,1.16.59.8,1.92-1.43,3.75-3.05,5.14-5.02.7-.99,1.26-2.09,1.85-3.15.32-.56.63-1.13.95-1.69.29-.52.53-1.26,1.07-1.54,3.48-1.8,5.88-5.13,5.94-9.1.04-2.58-.43-5.29-2.03-7.39-.38-.5-1.17.02-.78.54h0Z"/>
              <path class="cls-7" d="M154.39,115.88c0,.77-.28,1.55-.49,2.28-.26.87-.46,1.78-.91,2.58-.13.23.06.54.27.64.26.12.51,0,.64-.23.47-.83.67-1.77.94-2.67.23-.77.52-1.61.53-2.42,0-.27-.15-.51-.43-.56-.23-.04-.54.12-.54.39h0Z"/>
              <path class="cls-7" d="M150.13,114.51c1.22.06,2.45.23,3.54.81,1.02.54,1.83,1.37,2.45,2.33.54.85,1.1,1.92,1.04,2.96-.02.46-.17.91-.27,1.35-.08.37-.11.82-.3,1.15-.3.52.6.95.91.41.23-.4.26-.95.36-1.39.11-.47.26-.95.28-1.44.05-1.28-.56-2.54-1.24-3.59s-1.65-2.01-2.8-2.63c-1.26-.68-2.68-.87-4.1-.93-.64-.03-.47.93.13.96h0Z"/>
              <path class="cls-7" d="M156.25,129.2c-.28.04-.53.2-.79.31-.28.13-.56.25-.84.36-.52.21-1.06.41-1.6.58-1.12.36-2.26.62-3.42.79-.63.1-.47,1.05.13.96,1.18-.18,2.35-.44,3.48-.79.56-.17,1.11-.37,1.66-.59.26-.11.53-.22.79-.33.15-.07.3-.13.45-.2.07-.03.15-.07.22-.11.13-.06.15-.07.05-.03.63-.09.47-1.05-.13-.96h0Z"/>
              <path class="cls-7" d="M149.23,99.07c1.9.16,3.8.32,5.7.44.26.02.51-.11.54-.39.03-.24-.16-.54-.43-.56-1.9-.13-3.8-.29-5.7-.44-.64-.05-.74.9-.12.95h0Z"/>
            </g>
          </g>
        </g>
        <g>
          <g id="Layer0_9_MEMBER_0_FILL" data-name="Layer0 9 MEMBER 0 FILL">
            <path class="cls-10" d="M105.25,149.99c-.15-.3-.29-.57-.44-.83-.81-1.29-2.38-1.94-4.7-1.94-2.18,0-4,.65-5.48,1.94.18.81.5,1.53.94,2.16,1.14,1.81,2.8,2.71,4.98,2.71s3.73-1.29,4.65-3.87c.04-.04.06-.09.06-.17Z"/>
            <path class="cls-11" d="M106.08,144.62v-1.05c-1.25-.11-2.27-.17-3.04-.17-.7,0-3.65.13-8.85.39-.15,2.07,0,3.85.44,5.37,1.48-1.29,3.3-1.94,5.48-1.94,2.32,0,3.89.65,4.7,1.94.15.26.3.53.44.83.55-1.59.83-3.37.83-5.37Z"/>
            <path class="cls-6" d="M121.24,112.15c-1.4,1.4-2.1,3.12-2.1,5.15s.7,3.73,2.1,5.09c1.4,1.4,3.1,2.1,5.09,2.1s3.74-.7,5.15-2.1c1.4-1.36,2.1-3.04,2.1-5.03.26-.15.55-.33.89-.55,1.36-.85,2.01-1.95,1.94-3.32-.44.52-1.01.92-1.72,1.22-.48.22-.96.35-1.44.39-.33-1.07-.92-2.05-1.77-2.93-1.4-1.36-3.12-2.05-5.15-2.05s-3.69.68-5.09,2.05M124.39,115.41c.48-.52,1.11-.77,1.88-.77.74,0,1.36.26,1.88.77.52.48.77,1.11.77,1.88s-.26,1.38-.77,1.94c-.52.52-1.14.77-1.88.77-.77,0-1.4-.26-1.88-.77-.55-.55-.83-1.2-.83-1.94,0-.77.28-1.4.83-1.88M82.29,117.29c0-2.03-.7-3.74-2.1-5.15-1.36-1.36-3.06-2.05-5.09-2.05s-3.74.68-5.15,2.05c-.81.89-1.4,1.86-1.77,2.93-.48-.04-.96-.17-1.44-.39-.7-.3-1.27-.7-1.72-1.22-.07,1.36.55,2.47,1.88,3.32.37.22.7.41,1,.55,0,1.99.68,3.67,2.05,5.03,1.4,1.4,3.12,2.1,5.15,2.1s3.73-.7,5.09-2.1c1.4-1.36,2.1-3.06,2.1-5.09M72.5,117.29c0-.77.26-1.4.77-1.88.52-.52,1.14-.77,1.88-.77.74,0,1.36.26,1.88.77.55.48.83,1.11.83,1.88s-.28,1.38-.83,1.94c-.52.52-1.14.77-1.88.77s-1.36-.26-1.88-.77c-.52-.55-.77-1.2-.77-1.94Z"/>
            <path class="cls-14" d="M126.27,114.64c-.77,0-1.4.26-1.88.77-.55.48-.83,1.11-.83,1.88s.28,1.38.83,1.94c.48.52,1.11.77,1.88.77s1.36-.26,1.88-.77c.52-.55.77-1.2.77-1.94,0-.77-.26-1.4-.77-1.88-.52-.52-1.14-.77-1.88-.77M73.27,115.41c-.52.48-.77,1.11-.77,1.88s.26,1.38.77,1.94c.52.52,1.14.77,1.88.77s1.36-.26,1.88-.77c.55-.55.83-1.2.83-1.94,0-.77-.28-1.4-.83-1.88-.52-.52-1.14-.77-1.88-.77-.74,0-1.36.26-1.88.77Z"/>
          </g>
          <g id="Layer0_9_MEMBER_0_1_STROKES" data-name="Layer0 9 MEMBER 0 1 STROKES">
            <g>
              <path class="cls-7" d="M69.4,107.7c.77-.87,1.67-1.63,2.69-2.18.91-.49,1.97-.7,2.99-.81s1.99-.11,2.95.35c1.11.53,1.98,1.45,2.73,2.4.38.48,1.14.02.74-.49-.83-1.05-1.79-2.03-2.99-2.66-1.07-.56-2.18-.67-3.37-.56s-2.34.32-3.39.84c-1.19.58-2.24,1.48-3.12,2.47-.38.43.4,1.06.78.63h0Z"/>
              <path class="cls-7" d="M133.06,107.14c-.87-.98-1.89-1.84-3.05-2.46-1.06-.57-2.3-.79-3.48-.9s-2.21-.05-3.27.46c-1.24.6-2.23,1.6-3.07,2.67-.35.45.42,1.08.78.63.73-.93,1.57-1.8,2.62-2.37.98-.53,1.98-.58,3.07-.46.99.11,2.01.29,2.91.74,1.05.52,1.99,1.32,2.76,2.19.4.45,1.17,0,.74-.49h0Z"/>
              <path class="cls-7" d="M99.77,127.6c-.65,1.04-1.5,1.92-2.29,2.86-.58.68-1.16,1.38-1.8,2.01-.2.2-.51.41-.53.71-.03.48.1,1.01.31,1.44.45.91,1.33,1.49,2.29,1.77,1.24.37,2.59.4,3.88.4.64,0,.4-.92-.16-.92-1.24,0-2.62,0-3.8-.43-.51-.19-1-.5-1.28-.97-.11-.18-.18-.39-.22-.6-.03-.12,0-.31-.06-.42.02.05-.15.16,0,.03.67-.6,1.25-1.31,1.83-1.99.9-1.05,1.89-2.06,2.63-3.24.3-.48-.48-1.11-.78-.63h0Z"/>
              <path class="cls-7" d="M106.16,144.03c.14,0,.29.02.43.03.06,0,.13.01.19.02.03,0,.18.01.04,0,.03,0,.07,0,.1,0,.31.03.63.06.94.1.12.01.24.01.34-.06.09-.06.17-.18.17-.29.01-.24-.18-.52-.43-.55-.65-.07-1.3-.13-1.95-.18-.25-.02-.44.25-.39.48.06.27.28.43.55.44h0Z"/>
              <path class="cls-7" d="M105.7,150.2c.73-2.13.86-4.3.86-6.53,0-.33-.24-.54-.55-.56-3.96-.34-7.94.03-11.89.22-.2,0-.38.16-.39.36-.12,1.84-.06,3.7.45,5.48.08.28.47.63.77.38,1.41-1.2,3.11-1.81,4.95-1.86,1.48-.04,3.33.14,4.32,1.39.11.14.21.3.3.46.04.08.08.17.13.25,0,0,.18.27.13.12l.04-.05c-.04.06-.07.12-.09.19-.03.09-.07.18-.1.26-.09.22-.18.44-.29.65-.33.66-.76,1.3-1.34,1.76-1.17.95-2.76,1.03-4.17.63-1.91-.54-3.26-2.33-3.72-4.2-.13-.54-1.09-.58-.94.03.48,1.97,1.76,3.85,3.63,4.73,1.59.75,3.66.86,5.23-.02.76-.43,1.37-1.09,1.82-1.82.23-.37.43-.77.6-1.17.21-.5.37-.79.11-1.29-.41-.8-.9-1.45-1.67-1.94s-1.74-.74-2.67-.84c-2.48-.25-4.97.3-6.89,1.94l.77.38c-.49-1.71-.55-3.48-.44-5.25l-.39.36c3.96-.2,7.94-.56,11.89-.22l-.55-.56c0,2.15-.1,4.25-.8,6.31-.18.53.7.99.9.43h0Z"/>
              <path class="cls-7" d="M92.6,144.36c.55-.03,1.11-.07,1.66-.11.24-.02.44-.23.39-.48s-.29-.46-.55-.44c-.55.04-1.11.08-1.66.11-.24.02-.44.23-.39.48s.29.46.55.44h0Z"/>
            </g>
          </g>
        </g>
        <g id="Layer0_9_MEMBER_1_FILL" data-name="Layer0 9 MEMBER 1 FILL">
          <path class="cls-16" d="M89.14,9.42c-.62,1.07-.57,2.1.16,3.1.69.97,1.64,1.4,2.84,1.29.65-.03,1.29-.26,1.91-.67.76-.48,1.26-.91,1.5-1.29.31-.41.47-.91.47-1.5-.03-.55-.22-1.09-.57-1.6-.38-.48-.84-.83-1.4-1.03-1.07-.41-2.19-.33-3.36.26-.69.34-1.21.83-1.55,1.45M69.49,42.77v.1c-.9,0-1.52.16-1.86.47-.38.31-.57.71-.57,1.19s.19.86.57,1.14c.24.21.53.36.88.47.31.1.62.16.93.16.45.03.86-.12,1.24-.47.34-.34.53-.76.57-1.24,0-.48-.17-.9-.52-1.24-.38-.38-.79-.57-1.24-.57M75.44,43.28c-.31.31-.47.74-.47,1.29.07.76.38,1.26.93,1.5.69.41,1.34.34,1.96-.21.59-.48.76-1.14.52-1.96-.28-.72-.83-1.12-1.65-1.19v.16c-.41-.1-.84.03-1.29.41M82.78,41.53c-.62.38-1.14.84-1.55,1.4-1.07,1.45-1.33,2.81-.78,4.08.38.83,1.02,1.38,1.91,1.65.9.24,1.72.09,2.48-.47.34-.24.72-.64,1.14-1.19.93-1.21,1.38-2.26,1.34-3.15-.07-1.1-.62-1.9-1.65-2.38-.93-.48-1.9-.47-2.9.05M127.24,45.61l-.1.21.05.26c.1.38.34.65.72.83.38.21.74.21,1.09,0,.31-.21.5-.48.57-.83.07-.52-.05-.9-.36-1.14-.14-.14-.41-.28-.83-.41v.1c-.24-.07-.55.07-.93.41l-.16.31-.05.26M122.54,44.73c.17-.76.03-1.43-.41-2.02-.48-.59-1.1-.88-1.86-.88-.55-.07-1.03.09-1.45.47-.41.31-.69.74-.83,1.29-.1.52-.07,1.03.1,1.55.28.62.71,1.07,1.29,1.34.76.38,1.45.36,2.07-.05.28-.21.48-.47.62-.78l.47-.93M111.47,43.75c0,.72.09,1.29.26,1.71.34,1.07,1.09,1.72,2.22,1.96.52.1,1.02.05,1.5-.16.52-.17.91-.48,1.19-.93.31-.45.47-1.03.47-1.76,0-.97-.34-1.79-1.03-2.48-.69-.69-1.52-.98-2.48-.88-.62.07-1.1.29-1.45.67-.38.38-.6,1-.67,1.86Z"/>
        </g>
      </g>
    </g>
  </g>
</svg>