<?xml version="1.0" encoding="UTF-8"?>
<svg id="Warstwa_2" data-name="Warstwa 2" xmlns="http://www.w3.org/2000/svg" xmlns:xlink="http://www.w3.org/1999/xlink" viewBox="0 0 200 206.2">
  <defs>
    <style>
      .cls-1 {
        fill: #dce3c4;
      }

      .cls-1, .cls-2, .cls-3, .cls-4, .cls-5, .cls-6, .cls-7, .cls-8, .cls-9, .cls-10, .cls-11, .cls-12, .cls-13, .cls-14 {
        stroke-width: 0px;
      }

      .cls-2 {
        fill: #efb19e;
      }

      .cls-3 {
        fill: #fec28e;
      }

      .cls-4 {
        fill: #e96b22;
      }

      .cls-5 {
        fill: none;
      }

      .cls-6 {
        fill: #f89136;
      }

      .cls-7 {
        fill: #572100;
      }

      .cls-8 {
        fill: #4e4b4b;
      }

      .cls-15 {
        clip-path: url(#clippath);
      }

      .cls-9 {
        fill: #4dc6d0;
      }

      .cls-10 {
        fill: #dee8e9;
      }

      .cls-11 {
        fill: #ffdbc8;
      }

      .cls-12 {
        fill: #7bdee6;
      }

      .cls-13 {
        fill: #fff;
      }

      .cls-14 {
        fill: #274f57;
      }
    </style>
    <clipPath id="clippath">
      <path id="Layer0_1_1_STROKES-2" data-name="Layer0 1 1 STROKES" class="cls-5" d="M200,99.97c0,27.66-9.76,51.23-29.27,70.71-19.51,19.55-43.08,29.32-70.71,29.32s-51.21-9.77-70.76-29.32C9.76,151.2,0,127.63,0,99.97S9.76,48.76,29.27,29.21C48.82,9.74,72.4,0,100.03,0s51.19,9.74,70.71,29.21c19.51,19.55,29.27,43.14,29.27,70.76Z"/>
    </clipPath>
  </defs>
  <g id="Warstwa_1-2" data-name="Warstwa 1">
    <g>
      <g id="Layer0_1_1_STROKES" data-name="Layer0 1 1 STROKES">
        <path class="cls-1" d="M200,99.97c0,27.66-9.76,51.23-29.27,70.71-19.51,19.55-43.08,29.32-70.71,29.32s-51.21-9.77-70.76-29.32C9.76,151.2,0,127.63,0,99.97S9.76,48.76,29.27,29.21C48.82,9.74,72.4,0,100.03,0s51.19,9.74,70.71,29.21c19.51,19.55,29.27,43.14,29.27,70.76Z"/>
      </g>
      <g class="cls-15">
        <g>
          <g id="Layer0_0_FILL" data-name="Layer0 0 FILL">
            <path class="cls-9" d="M64.18,173.33c2.62,0,4.52,1.22,5.7,3.65.59,1.18,1.31,3.89,2.16,8.13.81,3.73,1.81,6.42,2.99,8.08,1.77,2.43,4.44,3.65,8.02,3.65,2.4,0,5.29-1.14,8.69-3.43,3.02-2.07,6.28-3.21,9.79-3.43v-5.86c-.06,0-.11,0-.17,0-.27,0-.55,0-.83,0-2.76,2.87-5.93,4.97-9.52,6.31-3.58,1.37-6.33,2.11-8.24,2.21-1.91.11-3.59-.61-5.03-2.16-1.4-1.55-2.1-4.02-2.1-7.41,0-6.31,1.05-11.54,3.15-15.71.95-1.85,2.24-3.35,3.87-4.48-10.39,2.85-17.22,4.66-20.47,5.42-3.21.8-6.31,2.92-9.29,6.36-.28.35-.62.81-1,1.38.97-.41,2.02-.8,3.15-1.16,3.17-1.03,6.21-1.55,9.13-1.55M120.39,162.99c.12.07.23.15.33.22.55.41,1.07.87,1.55,1.38.77.81,1.42,1.73,1.94,2.77,2.03,4.02,3.08,9.04,3.15,15.05v.66c0,3.39-.72,5.86-2.16,7.41-1.4,1.55-3.06,2.27-4.98,2.16-1.92-.11-4.67-.83-8.24-2.16-3.58-1.36-6.75-3.5-9.52-6.42-.31.04-.62.05-.94.06v5.86c.44-.04.88-.06,1.33-.06,1.22,0,4.26,1.27,9.13,3.82s9.48,3.82,13.83,3.82c1.88,0,3.37-1.2,4.48-3.6,1.18-3.36,2.18-5.98,2.99-7.86,3.05-7.21,8.71-11.03,16.98-11.45-2.95-3.43-6.05-5.53-9.29-6.31-3.21-.81-10.07-2.6-20.58-5.37Z"/>
            <path class="cls-12" d="M39.52,205.92l.1-.29c5.5-15.59,9.56-25.58,12.08-29.7l.04-.06.06-.03c.97-.41,2.04-.81,3.17-1.17,3.18-1.03,6.27-1.56,9.2-1.56,2.7,0,4.68,1.27,5.9,3.78.6,1.19,1.33,3.95,2.18,8.19.8,3.68,1.79,6.37,2.95,7.99,1.72,2.36,4.35,3.56,7.84,3.56,2.34,0,5.22-1.14,8.56-3.39,3.03-2.08,6.37-3.24,9.9-3.47.44-.04.89-.06,1.34-.06,1.27,0,4.29,1.26,9.23,3.84,4.81,2.52,9.43,3.79,13.73,3.79,1.8,0,3.2-1.13,4.28-3.47,1.17-3.34,2.18-5.98,2.99-7.85,3.07-7.26,8.85-11.16,17.18-11.59h.11s.07.08.07.08c2.43,2.79,6.86,13.26,13.15,31.11l.1.29H39.52Z"/>
            <path class="cls-12" d="M163.37,205.7c-6.31-17.9-10.68-28.25-13.11-31.04-8.27.42-13.93,4.24-16.98,11.45-.81,1.88-1.81,4.5-2.99,7.86-1.11,2.4-2.6,3.6-4.48,3.6-4.35,0-8.96-1.27-13.83-3.82s-7.91-3.82-9.13-3.82c-.45,0-.89.02-1.33.06v15.33-15.33c-3.51.22-6.78,1.36-9.79,3.43-3.39,2.29-6.29,3.43-8.69,3.43-3.58,0-6.25-1.22-8.02-3.65-1.18-1.66-2.18-4.35-2.99-8.08-.85-4.24-1.57-6.95-2.16-8.13-1.18-2.43-3.08-3.65-5.7-3.65-2.91,0-5.96.52-9.13,1.55-1.13.36-2.18.75-3.15,1.16-2.52,4.12-6.54,14.01-12.06,29.65h21.08c-.15-1.1-.22-1.76-.22-1.99,0-3.91.65-8.1,1.94-12.56.84-2.99,1.39-5.07,1.66-6.25-.27,1.18-.82,3.26-1.66,6.25-1.29,4.46-1.94,8.65-1.94,12.56,0,.23.07.9.22,1.99h81.38c.15-1.1.22-1.76.22-1.99,0-3.91-.65-8.1-1.94-12.56-.85-2.99-1.42-5.07-1.72-6.25.3,1.18.87,3.26,1.72,6.25,1.29,4.46,1.94,8.65,1.94,12.56,0,.23-.07.9-.22,1.99h21.08Z"/>
            <path class="cls-2" d="M114.85,143.9h-26.67c-.51,4.39-.83,10.05-.94,16.98-.01.53-.03,1.06-.06,1.6.02.27.02.53,0,.77v4.09-4.09c.02-.25.02-.51,0-.77-.82.3-1.65.72-2.49,1.27-2.25,1.44-3.37,3.17-3.37,5.2,0,4.06,2.4,7.82,7.19,11.29,3.39,2.46,7.39,3.75,12.01,3.87.28,0,.56,0,.83,0,.06,0,.11,0,.17,0,.32,0,.63-.02.94-.06,3.06-.08,5.82-.65,8.3-1.72,1.34-.56,2.59-1.26,3.76-2.1,4.79-3.47,7.19-7.23,7.19-11.29,0-2.03-1.12-3.76-3.37-5.2-.32-.21-.63-.41-.94-.61-.53-.26-1.06-.48-1.6-.66.03.69.04,1.39.06,2.1v2.77-2.77c-.01-.72-.03-1.42-.06-2.1.01-.54.01-1.07,0-1.6-.11-6.93-.43-12.59-.94-16.98Z"/>
            <path class="cls-10" d="M120.72,163.21c-.1-.08-.21-.15-.33-.22-1.3-.94-2.83-1.65-4.59-2.1.01.53.01,1.07,0,1.6.54.19,1.08.41,1.6.66.31.2.62.4.94.61,2.25,1.44,3.37,3.17,3.37,5.2,0,4.06-2.4,7.82-7.19,11.29-1.17.85-2.42,1.55-3.76,2.1-2.47,1.07-5.24,1.64-8.3,1.72,2.77,2.91,5.94,5.05,9.52,6.42,3.58,1.33,6.33,2.05,8.24,2.16,1.92.11,3.58-.61,4.98-2.16,1.44-1.55,2.16-4.02,2.16-7.41v-.66c-.07-6.01-1.12-11.03-3.15-15.05-.52-1.03-1.16-1.95-1.94-2.77-.48-.52-1-.98-1.55-1.38M87.25,160.89c-1.74.44-3.27,1.1-4.59,1.99-1.63,1.13-2.92,2.63-3.87,4.48-2.1,4.17-3.15,9.41-3.15,15.71,0,3.4.7,5.87,2.1,7.41,1.44,1.55,3.12,2.27,5.03,2.16,1.91-.1,4.66-.84,8.24-2.21,3.59-1.34,6.76-3.44,9.52-6.31-4.61-.13-8.62-1.42-12.01-3.87-4.79-3.47-7.19-7.23-7.19-11.29,0-2.03,1.12-3.76,3.37-5.2.84-.55,1.67-.97,2.49-1.27.02-.54.04-1.08.06-1.6Z"/>
          </g>
          <g id="Layer0_0_1_STROKES" data-name="Layer0 0 1 STROKES">
            <g>
              <path class="cls-7" d="M87.7,161.02c.1-5.67.29-11.35.94-16.98l-.33.28h26.67l-.57-.55c.65,5.64.85,11.34.94,17.01,0,.24.23.47.45.53,1.57.4,2.94,1.04,4.31,1.9.62.39,1.49.49,2.19.68.82.22,1.64.43,2.45.65,2.65.7,5.3,1.39,7.95,2.09,1.92.5,3.84,1,5.76,1.5,1.71.44,3.48.79,5.09,1.56,3.41,1.64,6.26,4.45,8.07,7.76,1.71,3.12,3.08,6.43,4.41,9.72,2.47,6.11,4.72,12.31,6.91,18.52l.31-.39H39.72l.55.65c1.93-5.47,3.91-10.93,6.04-16.34,1.38-3.52,2.81-7.03,4.49-10.42.61-1.23,1.25-2.46,2.04-3.58,1.59-2.25,3.93-4.26,6.35-5.58,1.65-.9,3.41-1.31,5.21-1.76s3.47-.9,5.2-1.36c2.78-.74,5.56-1.49,8.34-2.25.8-.22,1.61-.44,2.41-.66.85-.23,1.86-.37,2.66-.74.66-.3,1.26-.77,1.93-1.08.82-.37,1.67-.65,2.54-.88l-.67-.54c-.05,2.16-.05,4.32-.06,6.47,0,.44.9.83.9.27,0-2.16,0-4.32.06-6.47,0-.3-.38-.62-.67-.54-1.39.36-2.75.87-3.99,1.6-1.36.81-3.06,1.07-4.59,1.49-2.65.72-5.3,1.44-7.95,2.15-1.9.51-3.8,1.01-5.7,1.5-1.53.39-3.12.7-4.59,1.27-2.56,1-4.77,2.76-6.66,4.74-1.27,1.34-2.23,2.81-3.08,4.43-1.65,3.14-3.01,6.44-4.33,9.73-2.4,5.97-4.59,12.02-6.73,18.08-.11.3.27.65.55.65h123.54c.21,0,.4-.16.31-.39-2.03-5.76-4.12-11.51-6.38-17.19-1.43-3.59-2.89-7.19-4.68-10.61-.53-1.01-1.09-2.02-1.77-2.94-1.39-1.89-3.27-3.58-5.22-4.87s-3.88-1.91-6.04-2.47c-1.72-.44-3.44-.89-5.16-1.34-2.92-.76-5.83-1.53-8.75-2.29-.87-.23-1.74-.46-2.61-.69-.46-.12-.92-.24-1.37-.36-.43-.11-.96-.18-1.36-.37-.72-.35-1.35-.85-2.09-1.18-.84-.38-1.7-.67-2.59-.9l.45.53c-.1-5.68-.29-11.37-.94-17.01-.03-.27-.28-.55-.57-.55h-26.67c-.19,0-.31.09-.33.28-.65,5.63-.85,11.32-.94,16.98,0,.44.89.83.9.27h0Z"/>
              <path class="cls-7" d="M120.19,163.26c3.06,2.17,4.54,5.6,5.48,9.13,1,3.74,1.4,7.77,1.21,11.65-.16,3.26-1.38,6.97-4.88,7.98-1.44.42-2.98.15-4.42-.18-1.87-.43-3.7-1.04-5.49-1.71-1.99-.75-3.9-1.77-5.63-3.01-.84-.61-1.65-1.26-2.42-1.96-.44-.4-.83-.85-1.27-1.24-.39-.35-.88-.21-1.38-.21-.18,0-.33.09-.33.28v5.86c0,.44.9.83.9.27v-5.86l-.33.28c.31,0,.63-.01.94-.03l-.44-.24c2.73,2.84,5.97,5.1,9.65,6.53,1.88.73,3.83,1.37,5.8,1.82,1.46.33,3.02.63,4.51.3,3.46-.76,5.16-4.07,5.56-7.3.26-2.1.16-4.27,0-6.37-.15-1.97-.43-3.93-.89-5.86-.96-4.08-2.62-8.18-6.14-10.68-.5-.35-.95.19-.44.55h0Z"/>
              <path class="cls-7" d="M115.35,160.78c.01.53.02,1.05.03,1.58,0,.26.23.45.45.53,2.04.75,4.37,2.17,5.16,4.32.63,1.72.19,3.8-.48,5.44-.8,1.95-2.14,3.63-3.66,5.07-1.79,1.7-3.84,3.16-6.1,4.17-2.64,1.18-5.53,1.71-8.4,1.81-.62.02-.22.85.23.83,2.74-.1,5.45-.55,8.02-1.56s4.8-2.56,6.8-4.4c1.7-1.57,3.19-3.43,4.04-5.6.7-1.79,1.07-4,.36-5.84-.97-2.49-3.57-4.13-5.97-5.02l.45.53c0-.53-.02-1.05-.03-1.58,0-.44-.91-.82-.9-.27h0Z"/>
              <path class="cls-7" d="M115.38,162.36c.02,1.62.03,3.25.03,4.87,0,.44.9.83.9.27,0-1.62,0-3.25-.03-4.87,0-.44-.9-.83-.9-.27h0Z"/>
              <path class="cls-7" d="M138.43,184.87c1.7,6.76,4.36,13.61,3.41,20.7-.06.44.82.83.9.27.95-7.15-1.73-14.09-3.45-20.91-.11-.44-1.01-.65-.86-.06h0Z"/>
              <path class="cls-7" d="M86.9,162.11c-2.26.84-4.73,2.4-5.66,4.74-.76,1.92-.29,4.25.47,6.1.91,2.19,2.44,4.04,4.17,5.63,1.99,1.82,4.26,3.35,6.77,4.37,2.86,1.16,5.9,1.59,8.97,1.59.62,0,.22-.83-.23-.83-2.53,0-5.03-.28-7.44-1.07s-4.54-2.05-6.49-3.62c-1.8-1.45-3.45-3.17-4.53-5.23-.88-1.68-1.5-3.88-1.05-5.78.62-2.59,3.3-4.27,5.63-5.13.46-.17-.21-.91-.63-.75h0Z"/>
              <path class="cls-7" d="M101.07,189.85v15.33c0,.44.9.83.9.27,0-4.47,0-8.95,0-13.42v-1.9c0-.44-.9-.83-.9-.27h0Z"/>
              <path class="cls-7" d="M82.37,162.5c-3.11,2.17-4.74,5.56-5.76,9.12-1.13,3.91-1.57,8.14-1.41,12.2.13,3.37,1.17,6.84,4.36,8.51s6.87.22,9.88-.82c2.18-.75,4.3-1.62,6.27-2.84s3.64-2.63,5.21-4.24c.32-.33-.44-.97-.78-.63-2.59,2.68-5.68,4.8-9.16,6.16-1.78.7-3.61,1.32-5.47,1.77-1.41.35-2.96.69-4.4.38-3.51-.76-4.78-4.32-4.98-7.5-.25-3.78.14-7.75,1.05-11.42s2.51-7.63,5.82-9.94c.42-.29-.26-1.01-.63-.75h0Z"/>
              <path class="cls-7" d="M63.88,184.67c-1.66,6.84-4.37,13.75-3.42,20.9.06.43.97.81.9.27-.95-7.09,1.74-13.93,3.39-20.7.11-.44-.75-.95-.87-.46h0Z"/>
            </g>
          </g>
        </g>
      </g>
      <g>
        <g>
          <g id="Layer0_8_FILL" data-name="Layer0 8 FILL">
            <path class="cls-6" d="M155.01,158.04c1.06-1.43,2.12-2.93,3.15-4.47,2.52-3.98,4.15-7.29,4.84-9.84.25-1.01.64-4.34,1.16-9.87.48-5.32.7-9.41.66-12.15v-.08s.05-.06.05-.06c1.28-1.61,3.24-4.01,5.81-7.14,1.94-2.37,3.68-4.59,5.2-6.58l.37-.48.03.6c.18,3.52.31,7.13.39,10.74.63,9.31.96,14.71,1,16.49-.04,1.69-.36,3.18-.96,4.42-.08.13-.15.25-.22.39-.61,1.14-1.51,2.08-2.68,2.8l-.26.16-.07-.29c-.26-.99-.52-1.9-.77-2.7-.66-2.13-1.37-3.66-2.13-4.56-.05,1.58-.15,3.1-.32,4.52-.15,1.52-.39,2.98-.72,4.34-.22,1.1-.52,2.15-.89,3.13-.74,2.04-1.72,3.81-2.91,5.26-2.31,2.83-5.83,4.75-10.47,5.72l-.57.12.35-.47ZM45.42,158.11c-4.09-1-7.22-2.83-9.3-5.44-1.19-1.45-2.17-3.22-2.91-5.26-.78-2.15-1.32-4.66-1.62-7.47-.17-1.43-.27-2.95-.32-4.52-.76.9-1.47,2.43-2.13,4.56-.26.8-.52,1.71-.77,2.7l-.07.29-.26-.16c-1.17-.71-2.12-1.65-2.84-2.78-.75-1.17-1.25-2.97-1.47-5.35-.26-2.36-.43-4.2-.5-5.48-.07-1.3.35-5.88,1.27-13.59.04-.55.11-1.17.22-1.84l.07-.4.3.28c1.47,1.36,3.6,3.34,6.36,5.92,2.16,1.94,4.11,3.63,5.8,5.03l.09.07v.11c-.12,2.55-.32,6.62-.61,12.23,0,5.96,1.7,11.43,5.05,16.24,1.13,1.64,2.42,3.15,3.84,4.5l.61.57-.81-.2ZM38.53,80.76c-1.75-.78-3.66-2.27-5.66-4.42-.41-.45-.85-.97-1.34-1.56l-.06-.08.02-.1c.55-3.06,1.14-6.25,1.77-9.57,4.56-23.97,12.29-36.13,23-36.13.86,0,1.75.08,2.65.23,3.33-6.95,8.56-11.72,15.54-14.18,6.51-2.3,13.72-3.46,21.41-3.46.58,0,1.16,0,1.74.02,8.32.18,19.37,2.31,32.87,6.32,13.53,4.02,23.88,11.68,30.78,22.78,4.16,6.74,7.48,15.04,9.87,24.68l.04.17-.16.08c-2.64,1.36-5.94,2.94-9.8,4.71-3.82,1.73-7.14,3.11-9.86,4.1,0,0-3.5.23-3.5.23-12.99,0-25.38-1.34-36.85-3.99-10.81-2.5-23.44-6.73-37.55-12.57-1.76-.88-4.31-3.93-7.79-9.32-3.41-5.7-4.58-7.57-4.91-8.03-.33.15-.58.27-.77.37-.06.02-.13.06-.21.15.08,2.25.41,6.12.99,11.52.37,3.24.65,5.7.83,7.36v.09s-.05.07-.05.07c-1.33,1.66-3.55,4.1-6.6,7.26-5.63,5.78-11.08,10.24-16.2,13.26l-.1.06-.1-.05Z"/>
            <path class="cls-6" d="M31.31,119.72c-2.77-2.58-4.89-4.56-6.36-5.92-.11.66-.18,1.27-.22,1.83-.92,7.75-1.35,12.26-1.27,13.55.07,1.29.24,3.12.5,5.48.22,2.36.7,4.11,1.44,5.26.7,1.11,1.62,2.01,2.77,2.71.26-1,.52-1.9.77-2.71.77-2.51,1.62-4.19,2.54-5.03v-.77c0-1.18.15-2.6.44-4.26.15-.77.3-1.48.44-2.1-.15.63-.3,1.33-.44,2.1-.3,1.66-.44,3.08-.44,4.26v.77c.04,1.77.15,3.45.33,5.03.3,2.8.83,5.27,1.6,7.41.74,2.03,1.7,3.76,2.88,5.2,2.07,2.58,5.13,4.37,9.18,5.37-1.44-1.36-2.73-2.88-3.87-4.54-3.39-4.87-5.09-10.33-5.09-16.38.3-5.61.5-9.68.61-12.23-1.7-1.4-3.63-3.08-5.81-5.03M176.04,107.99c-1.51,1.99-3.25,4.19-5.2,6.58-2.58,3.14-4.52,5.51-5.81,7.14.04,2.77-.18,6.82-.66,12.17-.52,5.57-.9,8.87-1.16,9.9-.7,2.58-2.32,5.88-4.87,9.9-1.03,1.55-2.08,3.04-3.15,4.48,4.61-.96,8.06-2.84,10.35-5.64,1.18-1.44,2.14-3.17,2.88-5.2.37-.96.66-1.99.89-3.1.33-1.36.57-2.8.72-4.32.18-1.59.3-3.26.33-5.03v-.77c0-1.18-.15-2.6-.44-4.26-.15-.77-.3-1.48-.44-2.1.15.63.3,1.33.44,2.1.3,1.66.44,3.08.44,4.26v.77c.92.85,1.77,2.53,2.54,5.03.26.81.52,1.72.77,2.71,1.14-.7,2.01-1.6,2.6-2.71.07-.15.15-.28.22-.39.59-1.22.9-2.66.94-4.32-.04-1.77-.37-7.27-1-16.49-.07-3.61-.2-7.19-.39-10.73M74.52,15.16c-7.01,2.47-12.17,7.21-15.49,14.22-12.1-2.21-20.62,9.68-25.56,35.68-.63,3.32-1.22,6.51-1.77,9.57.48.59.92,1.11,1.33,1.55,1.99,2.14,3.85,3.6,5.59,4.37,5.13-3.02,10.51-7.43,16.15-13.22,3.06-3.17,5.26-5.59,6.58-7.25-.18-1.66-.46-4.11-.83-7.36-.59-5.5-.92-9.37-1-11.62.11-.15.22-.24.33-.28.22-.11.53-.26.94-.44.22.22,1.9,2.95,5.03,8.19,3.43,5.31,5.99,8.39,7.69,9.24,14.16,5.86,26.67,10.05,37.51,12.56,11.51,2.66,23.77,3.98,36.79,3.98l3.43-.22c2.73-1,6.01-2.36,9.85-4.09,3.87-1.77,7.14-3.34,9.79-4.7-2.4-9.66-5.68-17.87-9.85-24.62-6.9-11.1-17.11-18.66-30.65-22.68-13.54-4.02-24.47-6.12-32.81-6.31-8.37-.18-16.06.96-23.07,3.43Z"/>
            <path class="cls-2" d="M48.91,99.03c-.44-.04-.85-.06-1.22-.06-8.19,0-12.28,3.76-12.28,11.29,0,4.35,2.25,7.65,6.75,9.9,2.21,1.07,4.56,1.79,7.03,2.16-.3-3.54-.46-8.39-.5-14.55v-2.49c0-.63.02-1.24.06-1.83v-.11c-2.95.07-5.18,1.14-6.69,3.21-1,1.4-1.49,2.69-1.49,3.87,0,.22.09.72.28,1.49.18.81.31,1.27.39,1.38-.07-.11-.2-.57-.39-1.38-.18-.77-.28-1.27-.28-1.49,0-1.18.5-2.47,1.49-3.87,1.51-2.07,3.74-3.14,6.69-3.21.04-1.48.09-2.91.17-4.32M43.54,105.45c0,.48.18,1.36.55,2.66.33,1.22.65,2.1.94,2.66-.3-.55-.61-1.44-.94-2.66-.37-1.29-.55-2.18-.55-2.66M167.14,104.79c-.44-1.03-1.03-1.94-1.77-2.71-2.07-2.07-5.24-3.1-9.52-3.1-.37,0-.76.02-1.16.06.07,1.4.13,2.84.17,4.32.96.04,1.84.17,2.66.39,1.62.48,2.95,1.42,3.98,2.82,1,1.4,1.49,2.69,1.49,3.87,0,.22-.09.72-.28,1.49-.18.81-.31,1.27-.39,1.38.07-.11.2-.57.39-1.38.18-.77.28-1.27.28-1.49,0-1.18-.5-2.47-1.49-3.87-1.03-1.4-2.36-2.34-3.98-2.82-.81-.22-1.7-.35-2.66-.39v.11c.04.59.06,1.2.06,1.83v3.49c-.04,5.72-.18,10.24-.44,13.55,2.4-.37,4.7-1.09,6.92-2.16,4.5-2.25,6.75-5.55,6.75-9.9,0-2.14-.33-3.96-1-5.48M160,105.45c0,.48-.18,1.36-.55,2.66-.33,1.22-.65,2.1-.94,2.66.3-.55.61-1.44.94-2.66.37-1.29.55-2.18.55-2.66M126.36,117.57h1.83c.66,0,1.22-.11,1.66-.33.59-.26,1.05-.66,1.38-1.22.37-.52.55-1.09.55-1.72s-.17-1.2-.5-1.72c-.37-.55-.83-.96-1.38-1.22-.33-.15-1.44-.31-3.32-.5-.89-.11-1.55-.18-1.99-.22-.77-.04-1.4.07-1.88.33-.85.41-1.4,1.22-1.66,2.43-.26,1.51.13,2.66,1.16,3.43.52.37,1.18.61,1.99.72h2.16M80.33,117.57c.74-.11,1.33-.31,1.77-.61.85-.55,1.33-1.36,1.44-2.43.07-1.03-.3-1.9-1.11-2.6-.89-.74-2.12-1.07-3.71-1-.96.07-1.81.2-2.54.39-1.07.37-1.83.83-2.27,1.38-.77.92-.96,1.95-.55,3.1.37,1.11,1.14,1.79,2.32,2.05.48.11,1.36.09,2.66-.06.44-.04,1.11-.11,1.99-.22Z"/>
            <path class="cls-11" d="M68.55,57.59c-.07,4.57-3.65,10.9-10.73,18.98-2.8,3.21-5.44,5.85-7.91,7.91-.44,4.32-.77,9.17-1,14.55-.07,1.4-.13,2.84-.17,4.32v.11c-.04.59-.06,1.2-.06,1.83v2.49c.04,6.16.2,11.01.5,14.55.11,1.84.28,3.32.5,4.43v.06c.85,4.5,2.73,8.1,5.64,10.79,1.66,1.51,4.44,3.45,8.35,5.81,2.88,1.73,6.38,3.67,10.51,5.81,9.66,5.09,18.31,7.84,25.95,8.24,7.63.41,16.86-2.14,27.66-7.63,3.95-2.03,7.38-3.85,10.29-5.48.07-.07.15-.11.22-.11,4.83-2.77,8.15-4.98,9.96-6.64,2.91-2.69,4.79-6.29,5.64-10.79v-.06c.22-1.11.41-2.58.55-4.43.26-3.32.41-7.84.44-13.55v-3.49c0-.63-.02-1.24-.06-1.83v-.11c-.04-1.48-.09-2.91-.17-4.32-.15-3.1-.31-6.01-.5-8.74-18.4-1.07-33.56-3.32-45.48-6.75-19.03-5.5-32.42-14.14-40.17-25.95M82.1,116.96c-.44.3-1.03.5-1.77.61-.89.11-1.55.18-1.99.22-1.29.15-2.18.17-2.66.06-1.18-.26-1.95-.94-2.32-2.05-.41-1.14-.22-2.18.55-3.1.44-.55,1.2-1.01,2.27-1.38.74-.18,1.59-.31,2.54-.39,1.59-.07,2.82.26,3.71,1,.81.7,1.18,1.57,1.11,2.6-.11,1.07-.59,1.88-1.44,2.43M128.19,117.57h-3.98c-.81-.11-1.48-.35-1.99-.72-1.03-.77-1.42-1.92-1.16-3.43.26-1.22.81-2.03,1.66-2.43.48-.26,1.11-.37,1.88-.33.44.04,1.11.11,1.99.22,1.88.18,2.99.35,3.32.5.55.26,1.01.66,1.38,1.22.33.52.5,1.09.5,1.72s-.18,1.2-.55,1.72c-.33.55-.79.96-1.38,1.22-.44.22-1,.33-1.66.33Z"/>
            <path class="cls-4" d="M59.86,40.83c-.11.04-.22.13-.33.28.07,2.25.41,6.12,1,11.62.37,3.25.65,5.7.83,7.36-1.33,1.66-3.52,4.08-6.58,7.25-5.64,5.79-11.03,10.2-16.15,13.22-1.73-.77-3.6-2.23-5.59-4.37-.41-.44-.85-.96-1.33-1.55-3.58,18.85-5.83,31.9-6.75,39.17,1.48,1.36,3.6,3.34,6.36,5.92,2.18,1.95,4.11,3.63,5.81,5.03-.11,2.54-.31,6.62-.61,12.23,0,6.05,1.7,11.51,5.09,16.38,1.14,1.66,2.43,3.17,3.87,4.54.92.22,1.88.41,2.88.55,2.1.3,4.44.42,7.03.39-1-1.11-1.92-2.32-2.77-3.65.85,1.33,1.77,2.54,2.77,3.65.74.77,1.51,1.49,2.32,2.16,2.29,1.77,4.72,2.9,7.3,3.37-.33-3.14-.63-7.36-.89-12.67-.04-.37-.06-.74-.06-1.11-.15-2.73-.28-5.13-.39-7.19-3.91-2.36-6.69-4.3-8.35-5.81-2.91-2.69-4.79-6.29-5.64-10.79v-.06c-.22-1.11-.39-2.58-.5-4.43-2.47-.37-4.81-1.09-7.03-2.16-4.5-2.25-6.75-5.55-6.75-9.9,0-7.52,4.09-11.29,12.28-11.29.37,0,.77.02,1.22.06.22-5.38.55-10.24,1-14.55-2.36,1.92-4.57,3.36-6.64,4.32,2.07-.96,4.28-2.4,6.64-4.32,2.47-2.07,5.11-4.7,7.91-7.91,7.08-8.08,10.66-14.4,10.73-18.98-1.92-2.88-3.49-5.94-4.7-9.18,1.22,3.25,2.78,6.31,4.7,9.18,7.75,11.8,21.13,20.45,40.17,25.95,11.91,3.43,27.07,5.68,45.48,6.75,1.92.11,3.85.22,5.81.33-1.95-.11-3.89-.22-5.81-.33.18,2.73.35,5.64.5,8.74.41-.04.79-.06,1.16-.06,4.28,0,7.45,1.03,9.52,3.1.74.77,1.33,1.68,1.77,2.71.66,1.51,1,3.34,1,5.48,0,4.35-2.25,7.65-6.75,9.9-2.21,1.07-4.52,1.79-6.92,2.16-.15,1.84-.33,3.32-.55,4.43v.06c-.85,4.5-2.73,8.1-5.64,10.79-1.81,1.66-5.13,3.87-9.96,6.64-.07,0-.15.04-.22.11-.11,1.84-.22,3.93-.33,6.25,0,.37-.02.74-.06,1.11-.26,5.31-.55,9.53-.89,12.67,2.58-.48,5.02-1.6,7.3-3.37.81-.66,1.59-1.38,2.32-2.16,1-1.11,1.92-2.32,2.77-3.65-.85,1.33-1.77,2.54-2.77,3.65,2.58.04,4.92-.09,7.03-.39.59-.07,1.16-.17,1.72-.28,1.07-1.44,2.12-2.93,3.15-4.48,2.54-4.02,4.17-7.32,4.87-9.9.26-1.03.65-4.33,1.16-9.9.48-5.35.7-9.41.66-12.17,1.29-1.62,3.23-4,5.81-7.14,1.95-2.4,3.69-4.59,5.2-6.58-.41-7.52-.98-14.96-1.72-22.3-.77-7.38-1.92-14.16-3.43-20.36-2.66,1.36-5.92,2.93-9.79,4.7-3.84,1.73-7.12,3.1-9.85,4.09l-3.43.22c-13.02,0-25.28-1.33-36.79-3.98-10.84-2.51-23.35-6.69-37.51-12.56-1.7-.85-4.26-3.93-7.69-9.24-3.14-5.24-4.81-7.97-5.03-8.19-.41.18-.72.33-.94.44Z"/>
          </g>
          <g id="Layer0_8_1_STROKES" data-name="Layer0 8 1 STROKES">
            <g>
              <path class="cls-7" d="M32.18,74.73c1.82-10.06,3.48-20.31,7.46-29.79,2.29-5.46,5.63-11.53,11.24-14.16,2.54-1.19,5.36-1.44,8.11-.95.21.04.4-.05.49-.24,2.87-6.01,7.56-10.84,13.75-13.42,7.19-2.98,15.26-4.03,22.99-4,6.51.02,12.97,1.07,19.32,2.45,3.91.85,7.78,1.85,11.63,2.94,3.62,1.02,7.19,2.13,10.64,3.65,6.03,2.66,11.58,6.38,16.17,11.12,4.74,4.89,8.29,10.72,11.04,16.92,6.68,15.06,8.6,31.57,9.84,47.83.33,4.32.61,8.65.81,12.99s.29,8.61.57,12.92c.2,2.94.39,5.89.55,8.84.12,2.15.35,4.33-.33,6.41-.55,1.68-1.61,3.04-3.1,3.98l.77.37c-.71-2.71-1.41-6.06-3.51-8.07-.23-.22-.74-.13-.75.24-.15,6.4-.95,13.97-5.84,18.64-2.08,1.98-4.77,3.21-7.52,3.95-1.68.45-3.4.69-5.13.84-.81.07-1.61.11-2.42.14-.43.01-.85.02-1.28.03-.4,0-1.05-.12-1.44.02-.3.11-.58.53-.81.75-.38.38-.78.74-1.19,1.09-.73.63-1.53,1.18-2.35,1.68-1.64.98-3.41,1.65-5.28,2.01l.67.54c.7-6.66.87-13.35,1.27-20.03.02-.4-.43-.69-.78-.49-9.31,5.18-19,10.55-29.61,12.47-9.58,1.73-19.11-.83-27.86-4.72-5.66-2.52-11.17-5.52-16.47-8.71-.33-.2-.65.1-.64.43.37,6.99.6,14,1.33,20.97l.51-.48c-3.38-.66-6.34-2.4-8.78-4.8-.23-.23-.47-.6-.79-.71s-.75-.02-1.07-.02c-.89,0-1.78-.02-2.67-.07-1.71-.09-3.42-.28-5.1-.62-2.95-.6-5.88-1.66-8.21-3.61s-3.87-4.69-4.81-7.56c-1.21-3.69-1.57-7.67-1.66-11.54-.01-.45-.51-.75-.86-.41-.86.82-1.4,1.94-1.85,3.02-.65,1.56-1.1,3.2-1.53,4.83l.73-.13c-2.3-1.45-3.41-3.55-3.83-6.17-.37-2.28-.63-4.75-.68-7.03-.03-1.27.12-2.55.24-3.81.22-2.41.49-4.81.77-7.21.93-8.01,2.25-15.97,3.66-23.91,1.15-6.48,2.36-12.96,3.58-19.43.1-.55-.84-.8-.95-.2-1.97,10.4-3.92,20.8-5.59,31.26-.59,3.69-1.1,7.38-1.54,11.08-.3,2.59-.6,5.17-.84,7.77-.13,1.36-.29,2.74-.28,4.12,0,.93.11,1.86.19,2.79.15,1.62.26,3.26.54,4.86.48,2.76,1.76,5.05,4.17,6.57.21.13.64.21.73-.13.41-1.55.84-3.11,1.44-4.61.44-1.09.96-2.21,1.82-3.04l-.86-.41c.12,5.38.7,11.16,3.47,15.9,2.49,4.26,6.64,6.7,11.38,7.77,3.15.71,6.39.89,9.61.85l-.45-.22c2.74,2.85,6.03,4.98,9.95,5.74.31.06.55-.17.51-.48-.73-6.96-.95-13.98-1.33-20.97l-.64.43c4.82,2.9,9.81,5.62,14.91,8s9.96,4.17,15.24,5.25c4.31.88,8.69,1.15,13.06.54,5.02-.7,9.88-2.27,14.55-4.22,5.9-2.46,11.55-5.55,17.12-8.65l-.78-.49c-.4,6.68-.57,13.37-1.27,20.03-.04.38.34.61.67.54,3.39-.66,6.4-2.37,8.9-4.74.28-.27.54-.65.91-.77s1.03,0,1.45,0c.92-.01,1.83-.05,2.74-.12,1.72-.13,3.45-.34,5.14-.74,2.86-.68,5.69-1.84,7.95-3.76,2.4-2.04,3.97-4.8,4.98-7.75,1.3-3.8,1.65-7.96,1.74-11.95l-.75.24c.82.78,1.31,1.89,1.72,2.93.58,1.46,1.01,2.98,1.4,4.49.09.33.45.58.77.37,2.77-1.75,4.03-4.9,3.93-8.11-.07-2.01-.2-4.01-.32-6.01-.24-3.86-.6-7.72-.7-11.58-.11-4.44-.31-8.87-.59-13.3-1.05-16.92-2.47-34.14-8.42-50.16-2.48-6.68-5.74-13.18-10.24-18.73-4.19-5.17-9.39-9.45-15.23-12.64-6.78-3.71-14.29-5.74-21.75-7.6-6.67-1.66-13.46-3.04-20.32-3.5-7.71-.52-15.6.2-23.02,2.37-3.32.97-6.54,2.23-9.41,4.19-2.68,1.84-5,4.2-6.83,6.88-.94,1.38-1.76,2.83-2.48,4.33l.49-.24c-2.51-.45-5.11-.34-7.52.53-2.55.92-4.73,2.6-6.54,4.59-2.29,2.52-4.02,5.53-5.44,8.6-1.91,4.13-3.31,8.48-4.46,12.87-1.64,6.26-2.73,12.65-3.88,19.01-.1.55.84.81.95.2Z"/>
              <path class="cls-7" d="M63.41,48.55c2.44,6.46,6.34,12.3,11.23,17.16,4.57,4.55,9.97,8.2,15.69,11.16,6.53,3.37,13.51,5.87,20.6,7.76s13.67,3.05,20.6,4c8.35,1.14,16.74,1.79,25.15,2.27,1.13.06,2.27.13,3.4.19.63.04.41-.9-.16-.93-8.48-.48-16.94-1.02-25.37-2.07-7.01-.87-13.99-2.02-20.86-3.7s-13.81-3.96-20.3-7.01c-5.9-2.77-11.5-6.23-16.35-10.61s-8.9-9.72-11.6-15.7c-.42-.92-.8-1.86-1.16-2.81-.21-.55-1.1-.33-.87.27h0Z"/>
              <path class="cls-7" d="M50.2,84.88c4.03-3.39,7.61-7.34,10.9-11.45,2.67-3.33,5.27-6.93,6.84-10.93.6-1.53,1.04-3.16,1.08-4.81.01-.56-.94-.81-.95-.2-.07,3.22-1.63,6.31-3.26,9-2.61,4.3-5.89,8.21-9.3,11.89-1.86,2.01-3.81,3.94-5.91,5.7-.46.38.17,1.15.6.79h0Z"/>
              <path class="cls-7" d="M153.99,122.23c-.32,3.9-.98,7.81-3.01,11.23-1.72,2.9-4.24,4.91-7,6.75-.94.62-1.89,1.22-2.85,1.8-.55.33-1.09.66-1.65.98s-1.19.58-1.69.96.15,1.13.6.79,1.01-.56,1.48-.84c.53-.31,1.05-.62,1.57-.93.9-.54,1.79-1.1,2.67-1.67,1.36-.88,2.7-1.8,3.93-2.85,2.89-2.45,4.84-5.78,5.85-9.42.6-2.16.86-4.38,1.05-6.61.05-.56-.9-.81-.95-.2h0Z"/>
              <path class="cls-7" d="M159.52,105.35c0,.84-.29,1.69-.51,2.49-.26.92-.51,1.86-.95,2.71-.26.5.62.95.9.42.46-.88.72-1.86.98-2.81.24-.84.53-1.74.54-2.62,0-.26-.17-.5-.43-.55-.23-.05-.52.1-.52.36h0Z"/>
              <path class="cls-7" d="M154.77,99.5c2.55-.21,5.33.06,7.68,1.12s3.82,2.83,4.59,5.18.91,5.12.18,7.47c-.65,2.1-2.04,3.82-3.8,5.1-2.61,1.9-5.85,2.99-9.02,3.49l.55.56c.63-8.18.57-16.44.16-24.62-.13-2.51-.27-5.02-.44-7.53-.04-.57-.99-.59-.94.04.3,4.42.47,8.85.67,13.28s.04,8.72-.1,13.05c-.06,1.86-.15,3.73-.29,5.59-.02.28.25.61.55.56,5.17-.82,11.33-3.22,13.36-8.5.95-2.46.9-5.37.25-7.9s-2.14-4.78-4.45-6.12c-2.66-1.55-6.07-1.95-9.1-1.7-.64.05-.41.98.16.93h0Z"/>
              <path class="cls-7" d="M154.93,103.81c1.32.06,2.63.28,3.81.9,1.04.54,1.9,1.37,2.55,2.33s1.28,2.16,1.22,3.35c-.02.48-.17.97-.27,1.43-.09.4-.15.9-.36,1.27-.28.49.6.94.9.42.24-.43.3-1.02.41-1.5.12-.53.28-1.08.27-1.63-.02-1.39-.67-2.71-1.43-3.84s-1.77-2.04-2.96-2.67c-1.33-.7-2.81-.93-4.29-1-.63-.03-.41.9.16.93h0Z"/>
              <path class="cls-7" d="M168.99,127.77c.54,2.32.88,4.64.88,7.02,0,.26.17.5.43.55.22.05.52-.1.52-.36,0-2.46-.33-4.86-.89-7.26-.13-.55-1.09-.58-.94.04h0Z"/>
              <path class="cls-7" d="M148.82,154.87c-.82,1.29-1.74,2.51-2.77,3.65-.38.43.39,1.06.78.63,1.02-1.14,1.94-2.36,2.77-3.65.14-.22.1-.49-.11-.66-.17-.14-.52-.19-.67.03h0Z"/>
              <path class="cls-7" d="M43.46,89.24c2.44-1.15,4.65-2.68,6.74-4.37l-.78-.49c-.98,9.62-1.36,19.31-1.14,28.98.09,3.94.19,7.93.68,11.85s1.75,7.58,4.14,10.62c2.7,3.44,6.73,5.76,10.41,7.98.55.34.85-.52.33-.83-1.89-1.15-3.77-2.33-5.57-3.62-1.33-.96-2.63-1.97-3.73-3.19-2.59-2.9-3.99-6.59-4.55-10.39s-.63-7.61-.73-11.38c-.12-4.7-.15-9.4.06-14.1.23-5.25.52-10.5,1.05-15.73.04-.36-.46-.75-.78-.49-2.02,1.63-4.17,3.16-6.53,4.27-.56.26-.12,1.13.39.89h0Z"/>
              <path class="cls-7" d="M48.83,98.57c-4.76-.37-10.31.85-12.63,5.46-1.11,2.19-1.42,4.84-1.22,7.27.23,2.7,1.5,5.13,3.5,6.94,2.88,2.61,6.88,3.96,10.66,4.54.64.1.67-.82.09-.91-5.51-.85-12.21-3.61-13.21-9.8-.69-4.28.69-9.17,4.75-11.25,2.47-1.26,5.49-1.53,8.22-1.32.63.05.4-.89-.16-.93h0Z"/>
              <path class="cls-7" d="M43.07,105.35c0,.91.29,1.81.53,2.67.27.97.53,1.98,1,2.87.12.22.37.39.63.31.23-.07.36-.36.24-.58-.43-.83-.68-1.74-.93-2.64-.14-.5-.27-.99-.38-1.5-.04-.19-.08-.38-.1-.57-.01-.08-.02-.16-.03-.23,0-.03,0-.06,0-.09-.01-.14,0,.08,0-.05,0-.26-.16-.5-.43-.55-.22-.05-.52.1-.52.36h0Z"/>
              <path class="cls-7" d="M48.66,102.88c-2.67.08-5.21,1.03-6.88,3.19-.88,1.15-1.63,2.58-1.7,4.05-.03.59.12,1.16.25,1.72.12.5.19,1.14.44,1.59.29.5,1.19.29.87-.27-.22-.39-.27-.93-.37-1.36-.12-.51-.27-1.03-.24-1.56.08-1.34.79-2.63,1.61-3.66,1.52-1.91,3.79-2.71,6.17-2.78.64-.02.41-.95-.16-.93h0Z"/>
              <path class="cls-7" d="M31.89,127.65c-.55,2.36-.89,4.71-.89,7.14,0,.26.17.5.43.55.22.05.52-.1.52-.36,0-2.42.33-4.78.89-7.14.13-.55-.81-.8-.95-.2h0Z"/>
              <path class="cls-7" d="M52.24,155.43c.82,1.29,1.74,2.51,2.77,3.65.17.18.44.3.67.15.2-.14.23-.46.07-.64-1.02-1.14-1.94-2.36-2.77-3.65-.13-.21-.47-.29-.67-.15-.23.15-.2.44-.07.64h0Z"/>
            </g>
          </g>
        </g>
        <g id="Layer0_8_MEMBER_0_FILL" data-name="Layer0 8 MEMBER 0 FILL">
          <path class="cls-8" d="M128.13,96.38c-5.11-.04-9.59-.13-13.44-.28-4.46-.18-7.03,1.21-7.69,4.15-3.22-1.2-6.61-1.16-10.18.11-.61-3.02-3.19-4.44-7.75-4.26-3.86.15-8.32.24-13.39.28-5.17.04-9.87.2-14.11.5-.42.03-.79.2-1.11.5-.28.3-.42.65-.44,1.05-.03.82-.07,1.57-.11,2.27l-10.24-3.04c-.41-.13-.82-.09-1.22.11-.4.24-.68.57-.83,1-.12.45-.08.87.11,1.27.24.41.57.69,1,.83l11.07,3.26c-.04,1.04-.06,1.87-.06,2.49,0,5.69,1.22,10.03,3.65,13h0c2.28,3.16,7.07,4.81,14.38,4.92,7.28.12,12.44-2.39,15.49-7.52h.06c2.48-4.18,3.71-8.58,3.71-13.22,3.45-1.4,6.68-1.42,9.68-.06,0,4.66,1.25,9.08,3.76,13.28,3.05,5.14,8.21,7.65,15.49,7.52,7.3-.12,12.09-1.76,14.38-4.92,2.43-2.97,3.65-7.31,3.65-13,0-.62-.02-1.45-.06-2.49l11.01-3.32c.46-.11.79-.37,1-.77.23-.4.27-.82.11-1.27-.11-.42-.37-.75-.77-1-.4-.19-.82-.23-1.27-.11l-10.18,3.04c0-.69-.02-1.44-.06-2.27-.02-.4-.18-.75-.5-1.05-.28-.3-.63-.47-1.05-.5-4.28-.3-8.98-.46-14.11-.5M93.72,102.74c0,.06,0,.09,0,.11.15,4.39-.94,8.54-3.26,12.45h0c-2.52,4.05-6.72,6.02-12.61,5.92-5.93-.1-9.86-1.32-11.78-3.65h-.06c-1.95-2.52-2.93-6.17-2.93-10.95,0-.82.04-2.02.11-3.6v-.11c.03-.82.06-1.76.11-2.82,3.77-.22,7.9-.35,12.39-.39,5.11-.04,9.61-.13,13.5-.28,2.65-.1,4.12.66,4.43,2.27.03.36.07.71.11,1.05M140.64,102.96c.04,1.6.06,2.82.06,3.65,0,4.78-.98,8.43-2.93,10.95-1.95,2.34-5.89,3.55-11.84,3.65-5.89.1-10.09-1.87-12.61-5.92-2.34-3.92-3.41-8.07-3.21-12.45v-.06s0-.03,0-.06v-.06c0-.32.02-.66.06-1,.32-1.61,1.8-2.37,4.43-2.27,3.89.15,8.41.24,13.55.28,4.46.03,8.59.16,12.39.39.05,1.05.08,1.97.11,2.77v.11Z"/>
        </g>
        <g>
          <g id="Layer0_8_MEMBER_1_FILL" data-name="Layer0 8 MEMBER 1 FILL">
            <path class="cls-14" d="M130.79,105.28c-1.33-1.29-2.93-1.94-4.81-1.94s-3.47.65-4.76,1.94c-1.33,1.33-1.99,2.93-1.99,4.81s.66,3.47,1.99,4.76c1.29,1.33,2.88,1.99,4.76,1.99s3.49-.66,4.81-1.99c1.29-1.29,1.94-2.86,1.94-4.7.26-.15.55-.31.89-.5,1.25-.81,1.84-1.84,1.77-3.1-.41.44-.94.81-1.6,1.11-.44.18-.89.31-1.33.39-.33-1.03-.89-1.95-1.66-2.77M125.92,107.61c.7,0,1.29.24,1.77.72.48.48.72,1.07.72,1.77s-.24,1.31-.72,1.83c-.48.48-1.07.72-1.77.72s-1.29-.24-1.77-.72c-.52-.52-.77-1.12-.77-1.83s.26-1.29.77-1.77c.48-.48,1.07-.72,1.77-.72M84.81,110.1c0-1.88-.66-3.49-1.99-4.81-1.29-1.29-2.88-1.94-4.76-1.94s-3.49.65-4.81,1.94c-.79.81-1.34,1.74-1.66,2.77-.44-.08-.88-.21-1.33-.39-.66-.29-1.22-.66-1.66-1.11-.04,1.26.57,2.29,1.83,3.1.31.2.61.34.89.44,0,1.89.65,3.48,1.94,4.76s2.93,1.99,4.81,1.99,3.47-.66,4.76-1.99c1.33-1.29,1.99-2.88,1.99-4.76M80.66,110.1c0,.7-.26,1.31-.77,1.83-.48.48-1.07.72-1.77.72s-1.29-.24-1.77-.72c-.48-.52-.72-1.12-.72-1.83s.24-1.29.72-1.77c.48-.48,1.07-.72,1.77-.72s1.29.24,1.77.72c.52.48.77,1.07.77,1.77Z"/>
            <path class="cls-13" d="M127.69,108.33c-.48-.48-1.07-.72-1.77-.72s-1.29.24-1.77.72c-.52.48-.77,1.07-.77,1.77s.26,1.31.77,1.83c.48.48,1.07.72,1.77.72s1.29-.24,1.77-.72c.48-.52.72-1.12.72-1.83s-.24-1.29-.72-1.77M79.89,111.92c.52-.52.77-1.12.77-1.83s-.26-1.29-.77-1.77c-.48-.48-1.07-.72-1.77-.72s-1.29.24-1.77.72c-.48.48-.72,1.07-.72,1.77s.24,1.31.72,1.83c.48.48,1.07.72,1.77.72s1.29-.24,1.77-.72Z"/>
          </g>
          <g id="Layer0_8_MEMBER_1_1_STROKES" data-name="Layer0 8 MEMBER 1 1 STROKES">
            <g>
              <path class="cls-7" d="M101.15,122.42c-.13.42-.29.82-.61,1.13-.21.2-.44.37-.67.55-.92.72-1.9,1.38-2.71,2.23-.09.1-.21.2-.28.32-.1.18-.05.4-.02.6.06.41.19.8.41,1.15.49.76,1.33,1.26,2.19,1.48,1.13.29,2.31.33,3.47.33.6,0,.14-.79-.27-.79-.95,0-1.92-.03-2.86-.2-.65-.11-1.37-.33-1.78-.89-.21-.29-.27-.61-.32-.96-.02-.16-.03-.13.12-.29.18-.2.37-.38.57-.56.75-.66,1.56-1.23,2.34-1.85.2-.16.42-.32.6-.51.34-.34.52-.8.66-1.25.12-.39-.72-.92-.86-.48h0Z"/>
              <path class="cls-7" d="M96.71,138.66c.07,1.08.18,2.33.73,3.29.47.82,1.28,1.38,2.17,1.63,1.05.3,2.27.3,3.35.14.91-.14,1.81-.49,2.39-1.23.74-.95.85-2.37.86-3.54,0-.39-.87-.83-.87-.3,0,1.09-.11,2.48-.88,3.34s-1.93,1.01-2.97,1.01-2.23.03-3-.74c-.32-.32-.5-.74-.6-1.16-.17-.7-.26-1.43-.31-2.15-.03-.39-.91-.82-.87-.3h0Z"/>
            </g>
          </g>
        </g>
        <g id="Layer0_8_MEMBER_2_FILL" data-name="Layer0 8 MEMBER 2 FILL">
          <path class="cls-3" d="M48.58,37.84c.11.7.59,1.12,1.44,1.27.81.15,1.42-.07,1.83-.66.18-.33.24-.68.17-1.05-.07-.44-.24-.77-.5-1-.15-.11-.53-.26-1.16-.44l-.28.11c-.48-.04-.9.18-1.27.66l-.22.5c-.07.18-.07.39,0,.61M110.48,20.53c-.11.11-.17.24-.17.39-.04.26-.04.5,0,.72l.11.39c.11.18.31.31.61.39.59.22,1.03.15,1.33-.22l.28-.5.11-.5c0-.33-.15-.61-.44-.83-.3-.22-.57-.35-.83-.39v.11c-.37-.11-.7.04-1,.44M83.98,20.8c-.18.26-.28.55-.28.89l.06.44c0,.26.06.5.17.72.26.55.66.89,1.22,1h.55c.33-.11.61-.37.83-.77.22-.3.35-.55.39-.77.11-.52.02-1-.28-1.44-.33-.48-.77-.74-1.33-.77l.06.11c-.63-.07-1.09.13-1.38.61M79.72,20.41c-.3.18-.5.41-.61.66-.07.18-.13.48-.17.89l-.39,1.27c-.07.7.15,1.27.66,1.72.18.18.39.3.61.33.18.04.46-.02.83-.17l.77-.55c.37-.33.63-.83.77-1.49.11-.77.06-1.42-.17-1.94-.33-.7-.83-1.05-1.49-1.05v.17c-.26-.04-.53.02-.83.17M74.08,20.41c-.92,0-1.72.2-2.38.61-.52.33-.9.87-1.16,1.6-.22.52-.33,1.24-.33,2.16l.06,2.71c0,.3.06.55.17.77.18.33.53.53,1.05.61.85.15,1.7-.11,2.54-.77.55-.48,1.14-1.2,1.77-2.16.3-.37.5-.74.61-1.11.11-.26.17-.85.17-1.77s-.18-1.64-.55-2.05c-.37-.41-1.01-.61-1.94-.61Z"/>
        </g>
      </g>
    </g>
  </g>
</svg>