<?xml version="1.0" encoding="UTF-8"?>
<svg id="Warstwa_2" data-name="Warstwa 2" xmlns="http://www.w3.org/2000/svg" xmlns:xlink="http://www.w3.org/1999/xlink" viewBox="0 0 200 206.31">
  <defs>
    <style>
      .cls-1 {
        fill: #292929;
      }

      .cls-1, .cls-2, .cls-3, .cls-4, .cls-5, .cls-6, .cls-7, .cls-8, .cls-9, .cls-10, .cls-11, .cls-12 {
        stroke-width: 0px;
      }

      .cls-2 {
        fill: #000;
      }

      .cls-3 {
        fill: #cee5dd;
      }

      .cls-4 {
        fill: #f8a798;
      }

      .cls-5 {
        fill: #2e2f2d;
      }

      .cls-6 {
        fill: #363636;
      }

      .cls-7 {
        fill: none;
      }

      .cls-8 {
        fill: #572100;
      }

      .cls-13 {
        clip-path: url(#clippath);
      }

      .cls-9 {
        fill: #fff;
      }

      .cls-10 {
        fill: #313131;
      }

      .cls-11 {
        fill: #3c3d3b;
      }

      .cls-12 {
        fill: #febfb3;
      }
    </style>
    <clipPath id="clippath">
      <path id="Layer0_7_1_STROKES-2" data-name="Layer0 7 1 STROKES" class="cls-7" d="M200,99.97c0,27.66-9.76,51.23-29.27,70.71-19.51,19.55-43.08,29.32-70.71,29.32s-51.21-9.77-70.76-29.32C9.76,151.2,0,127.63,0,99.97S9.76,48.76,29.27,29.21C48.82,9.74,72.4,0,100.03,0s51.19,9.74,70.71,29.21c19.51,19.55,29.27,43.14,29.27,70.76Z"/>
    </clipPath>
  </defs>
  <g id="Warstwa_1-2" data-name="Warstwa 1">
    <g>
      <g id="Layer0_7_1_STROKES" data-name="Layer0 7 1 STROKES">
        <path class="cls-3" d="M200,99.97c0,27.66-9.76,51.23-29.27,70.71-19.51,19.55-43.08,29.32-70.71,29.32s-51.21-9.77-70.76-29.32C9.76,151.2,0,127.63,0,99.97S9.76,48.76,29.27,29.21C48.82,9.74,72.4,0,100.03,0s51.19,9.74,70.71,29.21c19.51,19.55,29.27,43.14,29.27,70.76Z"/>
      </g>
      <g class="cls-13">
        <g>
          <g id="Layer0_6_MEMBER_0_FILL" data-name="Layer0 6 MEMBER 0 FILL">
            <path class="cls-11" d="M36.18,206.03l10.61-25.06.2.07c1.78.64,3.54,1.94,5.24,3.88.63.72,1.19,1.42,1.67,2.08.14-1.32.45-4.22.45-4.22l.08-.06c1.12-.76,2.35-1.66,3.64-2.65,2.21-1.68,4.88-2.54,7.94-2.54,1.98,0,4.16.64,6.47,1.91,1.36.73,3.54,2.12,6.49,4.1,6.31,3.9,13.25,5.88,20.62,5.88,6.16,0,12.39-2.07,18.52-6.16,3.91-2.61,6.07-4.02,6.6-4.32,2.35-1.3,4.6-1.97,6.69-1.97,4.12,0,7.41.72,9.79,2.13.95.57,2.02,1.42,3.19,2.52l.06.06.84,7.75c.68-2.04,1.32-3.8,1.9-5.24.69-1.69,2.23-2.85,4.58-3.45l.18-.05,10.83,25.32H36.18Z"/>
            <path class="cls-11" d="M147.39,184.29c-.67,1.67-1.41,3.73-2.21,6.2.69,6.24,1.26,11.35,1.72,15.33h15.55l-10.62-24.84c-2.28.58-3.76,1.69-4.43,3.32M124.81,179.14c-.52.3-2.71,1.73-6.58,4.32-6.2,4.13-12.41,6.2-18.64,6.2-7.45,0-14.37-1.97-20.75-5.92-2.95-1.99-5.11-3.36-6.47-4.09-2.29-1.25-4.41-1.88-6.36-1.88-3.02,0-5.62.83-7.8,2.49-1.3,1-2.52,1.89-3.65,2.66-.18,1.63-.34,3.2-.5,4.7-.83,7.55-1.5,13.61-1.99,18.2h94.83c-.45-3.98-1.02-9.09-1.72-15.33-.29-2.67-.6-5.56-.94-8.69-1.16-1.1-2.21-1.93-3.15-2.49-2.36-1.4-5.59-2.1-9.68-2.1-2.07,0-4.26.65-6.58,1.94M52.06,185.06c-1.68-1.92-3.39-3.19-5.15-3.82l-10.4,24.56h15.55c.49-4.59,1.16-10.66,1.99-18.2-.55-.8-1.21-1.65-1.99-2.54Z"/>
            <path class="cls-5" d="M115.57,162.38c.66.26,1.53.81,2.6,1.66,1.29,1.03,1.92,3.1,1.88,6.2-.04,3.06-2.25,6.34-6.64,9.85-3.21,2.54-7.89,3.82-14.05,3.82s-10.51-1.27-13.72-3.82c-4.43-3.5-6.64-6.79-6.64-9.85-.04-3.1.59-5.16,1.88-6.2,1.14-.89,2.07-1.46,2.77-1.72-6.31,1.18-12.17,2.32-17.59,3.43-5.46,1.07-10.18,2.36-14.16,3.87l-4.98,11.62c1.75.63,3.47,1.9,5.15,3.82.78.9,1.45,1.75,1.99,2.54.16-1.5.32-3.07.5-4.7.12-1.16.25-2.36.39-3.6-.13,1.23-.26,2.43-.39,3.6,1.13-.77,2.35-1.65,3.65-2.66,2.18-1.66,4.78-2.49,7.8-2.49,1.95,0,4.08.63,6.36,1.88,1.36.74,3.52,2.1,6.47,4.09,6.38,3.95,13.3,5.92,20.75,5.92,6.23,0,12.45-2.07,18.64-6.2,3.87-2.58,6.07-4.02,6.58-4.32,2.32-1.29,4.52-1.94,6.58-1.94,4.09,0,7.32.7,9.68,2.1.94.56,1.99,1.39,3.15,2.49-.09-.83-.18-1.68-.28-2.54.09.87.19,1.72.28,2.54.34,3.12.65,6.02.94,8.69.81-2.46,1.54-4.53,2.21-6.2.67-1.63,2.14-2.74,4.43-3.32l-4.81-11.4c-3.98-1.51-8.7-2.8-14.16-3.87-5.42-1.11-11.29-2.25-17.59-3.43.11.04.22.07.33.11Z"/>
            <path class="cls-4" d="M113.53,140.47c-9.33,1.55-18.68,1.59-28.05.11-.41,3.43-.85,9.44-1.33,18.04-.07,1.25-.15,2.45-.22,3.6-.15,1.66-.24,3.15-.28,4.48.04-1.33.13-2.82.28-4.48-.11.04-.2.07-.28.11-.7.26-1.62.83-2.77,1.72-1.29,1.03-1.92,3.1-1.88,6.2,0,3.06,2.21,6.34,6.64,9.85,3.21,2.54,7.78,3.82,13.72,3.82s10.84-1.27,14.05-3.82c4.39-3.5,6.6-6.79,6.64-9.85.04-3.1-.59-5.16-1.88-6.2-1.07-.85-1.94-1.4-2.6-1.66-.11-.04-.22-.07-.33-.11.11,1.48.22,2.95.33,4.43-.11-1.48-.22-2.95-.33-4.43-.22-2.47-.41-4.92-.55-7.36-.55-6.57-.94-11.38-1.16-14.44Z"/>
          </g>
          <g id="Layer0_6_MEMBER_0_1_STROKES" data-name="Layer0 6 MEMBER 0 1 STROKES">
            <g>
              <path class="cls-8" d="M83.97,162.7l.18-.08c.14-.05.22-.12.23-.28.46-7.21.71-14.45,1.55-21.63l-.33.29c9.33,1.46,18.84,1.42,28.16-.12l-.67-.54c.21,2.95.45,5.89.7,8.84.35,4.32.64,8.64,1.02,12.96.02.23.21.49.45.53,4.39.82,8.78,1.67,13.17,2.54s8.37,1.63,12.47,2.78c2.07.58,4.11,1.23,6.11,1.99l-.39-.32c1.74,4.09,3.47,8.18,5.21,12.26,2.56,5.99,5.11,11.99,7.67,17.98.85,2,1.71,4,2.56,6l.27-.5H36.4l.55.65c1.1-2.6,2.21-5.19,3.31-7.79,1.84-4.32,3.67-8.64,5.51-12.96.83-1.95,1.66-3.9,2.49-5.85l2.76-6.49,1.05-2.48c.06-.14.12-.45.24-.56.01,0,0-.03.02-.04-.09.09.3-.02.32-.03.48-.18.97-.35,1.46-.52,4.15-1.42,8.41-2.39,12.7-3.26s8.95-1.79,13.43-2.64c1.21-.23,2.42-.46,3.64-.69l-.54-.79c-1.08.42-2.18,1.15-3.03,1.94-.72.67-1.14,1.62-1.38,2.56-.57,2.2-.58,4.66.32,6.77,1.03,2.4,2.93,4.38,4.87,6.07s3.98,2.96,6.4,3.77c2.66.88,5.48,1.21,8.27,1.26s5.78-.15,8.57-.86c2.23-.57,4.41-1.48,6.25-2.9,2.2-1.7,4.36-3.74,5.73-6.2,1.27-2.29,1.43-4.87.86-7.4-.25-1.09-.7-2.16-1.52-2.94-.95-.91-2.19-1.72-3.44-2.14-.19-.06-.47.03-.45.27.11,1.48.22,2.95.33,4.43.03.44.94.82.9.26-.11-1.48-.22-2.95-.33-4.43l-.45.27c1.04.35,2.11,1.05,2.89,1.81.68.66,1.01,1.6,1.21,2.51.47,2.15.39,4.4-.6,6.39-1.15,2.32-3.1,4.22-5.07,5.86-1.68,1.39-3.54,2.42-5.63,3.07-2.4.75-4.93,1.07-7.44,1.15-2.72.09-5.47-.05-8.13-.66-2.16-.5-4.29-1.31-6.1-2.61-2.09-1.5-4.12-3.39-5.51-5.57s-1.65-4.38-1.25-6.85c.17-1.06.49-2.16,1.21-2.98.78-.89,2.04-1.66,3.15-2.09.47-.18-.2-.85-.54-.79-4.65.87-9.3,1.76-13.94,2.69s-8.88,1.76-13.23,3.06c-.97.29-1.93.6-2.88.93-.45.16-.91.32-1.36.49-.23.08-.43.13-.57.33-.26.38-.4.95-.59,1.38l-2.73,6.42c-.89,2.09-1.78,4.18-2.67,6.27-1.78,4.18-3.55,8.36-5.33,12.53l-2.6,6.12c-.46,1.09-.98,2.18-1.4,3.29-.02.05-.05.11-.07.16-.13.3.28.65.55.65h125.92c.31,0,.38-.25.27-.5-1.12-2.63-2.24-5.26-3.36-7.89l-5.58-13.07c-.85-1.99-1.7-3.98-2.54-5.97l-2.8-6.59-.98-2.3c-.06-.13-.1-.29-.17-.41-.16-.26-.39-.32-.66-.42-.45-.17-.9-.33-1.36-.49-4.2-1.46-8.51-2.46-12.86-3.35s-9.09-1.81-13.64-2.68c-1.21-.23-2.42-.46-3.64-.69l.45.53c-.38-4.32-.67-8.64-1.02-12.96-.24-2.94-.48-5.89-.7-8.84-.02-.32-.35-.6-.67-.54-9.25,1.52-18.68,1.55-27.94.1-.19-.03-.31.12-.33.29-.84,7.18-1.09,14.42-1.55,21.63l.23-.28c-.13.05-.25.09-.37.15-.46.2.21.94.63.75h0Z"/>
              <path class="cls-8" d="M83.48,162.08c-.13,1.49-.23,2.98-.28,4.48-.01.45.88.83.9.26.04-1.5.14-2.99.28-4.48.04-.45-.85-.83-.9-.26h0Z"/>
              <path class="cls-8" d="M143.51,179.12c.09.86.19,1.71.28,2.57.03.24.21.47.45.53.18.05.47-.01.45-.27-.09-.86-.18-1.72-.28-2.57-.03-.24-.21-.47-.45-.53-.18-.05-.47.01-.45.27h0Z"/>
              <path class="cls-8" d="M54.5,187.74c.29-2.77.58-5.53.89-8.3.05-.45-.84-.83-.9-.26-.3,2.77-.6,5.53-.89,8.3-.05.45.84.83.9.26h0Z"/>
              <path class="cls-8" d="M53.6,187.48c-.67,6.07-1.34,12.13-1.99,18.2-.05.45.84.83.9.26.65-6.07,1.32-12.14,1.99-18.2.05-.45-.84-.83-.9-.26h0Z"/>
              <path class="cls-8" d="M147.34,205.94c-.91-7.99-1.78-15.99-2.66-23.98-.05-.44-.96-.81-.9-.26.87,8,1.75,15.99,2.66,23.98.05.44.96.81.9.26h0Z"/>
            </g>
          </g>
        </g>
      </g>
      <g>
        <g>
          <g id="Layer0_6_MEMBER_1_FILL" data-name="Layer0 6 MEMBER 1 FILL">
            <path class="cls-1" d="M147.36,43.15c-1.26,2.61-3.16,4.57-5.7,5.86-2.54,1.33-5.46,2.53-8.74,3.6-3.28,1.11-6.84,2.1-10.68,2.99-3.84.93-7.27,1.73-10.29,2.38-3.02.69-7.5,1.08-13.44,1.16-5.94.08-15.14-1.49-27.61-4.7-5.83-1.51-9.9-3.14-12.23-4.87-2.77-2.09-4.52-4.95-5.26-8.58-1.06,2.45-2.13,5.22-3.21,8.3-3.54,10.11-5.5,22.96-5.86,38.56,2.21.04,3.95.18,5.2.44.37-5.79.66-10.6.89-14.44,2.36-5.05,3.74-8.41,4.15-10.07.92-3.58,1.64-6.1,2.16-7.58,3.32.37,9.17,1.29,17.54,2.77,14.02,2.47,23.79,3.71,29.32,3.71.7,0,2.9-.35,6.58-1.05,4.72-.89,14.44-3.06,29.16-6.53,1.18-.26,2.42-.55,3.71-.89.77,2.8,1.64,5.99,2.6,9.57.37,1.55,1.64,4.63,3.82,9.24.18,4.02.48,9.11.89,15.27,1.25-.26,2.99-.41,5.2-.44-.3-12.76-1.66-23.68-4.09-32.75-.52-2.03-1.11-3.96-1.77-5.81-.77-2.2-1.54-4.25-2.32-6.14Z"/>
            <path class="cls-10" d="M98.08,59.37c-5.94,0-15.1-1.59-27.24-4.71-5.83-1.51-9.97-3.16-12.3-4.91-2.8-2.11-4.59-5.04-5.34-8.71v-.07s.01-.06.01-.06c2.46-5.6,4.93-9.59,7.35-11.86,3.43-3.21,8.96-6.76,16.43-10.55,6.52-3.39,14.24-5.34,22.94-5.78h.9c.44-.02.88-.03,1.33-.03s.89,0,1.34.03c7.74.18,14.65,2.04,20.52,5.51,6.73,3.97,11.88,7.61,15.31,10.82,2.72,2.55,5.5,7.27,8.24,14.02l.04.09-.04.09c-1.27,2.65-3.22,4.65-5.8,5.97-2.54,1.33-5.49,2.54-8.77,3.61-3.27,1.1-6.87,2.11-10.7,2.99-3.82.93-7.29,1.73-10.29,2.38-3.02.69-7.56,1.08-13.49,1.17h-.43ZM113.08,17.57c-.45,0-.86.03-1.21.08-.94.21-1.86.66-2.72,1.34-.84.74-1.46,1.6-1.81,2.56-.64,1.53-.64,3.13,0,4.77.67,1.59,1.81,2.74,3.37,3.42l2.08.66c.48.15,1.18.39,2.11.72.46.11.95.17,1.44.17.67,0,1.37-.11,2.07-.34,1.16-.42,2.14-1.12,2.88-2.08.71-.92,1.14-2.02,1.28-3.26.14-1.24-.04-2.41-.53-3.48-.18-.39-.47-.86-.86-1.4-1.39-1.71-3.61-2.74-6.6-3.06-.54-.05-1.05-.08-1.5-.08ZM102.2,16.2c-.55,0-1.06.16-1.52.47-.68.39-1.32,1.13-1.92,2.19l-.43.93c-.1.19-.15.42-.15.68-.07.92.08,1.65.46,2.2.31.56.78.95,1.39,1.19.44.21.88.31,1.32.31.17,0,.33-.01.5-.04l.87-.22c.9-.44,1.65-1.24,2.18-2.37l.54-1.69c.1-.55.03-1.14-.22-1.73-.24-.58-.62-1.05-1.13-1.39-.48-.34-1.05-.52-1.7-.52h-.18ZM94.27,17.32c-.41,0-.79.08-1.15.25-.54.27-.98.67-1.29,1.19-.35.52-.52,1.08-.52,1.66,0,.83.3,1.54.93,2.17.59.63,1.32.93,2.22.93.74-.07,1.38-.29,1.86-.67.51-.41.88-.97,1.09-1.66.17-.58.15-1.14-.05-1.68-.21-.63-.54-1.11-.98-1.45-.45-.38-.97-.61-1.55-.67-.2-.03-.38-.05-.56-.05Z"/>
            <path class="cls-10" d="M141.66,49.02c2.54-1.3,4.44-3.25,5.7-5.86-2.74-6.75-5.47-11.4-8.19-13.94-3.43-3.21-8.52-6.8-15.27-10.79-5.86-3.47-12.67-5.29-20.41-5.48-.89-.04-1.77-.04-2.66,0h-.89c-8.7.44-16.32,2.36-22.85,5.75-7.49,3.8-12.95,7.3-16.38,10.51-2.41,2.26-4.85,6.19-7.3,11.78.74,3.63,2.49,6.49,5.26,8.58,2.32,1.73,6.4,3.36,12.23,4.87,12.47,3.21,21.67,4.78,27.61,4.7,5.94-.08,10.42-.47,13.44-1.16,3.02-.65,6.45-1.45,10.29-2.38,3.83-.89,7.39-1.88,10.68-2.99,3.29-1.07,6.2-2.27,8.74-3.6M121.36,20.58c.41.55.7,1.03.89,1.44.52,1.11.7,2.31.55,3.6-.15,1.29-.59,2.42-1.33,3.37-.77,1-1.77,1.72-2.99,2.16-1.25.41-2.47.46-3.65.17-.92-.33-1.62-.57-2.1-.72l-2.1-.66c-1.62-.7-2.78-1.88-3.49-3.54-.66-1.7-.66-3.34,0-4.92.37-1,1-1.88,1.88-2.66.89-.7,1.83-1.16,2.82-1.38.74-.11,1.66-.11,2.77,0,3.06.33,5.31,1.38,6.75,3.15M104.2,16.54c.55.37.96.87,1.22,1.49.26.63.33,1.25.22,1.88l-.55,1.72c-.55,1.18-1.33,2.01-2.32,2.49l-.89.22c-.66.11-1.31.02-1.94-.28-.66-.26-1.16-.68-1.49-1.27-.41-.59-.57-1.36-.5-2.32,0-.3.06-.55.17-.77l.44-.94c.63-1.11,1.29-1.86,1.99-2.27.55-.37,1.16-.53,1.83-.5.7,0,1.31.18,1.83.55M97.57,19.42c.22.59.24,1.2.06,1.83-.22.74-.61,1.33-1.16,1.77-.52.41-1.18.65-1.99.72-.96,0-1.75-.33-2.38-1-.66-.66-1-1.44-1-2.32,0-.63.18-1.22.55-1.77.33-.55.79-.98,1.38-1.27.55-.26,1.16-.33,1.83-.22.63.07,1.18.31,1.66.72.48.37.83.89,1.05,1.55Z"/>
            <path class="cls-6" d="M97.62,21.24c.18-.63.17-1.24-.06-1.83-.22-.66-.57-1.18-1.05-1.55-.48-.41-1.03-.65-1.66-.72-.66-.11-1.27-.04-1.83.22-.59.3-1.05.72-1.38,1.27-.37.55-.55,1.14-.55,1.77,0,.89.33,1.66,1,2.32.63.66,1.42,1,2.38,1,.81-.07,1.48-.31,1.99-.72.55-.44.94-1.03,1.16-1.77M105.42,18.04c-.26-.63-.66-1.12-1.22-1.49-.52-.37-1.12-.55-1.83-.55-.66-.04-1.27.13-1.83.5-.7.41-1.36,1.16-1.99,2.27l-.44.94c-.11.22-.17.48-.17.77-.07.96.09,1.73.5,2.32.33.59.83,1.01,1.49,1.27.63.3,1.27.39,1.94.28l.89-.22c1-.48,1.77-1.31,2.32-2.49l.55-1.72c.11-.63.04-1.25-.22-1.88M122.24,22.02c-.18-.41-.48-.89-.89-1.44-1.44-1.77-3.69-2.82-6.75-3.15-1.11-.11-2.03-.11-2.77,0-1,.22-1.94.68-2.82,1.38-.89.77-1.51,1.66-1.88,2.66-.66,1.59-.66,3.23,0,4.92.7,1.66,1.86,2.84,3.49,3.54l2.1.66c.48.15,1.18.39,2.1.72,1.18.3,2.4.24,3.65-.17,1.22-.44,2.21-1.16,2.99-2.16.74-.96,1.18-2.08,1.33-3.37.15-1.29-.04-2.49-.55-3.6Z"/>
            <path class="cls-12" d="M143.04,54.22c-1.29.33-2.53.63-3.71.89-14.72,3.47-24.44,5.64-29.16,6.53-3.69.7-5.88,1.05-6.58,1.05-5.53,0-15.31-1.24-29.32-3.71-8.37-1.48-14.22-2.4-17.54-2.77-.52,1.48-1.24,4-2.16,7.58-.41,1.66-1.79,5.02-4.15,10.07-.22,3.84-.52,8.65-.89,14.44-.04,1.11-.09,2.27-.17,3.49-.07,1.25-.15,2.47-.22,3.65-.44,7.27-.77,13.06-1,17.37-.26,4.54-.39,7.45-.39,8.74,0,5.2.81,9,2.43,11.4,1.22,1.88,3.67,4.26,7.36,7.14.07.11.18.22.33.33,1.29.96,2.88,2.03,4.76,3.21,3.43,2.18,7.86,4.67,13.28,7.47,8.63,4.39,15.49,7.06,20.58,8.02,2.77.59,5.05.59,6.86,0,5.09-.96,11.95-3.63,20.58-8.02,5.42-2.8,9.85-5.29,13.28-7.47,1.7-1.07,3.15-2.07,4.37-2.99.26-.18.5-.37.72-.55,3.69-2.88,6.14-5.26,7.36-7.14,1.62-2.4,2.43-6.2,2.43-11.4,0-1.29-.11-4.2-.33-8.74-.26-4.32-.61-10.11-1.05-17.37-.07-1.18-.15-2.4-.22-3.65-.07-1.18-.13-2.34-.17-3.49-.41-6.16-.7-11.25-.89-15.27-2.18-4.61-3.45-7.69-3.82-9.24-.96-3.58-1.83-6.77-2.6-9.57M77.32,99.2c.85.81,1.42,1.75,1.72,2.82.3,1,.35,2.03.17,3.1-.22,1.03-.65,1.97-1.27,2.82-1.14,1.55-2.71,2.42-4.7,2.6-1.99.18-3.71-.39-5.15-1.72-1.4-1.29-2.14-2.93-2.21-4.92,0-1.59.46-2.91,1.38-3.98l.94-1c.85-.7,1.84-1.18,2.99-1.44,1.14-.22,2.23-.2,3.26.06,1.11.3,2.07.85,2.88,1.66M133.25,106.39c-.3.74-.79,1.46-1.49,2.16-.92.85-2.01,1.38-3.26,1.6-1.29.22-2.51.09-3.65-.39-1.14-.44-2.1-1.2-2.88-2.27-.77-1.03-1.2-2.18-1.27-3.43-.04-1.22.24-2.4.83-3.54.63-1.14,1.48-2.01,2.54-2.6,1.33-.7,2.69-.96,4.09-.77,2.18.3,3.8,1.42,4.87,3.37.52.89.79,1.86.83,2.93.04,1.03-.17,2.01-.61,2.93Z"/>
            <path class="cls-4" d="M131.76,108.55c.7-.7,1.2-1.42,1.49-2.16.44-.92.65-1.9.61-2.93-.04-1.07-.31-2.05-.83-2.93-1.07-1.95-2.69-3.08-4.87-3.37-1.4-.18-2.77.07-4.09.77-1.07.59-1.92,1.46-2.54,2.6-.59,1.14-.87,2.32-.83,3.54.07,1.25.5,2.4,1.27,3.43.77,1.07,1.73,1.83,2.88,2.27,1.14.48,2.36.61,3.65.39,1.25-.22,2.34-.76,3.26-1.6M79.03,102.02c-.3-1.07-.87-2.01-1.72-2.82-.81-.81-1.77-1.36-2.88-1.66-1.03-.26-2.12-.28-3.26-.06-1.14.26-2.14.74-2.99,1.44l-.94,1c-.92,1.07-1.38,2.4-1.38,3.98.07,1.99.81,3.63,2.21,4.92,1.44,1.33,3.15,1.9,5.15,1.72,1.99-.18,3.56-1.05,4.7-2.6.63-.85,1.05-1.79,1.27-2.82.18-1.07.13-2.1-.17-3.1M150.35,88.3c.04,1.14.09,2.31.17,3.49.07,1.25.15,2.47.22,3.65.11-.07.22-.13.33-.17,1-.44,1.97-.81,2.93-1.11,1.18-.33,2.32-.53,3.43-.61.33-.04.7-.06,1.11-.06,2.4,0,3.73.7,3.98,2.1.18.81.15,2.29-.11,4.43.26-2.14.3-3.61.11-4.43-.26-1.4-1.59-2.1-3.98-2.1-.41,0-.77.02-1.11.06-.66,1.59-1.24,2.91-1.72,3.98-.3.59-.55,1.12-.77,1.6.22-.48.48-1.01.77-1.6.48-1.07,1.05-2.4,1.72-3.98-1.11.07-2.25.28-3.43.61-.96.3-1.94.66-2.93,1.11-.11.04-.22.09-.33.17.44,7.27.79,13.06,1.05,17.37,2.32-.37,4.63-1.01,6.92-1.94,4.76-2.03,7.6-4.92,8.52-8.69.22-.85.33-1.77.33-2.77,0-3.69-.7-6.42-2.1-8.19l-.33-.33c-1.81-2.03-4.74-3.04-8.8-3.04h-.77c-2.21.04-3.95.18-5.2.44M34.83,90.9l-.33.33c-1.36,1.77-2.05,4.5-2.05,8.19,0,1,.09,1.92.28,2.77.92,3.76,3.76,6.66,8.52,8.69,2.29.92,4.59,1.57,6.92,1.94.22-4.32.55-10.11,1-17.37-.11-.07-.2-.13-.28-.17-1-.44-1.97-.81-2.93-1.11-1.18-.33-2.32-.53-3.43-.61.66,1.59,1.24,2.91,1.72,3.98.3.59.57,1.12.83,1.6-.26-.48-.53-1.01-.83-1.6-.48-1.07-1.05-2.4-1.72-3.98-.33-.04-.68-.06-1.05-.06-2.4,0-3.74.7-4.04,2.1-.18.81-.15,2.29.11,4.43-.26-2.14-.3-3.61-.11-4.43.3-1.4,1.64-2.1,4.04-2.1.37,0,.72.02,1.05.06,1.11.07,2.25.28,3.43.61.96.3,1.94.66,2.93,1.11.07.04.17.09.28.17.07-1.18.15-2.4.22-3.65.07-1.22.13-2.38.17-3.49-1.25-.26-2.99-.41-5.2-.44h-.72c-4.06,0-6.99,1.01-8.8,3.04Z"/>
          </g>
          <g id="Layer0_6_MEMBER_1_1_STROKES" data-name="Layer0 6 MEMBER 1 1 STROKES">
            <g>
              <path class="cls-8" d="M147.8,43.23c-1.9-4.65-4.07-9.57-7.5-13.32-1.43-1.57-3.14-2.91-4.82-4.2-2.13-1.63-4.35-3.15-6.6-4.59-2.5-1.61-5.04-3.23-7.72-4.51-2.46-1.18-5.04-2.09-7.69-2.74-5.82-1.42-11.9-1.63-17.83-.98-5.56.61-11.07,1.92-16.2,4.18-2.69,1.18-5.29,2.6-7.84,4.04-2.36,1.33-4.68,2.74-6.89,4.3-1.66,1.17-3.32,2.43-4.75,3.88-1.62,1.64-2.9,3.6-4.03,5.59-2.84,5-4.96,10.48-6.72,15.95-3.33,10.34-4.61,21.29-5.11,32.1-.07,1.59-.13,3.19-.17,4.79,0,.25.34.54.57.54,1.74.03,3.49.1,5.2.44.18.04.29-.08.3-.25.17-2.69.34-5.37.5-8.06.07-1.14.14-2.28.21-3.42.03-.51.06-1.02.09-1.53.03-.57,0-1.15.23-1.69,1.55-3.61,3.29-7.07,4.29-10.89.56-2.15,1.13-4.32,1.86-6.43l-.29.16c5.75.64,11.47,1.7,17.17,2.7,6.81,1.2,13.65,2.34,20.52,3.12,2.3.26,4.62.49,6.93.59.83.04,1.68.09,2.52.05.98-.05,1.96-.25,2.92-.41,4.43-.76,8.82-1.71,13.21-2.68,6.75-1.5,13.47-3.12,20.21-4.65.98-.22,1.95-.46,2.92-.71l-.65-.45c.68,2.45,1.34,4.9,2.01,7.36.46,1.69.89,3.34,1.54,4.97.38.96.79,1.91,1.21,2.85.51,1.14,1.17,2.28,1.59,3.46.15.43.1.95.12,1.4.03.53.05,1.05.08,1.58.06,1.14.12,2.29.19,3.43.17,2.98.36,5.96.55,8.94.02.28.38.6.67.54,1.71-.34,3.46-.41,5.2-.44.13,0,.2-.13.2-.25-.28-11.64-1.4-23.35-4.58-34.58-.98-3.46-2.25-6.86-3.6-10.19-.15-.36-1.05-.65-.83-.1,2.25,5.55,4.07,11.21,5.29,17.08,1.15,5.5,1.86,11.09,2.31,16.69.29,3.6.45,7.2.54,10.81l.2-.25c-1.74.03-3.49.1-5.2.44l.67.54c-.32-4.9-.63-9.8-.86-14.7-.06-1.18-.81-2.3-1.3-3.37s-.91-2.04-1.34-3.07c-.62-1.49-1.1-2.98-1.52-4.53-.76-2.84-1.53-5.68-2.32-8.51-.06-.22-.4-.51-.65-.45-6.98,1.79-14.03,3.32-21.06,4.9-4.23.95-8.47,1.89-12.74,2.69-2.12.4-4.29.91-6.46.87s-4.28-.22-6.41-.44c-6.52-.66-13.01-1.71-19.47-2.82-6.24-1.07-12.47-2.25-18.75-3.05-.44-.06-.88-.11-1.32-.16-.13-.01-.25.03-.29.16-1.18,3.4-1.78,6.99-3.1,10.35-.82,2.1-1.75,4.15-2.7,6.2-.25.55-.51,1.01-.54,1.61-.03.55-.06,1.1-.1,1.64-.07,1.1-.13,2.21-.2,3.31-.18,3.02-.37,6.05-.57,9.07l.3-.25c-1.71-.34-3.46-.41-5.2-.44l.57.54c.27-11.08,1.26-22.28,4.17-33.02,1.4-5.15,3.26-10.23,5.49-15.08,1.98-4.3,4.31-8.46,7.98-11.54,3.95-3.31,8.5-5.91,13.05-8.29,2.41-1.26,4.83-2.46,7.38-3.4s5.33-1.7,8.08-2.23c5.85-1.14,11.87-1.48,17.79-.73,5.51.7,10.75,2.44,15.52,5.28s9.16,5.64,13.23,9.12c1.48,1.27,2.81,2.62,3.93,4.21,1.44,2.04,2.62,4.26,3.69,6.51.67,1.41,1.29,2.84,1.88,4.29.08.21.31.44.55.44.2,0,.37-.12.28-.34Z"/>
              <path class="cls-8" d="M149.91,88.15c.08,2.38.24,4.76.39,7.14.02.28.47.69.76.52,1.42-.83,3.21-1.33,4.81-1.63,1.43-.26,3-.43,4.44-.14,1,.2,1.68.67,1.83,1.72.19,1.32,0,2.73-.16,4.04-.05.4.8.91.85.48.17-1.46.41-3.05.12-4.52-.23-1.12-1.02-1.9-2.08-2.28-1.48-.54-3.2-.41-4.73-.2-.98.13-1.94.35-2.88.66s-1.99.64-2.85,1.14l.76.52c-.15-2.38-.31-4.76-.39-7.14-.01-.39-.89-.82-.87-.3h0Z"/>
              <path class="cls-8" d="M155.78,88.25c2.58,0,5.32.16,7.58,1.57,2.09,1.31,3.08,3.45,3.48,5.81.46,2.68.47,5.55-.64,8.08-.96,2.18-2.71,3.9-4.69,5.17-2.98,1.91-6.49,2.97-9.95,3.54-.13.02-.2.11-.2.25.23,4.67.69,9.49-.04,14.14-.33,2.09-.9,4.17-2.09,5.94s-2.85,3.32-4.49,4.74c-4.14,3.59-8.76,6.48-13.52,9.17-5.27,2.98-10.67,5.78-16.24,8.16-4.13,1.77-8.39,3.29-12.81,4.16-2.47.48-5.03-.02-7.44-.61-2.13-.52-4.21-1.21-6.26-1.98-5.55-2.09-10.89-4.73-16.11-7.53-4.75-2.55-9.5-5.21-13.87-8.38-1.13-.82-2.2-1.78-3.26-2.69-.96-.82-1.9-1.67-2.77-2.59-1.36-1.42-2.47-2.96-3.11-4.84-1.44-4.21-1.19-8.81-.97-13.19.07-1.4.15-2.8.23-4.2.02-.27-.35-.51-.57-.54-5.22-.85-11.58-2.98-14.12-8.07-1.24-2.48-1.2-5.44-.79-8.13.36-2.35,1.21-4.53,3.16-5.98,2.38-1.77,5.44-1.99,8.3-1.99.25,0,.2-.3.13-.45-.11-.22-.37-.34-.6-.34-2.79,0-5.75.22-8.14,1.81-2.11,1.4-3.17,3.53-3.62,5.97-.52,2.82-.62,5.99.56,8.66,1.02,2.3,2.79,4.12,4.87,5.5,3.12,2.07,6.85,3.21,10.51,3.81l-.57-.54c-.27,4.77-.76,9.68.02,14.43.34,2.07.93,4.14,2.09,5.91s2.83,3.37,4.47,4.81c2.14,1.88,4.36,3.61,6.74,5.16,2.23,1.45,4.51,2.82,6.82,4.14,5.37,3.05,10.86,5.9,16.53,8.34,4.32,1.86,8.83,3.56,13.5,4.29,1.34.21,2.71.29,4.06.12,1.04-.13,2.08-.43,3.1-.67,2.13-.5,4.22-1.18,6.28-1.94,5.65-2.09,11.07-4.77,16.37-7.6,4.88-2.61,9.76-5.33,14.21-8.65,2.22-1.66,4.41-3.46,6.31-5.48,1.34-1.42,2.44-2.98,3.09-4.83,1.51-4.25,1.27-8.91,1.09-13.34-.06-1.47-.13-2.93-.2-4.39l-.2.25c5.58-.91,12.26-3.24,14.89-8.72,1.3-2.7,1.3-5.87.77-8.76-.45-2.45-1.49-4.65-3.55-6.14-2.56-1.86-5.75-2.12-8.81-2.12-.25,0-.2.3-.13.45.11.22.37.34.6.34h0Z"/>
              <path class="cls-8" d="M157,93.32c-.41.98-.82,1.95-1.24,2.92-.39.9-.83,1.78-1.24,2.67-.16.36.65.91.85.48.41-.89.85-1.77,1.24-2.67.42-.97.84-1.94,1.24-2.92.15-.36-.67-.91-.85-.48h0Z"/>
              <path class="cls-8" d="M150.3,95.29c.35,5.79.7,11.58,1.05,17.37.02.39.9.82.87.3-.35-5.79-.7-11.58-1.05-17.37-.02-.39-.9-.82-.87-.3h0Z"/>
              <path class="cls-8" d="M45.43,99.09c-.95-1.77-1.72-3.63-2.5-5.49-.09-.22-.3-.42-.55-.44-1.59-.16-4.09-.18-5.06,1.4-.37.6-.43,1.3-.44,1.98-.03,1.11.09,2.23.22,3.33.03.24.24.45.46.52.17.05.44.02.41-.22-.12-1.01-.23-2.04-.23-3.06,0-.62.01-1.31.32-1.87.82-1.49,3.16-1.45,4.59-1.3l-.55-.44c.81,1.93,1.61,3.85,2.59,5.69.21.39,1.04.48.73-.1h0Z"/>
              <path class="cls-8" d="M49.11,88.15c-.16,4.58-.51,9.16-.78,13.73-.21,3.59-.42,7.18-.6,10.78-.02.39.84.83.87.3.18-3.59.39-7.19.6-10.78.27-4.58.63-9.15.78-13.73.01-.39-.85-.83-.87-.3h0Z"/>
              <path class="cls-8" d="M49.24,95.12c-.48-.31-1.05-.51-1.58-.71s-1.12-.42-1.69-.59c-1.17-.35-2.38-.57-3.6-.65-.6-.04-.13.76.27.79,1.14.08,2.28.27,3.38.6.53.16,1.05.35,1.57.55s1.02.37,1.47.66c.15.1.44.13.51-.08.08-.23-.18-.45-.34-.56h0Z"/>
            </g>
          </g>
        </g>
        <g>
          <g id="Layer0_6_MEMBER_1_MEMBER_0_FILL" data-name="Layer0 6 MEMBER 1 MEMBER 0 FILL">
            <path class="cls-1" d="M44.73,113.2c.66-.66,1-1.46,1-2.38s-.33-1.72-1-2.38-1.46-1-2.38-1-1.72.33-2.38,1-1,1.46-1,2.38.33,1.72,1,2.38,1.46,1,2.38,1,1.72-.33,2.38-1M160.08,113.2c.66-.66,1-1.46,1-2.38s-.33-1.72-1-2.38-1.46-1-2.38-1-1.72.33-2.38,1-1,1.46-1,2.38.33,1.72,1,2.38,1.46,1,2.38,1,1.72-.33,2.38-1M92.2,144.4c-.63.37-1.05,1.14-1.27,2.32-.11.66-.48,4.24-1.11,10.73.11.96,1.38,1.77,3.82,2.43s4.13,1.01,5.09,1.05c.96.04,2.77-.28,5.42-.94,2.62-.7,3.93-1.38,3.93-2.05-.44-6.79-.72-10.53-.83-11.23-.22-1.18-.65-1.95-1.27-2.32-.63-.33-2.66-.53-6.09-.61h-1.55c-3.5.07-5.55.28-6.14.61M85.12,92.23c.26-.85.33-1.64.22-2.38-.52-.3-1.12-.63-1.83-1-2.51-1.4-4.37-2.34-5.59-2.82-1.14-.44-2.73-.96-4.76-1.55l-2.71-.77-5.2-.22-3.98.39c-.7,2.36-1.05,3.85-1.05,4.48,0,.33.06.79.17,1.38.81-.11,1.66-.17,2.54-.17,4.87,0,10.03.83,15.49,2.49,2.21.66,4.2,1.33,5.98,1.99.18-.37.42-.98.72-1.83M134.91,83.49l-5.2.22-2.71.77c-2.03.59-3.61,1.11-4.76,1.55-1.22.48-3.08,1.42-5.59,2.82-.7.37-1.31.7-1.83,1-.11.74-.04,1.53.22,2.38.26.85.5,1.46.72,1.83,1.77-.66,3.74-1.33,5.92-1.99,5.5-1.66,10.68-2.49,15.55-2.49.89,0,1.72.06,2.49.17.15-.59.22-1.05.22-1.38,0-.63-.35-2.12-1.05-4.48l-3.98-.39Z"/>
            <path class="cls-2" d="M79.36,101.74c0-1.73-.63-3.23-1.88-4.48-1.22-1.22-2.69-1.83-4.43-1.83s-3.23.61-4.48,1.83c-1.22,1.25-1.83,2.75-1.83,4.48s.61,3.21,1.83,4.43c1.25,1.25,2.75,1.88,4.48,1.88s3.21-.63,4.43-1.88c1.25-1.22,1.88-2.69,1.88-4.43M75.16,99.81c.55.59.83,1.27.83,2.05s-.28,1.38-.83,1.94-1.22.83-1.99.83-1.48-.28-1.99-.83c-.59-.55-.89-1.2-.89-1.94,0-.77.3-1.46.89-2.05.52-.52,1.18-.77,1.99-.77s1.44.26,1.99.77M132.25,106.17c1.25-1.22,1.88-2.69,1.88-4.43s-.63-3.23-1.88-4.48c-1.22-1.22-2.69-1.83-4.43-1.83s-3.23.61-4.48,1.83c-1.22,1.25-1.83,2.75-1.83,4.48s.61,3.21,1.83,4.43c1.25,1.25,2.75,1.88,4.48,1.88s3.21-.63,4.43-1.88M130.71,101.85c0,.74-.28,1.38-.83,1.94s-1.22.83-1.99.83-1.48-.28-1.99-.83c-.55-.55-.83-1.2-.83-1.94,0-.77.28-1.46.83-2.05.52-.52,1.18-.77,1.99-.77s1.44.26,1.99.77c.55.59.83,1.27.83,2.05Z"/>
            <path class="cls-9" d="M75.99,101.85c0-.77-.28-1.46-.83-2.05-.55-.52-1.22-.77-1.99-.77s-1.48.26-1.99.77c-.59.59-.89,1.27-.89,2.05s.3,1.38.89,1.94c.52.55,1.18.83,1.99.83s1.44-.28,1.99-.83.83-1.2.83-1.94M129.88,103.79c.55-.55.83-1.2.83-1.94,0-.77-.28-1.46-.83-2.05-.55-.52-1.22-.77-1.99-.77s-1.48.26-1.99.77c-.55.59-.83,1.27-.83,2.05s.28,1.38.83,1.94c.52.55,1.18.83,1.99.83s1.44-.28,1.99-.83Z"/>
          </g>
          <g id="Layer0_6_MEMBER_1_MEMBER_0_1_STROKES" data-name="Layer0 6 MEMBER 1 MEMBER 0 1 STROKES">
            <g>
              <path class="cls-8" d="M137.18,89.07c-7.42.02-14.68,1.93-21.59,4.51l.58.18c-.63-1.11-1.01-2.57-.85-3.84l-.2.33c2.3-1.31,4.64-2.66,7.08-3.67,1.93-.79,3.97-1.35,5.97-1.92l1.14-.33c.14-.04.27-.07.41-.12.09-.03.26-.03.04-.02.48-.04.97-.04,1.45-.06l2.5-.11.89-.04c.09,0,.51,0,.24-.02,1.32.09,2.64.26,3.96.39l-.39-.32c.32,1.1.65,2.2.88,3.32.17.82.12,1.47-.08,2.29l.57-.42c-.87-.12-1.74-.16-2.62-.17-.64,0-.53.99.1.99.79,0,1.58.06,2.36.16.28.04.51-.15.57-.42.21-.89.26-1.66.08-2.55-.24-1.2-.59-2.39-.94-3.57-.05-.16-.23-.3-.39-.32-1.32-.13-2.66-.33-3.98-.39-1.48-.06-3.01.12-4.49.18-1.25.05-2.41.47-3.61.82-2.54.73-5.01,1.55-7.37,2.75-.85.43-1.69.88-2.52,1.34-.47.26-.95.52-1.43.78-.32.17-.76.33-1.03.57-.55.48-.22,1.9-.08,2.5.2.83.48,1.66.9,2.4.11.19.39.25.58.18,6.84-2.56,14-4.43,21.34-4.45.64,0,.53-1-.1-.99Z"/>
              <path class="cls-8" d="M160.58,110.87c-.02,1.19-.83,2.29-1.95,2.68s-2.43-.01-3.18-.96-.84-2.24-.22-3.24c.65-1.05,1.85-1.58,3.06-1.35,1.36.26,2.27,1.53,2.29,2.87,0,.64,1,.54.99-.1-.02-1.59-1.09-3.12-2.62-3.62s-3.27,0-4.3,1.29-1.09,3.04-.25,4.4,2.49,2.1,4.07,1.78c.88-.18,1.64-.66,2.21-1.34.61-.72.87-1.58.89-2.51,0-.27-.3-.47-.55-.44-.3.03-.44.28-.44.55Z"/>
              <path class="cls-8" d="M133.64,101.79c-.03,2.4-1.65,4.65-3.93,5.45s-4.95-.03-6.48-1.95-1.62-4.54-.41-6.55c1.28-2.13,3.76-3.16,6.18-2.7,2.73.52,4.6,3.04,4.63,5.75,0,.64,1,.54.99-.1-.04-2.84-1.9-5.52-4.63-6.41s-5.81,0-7.56,2.27-1.9,5.35-.45,7.72,4.43,3.73,7.23,3.15c3.15-.65,5.36-3.56,5.41-6.72,0-.64-.99-.53-.99.1Z"/>
              <path class="cls-8" d="M78.62,91.6c-3.05-.92-6.16-1.65-9.32-2.09-2.94-.4-6.02-.66-8.97-.28l.55.44c-.15-.81-.19-1.49-.03-2.29.23-1.12.55-2.22.87-3.32l-.41.3c1.25-.12,2.51-.21,3.76-.37.07,0,.13-.01.2-.02.05,0-.19,0-.05,0,.23,0,.46.02.68.03l2.41.1c.63.03,1.28.01,1.91.08.42.05.84.21,1.25.32,2,.57,4.01,1.13,5.96,1.86,2.67,1,5.21,2.51,7.69,3.92l-.3-.41c.17,1.38-.31,2.73-.9,3.95l.66-.26c-1.97-.73-3.96-1.39-5.98-1.99-.61-.18-1.02.73-.4.92,2.01.61,4.01,1.26,5.98,1.99.26.1.53,0,.66-.26.3-.62.55-1.29.76-1.95.22-.73.46-1.81.21-2.57-.18-.54-1.23-.87-1.7-1.12-.83-.44-1.66-.91-2.49-1.35-1.14-.61-2.3-1.21-3.51-1.68-1.4-.55-2.85-.99-4.3-1.41-.8-.24-1.61-.46-2.41-.69-.45-.13-.84-.25-1.31-.27-1.57-.07-3.15-.18-4.72-.2-1.38-.02-2.8.25-4.17.38-.16.02-.36.13-.41.3-.35,1.18-.7,2.36-.95,3.57-.18.88-.14,1.66.02,2.55.05.26.27.48.55.44,2.87-.37,5.85-.12,8.71.27,3.07.42,6.1,1.12,9.07,2.01.61.18,1.02-.73.4-.92Z"/>
              <path class="cls-8" d="M78.87,101.79c-.03,2.4-1.65,4.65-3.93,5.45s-4.95-.03-6.48-1.95-1.62-4.54-.41-6.55c1.28-2.13,3.76-3.16,6.18-2.7,2.73.52,4.6,3.04,4.63,5.75,0,.64,1,.54.99-.1-.04-2.84-1.9-5.52-4.63-6.41s-5.81,0-7.56,2.27-1.9,5.35-.45,7.72,4.43,3.73,7.23,3.15c3.15-.65,5.36-3.56,5.41-6.72,0-.64-.99-.53-.99.1Z"/>
              <path class="cls-8" d="M45.23,110.87c-.02,1.19-.83,2.29-1.95,2.68s-2.43-.01-3.18-.96-.84-2.24-.22-3.24c.65-1.05,1.85-1.58,3.06-1.35,1.36.26,2.27,1.53,2.29,2.87,0,.64,1,.54.99-.1-.02-1.59-1.09-3.12-2.62-3.62s-3.27,0-4.3,1.29-1.09,3.04-.25,4.4,2.49,2.1,4.07,1.78c.88-.18,1.64-.66,2.21-1.34.61-.72.87-1.58.89-2.51,0-.27-.3-.47-.55-.44-.3.03-.44.28-.44.55Z"/>
              <path class="cls-8" d="M97.05,110.95c-.65,1.51-1.33,3.05-2.3,4.39-.47.65-1.05,1.25-1.66,1.77-.39.34-.99.61-1.1,1.16s.27,1.06.61,1.45c.52.58,1.14,1.08,1.81,1.47,1.41.83,3.07,1.12,4.68,1.18.64.02.79-.96.15-.99-1.49-.06-3-.3-4.31-1.04-.6-.34-1.17-.8-1.62-1.32-.11-.13-.36-.37-.35-.55,0,0,.15-.11.27-.21,2.32-1.74,3.61-4.32,4.72-6.92.25-.59-.66-.99-.92-.4h0Z"/>
              <path class="cls-8" d="M91.42,146.8c.17-.82.45-1.84,1.36-2.08.79-.22,1.66-.25,2.48-.3,1.98-.13,3.96-.16,5.94-.09,1.13.04,2.26.09,3.37.25.65.09,1.22.15,1.63.72.69.98.66,2.43.75,3.58.17,2.11.31,4.23.45,6.35.05.76.1,1.53.15,2.29.03.42.06.51-.28.76-.88.66-2.14.95-3.18,1.22-1.95.52-4.14,1.16-6.18.85-1.19-.18-2.36-.47-3.51-.78s-2.47-.61-3.45-1.34c-.34-.25-.61-.52-.61-.96,0-.83.16-1.69.24-2.51.13-1.36.27-2.72.41-4.08s.22-2.61.43-3.9c.1-.63-.88-.79-.99-.15-.21,1.26-.3,2.55-.43,3.82-.14,1.35-.27,2.7-.4,4.05-.08.79-.15,1.58-.23,2.37-.05.55-.06.95.25,1.42.58.88,1.71,1.35,2.66,1.68,1.41.5,2.91.85,4.37,1.15.9.19,1.81.34,2.73.28,1.23-.09,2.46-.37,3.67-.65,1.4-.33,2.86-.66,4.16-1.31.66-.33,1.32-.76,1.36-1.56s-.1-1.58-.15-2.35c-.05-.82-.11-1.64-.17-2.46-.08-1.16-.16-2.33-.25-3.49-.1-1.31-.08-2.75-.54-4-.31-.86-.87-1.59-1.77-1.84s-1.85-.3-2.77-.36c-2.59-.17-5.19-.17-7.77,0-.95.06-2.02.09-2.93.42-1.14.43-1.57,1.72-1.79,2.8-.13.63.86.78.99.15Z"/>
              <path class="cls-8" d="M78.56,132.24c3.04.96,6.07,1.93,9.1,2.91,2.47.8,5.01,1.13,7.6,1.2,2.98.08,5.98-.07,8.93-.48,2.45-.34,4.99-.79,7.31-1.68,2.75-1.05,5.25-2.72,7.61-4.44.52-.38-.06-1.19-.58-.81-2.08,1.52-4.26,2.98-6.63,4.01-2.19.95-4.59,1.43-6.94,1.8-2.81.44-5.65.63-8.49.63-2.56,0-5.27-.14-7.72-.92-3.26-1.04-6.52-2.1-9.78-3.13-.61-.19-1.01.72-.4.92h0Z"/>
            </g>
          </g>
        </g>
      </g>
    </g>
  </g>
</svg>