<?xml version="1.0" encoding="UTF-8"?>
<svg id="Warstwa_2" data-name="Warstwa 2" xmlns="http://www.w3.org/2000/svg" xmlns:xlink="http://www.w3.org/1999/xlink" viewBox="0 0 200 200">
  <defs>
    <style>
      .cls-1 {
        fill: #f2be97;
      }

      .cls-1, .cls-2, .cls-3, .cls-4, .cls-5, .cls-6, .cls-7, .cls-8, .cls-9, .cls-10 {
        stroke-width: 0px;
      }

      .cls-2 {
        fill: #e18e7c;
      }

      .cls-3 {
        fill: #852424;
      }

      .cls-4 {
        fill: #b24949;
      }

      .cls-5 {
        fill: #993939;
      }

      .cls-6 {
        fill: none;
      }

      .cls-7 {
        fill: #e9dbdb;
      }

      .cls-8 {
        fill: #572100;
      }

      .cls-9 {
        fill: #fec8cd;
      }

      .cls-11 {
        clip-path: url(#clippath);
      }

      .cls-10 {
        fill: #fff;
      }
    </style>
    <clipPath id="clippath">
      <path id="Layer0_5_1_STROKES-2" data-name="Layer0 5 1 STROKES" class="cls-6" d="M200,99.97c0,27.66-9.76,51.23-29.27,70.71-19.51,19.55-43.08,29.32-70.71,29.32s-51.21-9.77-70.76-29.32C9.76,151.2,0,127.63,0,99.97S9.76,48.76,29.27,29.21C48.82,9.74,72.4,0,100.03,0s51.19,9.74,70.71,29.21c19.51,19.55,29.27,43.14,29.27,70.76Z"/>
    </clipPath>
  </defs>
  <g id="Warstwa_1-2" data-name="Warstwa 1">
    <g>
      <g id="Layer0_5_1_STROKES" data-name="Layer0 5 1 STROKES">
        <path class="cls-9" d="M200,99.97c0,27.66-9.76,51.23-29.27,70.71-19.51,19.55-43.08,29.32-70.71,29.32s-51.21-9.77-70.76-29.32C9.76,151.2,0,127.63,0,99.97S9.76,48.76,29.27,29.21C48.82,9.74,72.4,0,100.03,0s51.19,9.74,70.71,29.21c19.51,19.55,29.27,43.14,29.27,70.76Z"/>
      </g>
      <g class="cls-11">
        <g>
          <g id="Layer0_4_FILL" data-name="Layer0 4 FILL">
            <path class="cls-10" d="M43.9,201.33l.1-.29c3.68-10.92,8.4-20.7,14.02-29.04l.05-.07.08-.02c3.28-.8,6.41-1.5,9.3-2.1h.07s.07.02.07.02c3.63,1.68,7.19,4.81,10.59,9.31,3.56,4.62,5.47,7.09,5.69,7.35,1.97,2.15,3.85,3.24,5.59,3.24,1.53,0,3.34-.68,5.36-2.01,2.09-1.42,3.88-2.14,5.32-2.14.51,0,1.08.13,1.7.38h0s.45.2.45.2c1.03.5,2.47,1.42,4.28,2.73,1.15.84,2.44,1.27,3.83,1.27.85,0,1.77-.16,2.72-.47,2.53-.83,5.17-3.26,7.85-7.22,2.78-4.01,9.29-7.32,19.33-9.83,1.43-.36,4.1-1.01,4.1-1.01l.06.02c.33.1.65.19.98.27l.08.02.05.07c5.63,8.35,10.35,18.12,14.02,29.04l.1.29H43.9Z"/>
            <path class="cls-10" d="M78.01,179.25c-3.4-4.49-6.9-7.57-10.51-9.24-2.92.6-6.02,1.31-9.29,2.1-5.64,8.37-10.31,18.04-14,28.99h14c1.33-11.36,2.05-17.8,2.16-19.31-.11,1.51-.83,7.95-2.16,19.31h44.04c0-6.52-.06-11.46-.17-14.83-.72-.33-1.37-.5-1.94-.5-1.4,0-3.14.7-5.2,2.1-2.07,1.36-3.89,2.05-5.48,2.05-1.81,0-3.73-1.11-5.75-3.32-.22-.26-2.12-2.71-5.7-7.36M144.4,171.84c-1.26.31-2.61.64-4.04,1-10.04,2.51-16.43,5.75-19.2,9.74-2.72,4.02-5.38,6.45-7.97,7.3-2.59.85-4.84.57-6.75-.83-1.88-1.36-3.34-2.28-4.37-2.77.11,3.37.17,8.31.17,14.83h43.15c-1.33-11.36-2.05-17.8-2.16-19.31.11,1.51.83,7.95,2.16,19.31h14c-3.69-10.95-8.35-20.62-14-28.99-.33-.08-.67-.17-1-.28Z"/>
            <path class="cls-7" d="M67.5,170.01c3.61,1.67,7.11,4.75,10.51,9.24,3.58,4.65,5.48,7.1,5.7,7.36,2.03,2.21,3.95,3.32,5.75,3.32,1.59,0,3.41-.68,5.48-2.05,2.07-1.4,3.8-2.1,5.2-2.1.57,0,1.21.17,1.94.5-.06-3.25-.17-5-.33-5.26-.77-1.33-1.22-2.08-1.33-2.27-.66-1.33-1.46-2.91-2.38-4.76-3.28,4.09-5.86,7.12-7.75,9.07-1.18-1.62-2.14-2.99-2.88-4.09-.59-.96-1.09-1.72-1.49-2.27-.85-1.33-2.19-4.35-4.04-9.07-4.16.46-8.95,1.25-14.38,2.38M103.07,178.76c-.15.33-.59,1.09-1.33,2.27.16.26.27,2.01.33,5.26,1.03.48,2.49,1.41,4.37,2.77,1.91,1.4,4.16,1.68,6.75.83,2.59-.85,5.25-3.29,7.97-7.3,2.76-3.98,9.16-7.23,19.2-9.74,1.43-.36,2.78-.69,4.04-1-9-2.13-16.58-3.53-22.74-4.2-1.84,4.72-3.21,7.75-4.09,9.07-.37.55-.87,1.31-1.49,2.27-.74,1.11-1.68,2.47-2.82,4.09-1.88-1.95-4.46-4.98-7.75-9.07-.96,1.84-1.77,3.43-2.43,4.76M83.04,161.72c-.52.7-.9,2.67-1.16,5.92,1.84,4.72,3.19,7.75,4.04,9.07.41.55.9,1.31,1.49,2.27.74,1.11,1.7,2.47,2.88,4.09,1.88-1.95,4.46-4.98,7.75-9.07-.37-.44-1.03-1.07-1.99-1.88-1.29-1.11-3.12-2.54-5.48-4.32-1.77-1.36-3.25-2.53-4.43-3.49-.59-.44-1.09-.85-1.49-1.22.41.37.9.77,1.49,1.22.04-1.44.09-2.71.17-3.82-1.73.11-2.82.52-3.26,1.22M117.07,160.5c0,.37.11,1.64.33,3.82.59-.44,1.09-.85,1.49-1.22-.41.37-.9.77-1.49,1.22-1.18.96-2.67,2.12-4.48,3.49-2.32,1.77-4.13,3.21-5.42,4.32-.96.81-1.62,1.44-1.99,1.88,3.28,4.09,5.86,7.12,7.75,9.07,1.14-1.62,2.08-2.99,2.82-4.09.63-.96,1.12-1.72,1.49-2.27.89-1.33,2.25-4.35,4.09-9.07-.3-3.25-.68-5.22-1.16-5.92-.44-.7-1.59-1.11-3.43-1.22Z"/>
            <path class="cls-2" d="M116.29,150.21c-.55-6.57-.92-11.38-1.11-14.44-9.04,1.55-18.11,1.59-27.22.11-.37,3.43-.79,9.44-1.27,18.04-.04,1.25-.09,2.45-.17,3.6-.11.85-.18,1.84-.22,2.99-.07,1.11-.13,2.38-.17,3.82,1.18.96,2.66,2.12,4.43,3.49,2.36,1.77,4.19,3.21,5.48,4.32.96.81,1.62,1.44,1.99,1.88.92,1.84,1.72,3.43,2.38,4.76.11.18.55.94,1.33,2.27.74-1.18,1.18-1.94,1.33-2.27.66-1.33,1.48-2.91,2.43-4.76.37-.44,1.03-1.07,1.99-1.88,1.29-1.11,3.1-2.54,5.42-4.32,1.81-1.36,3.3-2.53,4.48-3.49-.22-2.18-.33-3.45-.33-3.82-.07-.96-.15-1.94-.22-2.93-.22-2.47-.41-4.92-.55-7.36Z"/>
          </g>
          <g id="Layer0_4_1_STROKES" data-name="Layer0 4 1 STROKES">
            <g>
              <path class="cls-8" d="M117.53,160.62c-.63-8.24-1.38-16.48-1.88-24.73-.02-.34-.33-.6-.67-.54-8.93,1.52-18.05,1.55-26.99.12-.23-.04-.44.04-.47.3-.67,6.29-1.07,12.65-1.3,18.97-.07,1.95-.26,3.89-.37,5.84-.05.94-.1,1.87-.13,2.81-.01.36-.13.83.1,1.15s.64.53.93.76c2.89,2.31,5.91,4.46,8.74,6.85.68.57,1.4,1.14,1.99,1.8.34.38.53.89.76,1.34.25.5.5.99.74,1.49.75,1.49,1.53,2.92,2.37,4.36.12.21.59.54.8.21.88-1.42,1.63-2.87,2.39-4.36.23-.46.47-.92.71-1.38.25-.49.47-1.05.82-1.47.57-.68,1.31-1.25,1.98-1.83,2.98-2.53,6.18-4.8,9.23-7.24.15-.12.43-.28.54-.44.12-.19.04-.45.02-.66-.05-.53-.1-1.05-.15-1.58-.05-.59-.13-1.18-.13-1.77l-.36.32c.82.06,1.79.12,2.52.55.41.24.58.6.72,1.03.51,1.59.64,3.34.79,4.99.03.31.25.52.56.56,6.9.76,13.72,2.15,20.48,3.71.47.11.95.22,1.42.33.43.1,1.03.14,1.42.35.24.13.43.54.6.8.26.4.52.79.77,1.19.95,1.5,1.87,3.02,2.74,4.56,1.81,3.19,3.46,6.47,4.96,9.81,1.8,4.01,3.39,8.11,4.79,12.27l.34-.43H44.1l.54.66c2.35-6.97,5.21-13.78,8.71-20.25.85-1.57,1.74-3.12,2.67-4.65.43-.71.87-1.41,1.32-2.11.22-.35.45-.69.67-1.04.11-.17.21-.36.34-.51.23-.29.41-.32.77-.4,3.72-.89,7.45-1.73,11.2-2.46s7.81-1.41,11.76-1.85c.15-.02.24-.17.25-.3.14-1.67.23-3.45.78-5.05.49-1.43,1.92-1.67,3.29-1.77.62-.05.3-.91-.2-.87-1.5.11-3.22.37-3.86,1.91-.71,1.69-.78,3.74-.92,5.54l.25-.3c-7.42.82-14.76,2.36-22.02,4.08-.47.11-.95.22-1.42.34s-.56.38-.81.76c-.47.72-.94,1.44-1.4,2.16-.95,1.51-1.85,3.04-2.72,4.59-1.76,3.14-3.37,6.36-4.84,9.65-1.76,3.95-3.31,7.99-4.7,12.08-.11.32.23.66.54.66h115.19c.22,0,.42-.19.34-.43-2.49-7.38-5.53-14.57-9.32-21.38-.9-1.62-1.84-3.21-2.82-4.78-.48-.76-.97-1.52-1.46-2.27-.19-.29-.37-.7-.66-.9-.32-.22-.91-.27-1.29-.36-3.91-.95-7.85-1.8-11.81-2.54-3.62-.68-7.26-1.27-10.93-1.68l.56.56c-.17-1.87-.26-3.94-.99-5.7-.67-1.63-2.61-1.89-4.17-1.99-.18-.01-.36.13-.36.32.01,1.27.2,2.56.33,3.82l.15-.26c-3.17,2.57-6.51,4.93-9.63,7.57-.69.58-1.39,1.17-2.02,1.82-.67.7-1.03,1.69-1.46,2.55-.84,1.64-1.65,3.28-2.63,4.85l.8.21c-.84-1.44-1.63-2.87-2.37-4.36-.27-.53-.53-1.06-.8-1.59-.23-.46-.42-.97-.76-1.36-.59-.68-1.3-1.27-1.99-1.85-3.18-2.71-6.6-5.12-9.85-7.75l.21.42c.06-2.11.1-4.24.33-6.34.24-2.22.24-4.48.37-6.71.22-3.76.45-7.52.75-11.28.11-1.37.23-2.75.37-4.12l-.47.3c9.1,1.46,18.36,1.44,27.45-.11l-.67-.54c.5,8.25,1.25,16.49,1.88,24.73.04.48.96.81.92.24h0Z"/>
              <path class="cls-8" d="M118.5,162.78c-.07.06-.13.12-.2.18l.08-.07c-.42.36-.85.71-1.29,1.04-.09.07-.14.15-.15.26s.05.24.12.33c.08.1.2.18.32.21.1.02.23.03.32-.04.54-.41,1.07-.83,1.57-1.29.07-.07.08-.22.06-.3-.03-.12-.11-.24-.2-.31s-.22-.14-.35-.13c-.12,0-.2.04-.29.12h0Z"/>
              <path class="cls-8" d="M121.22,167.41c-1.07,2.73-2.12,5.51-3.52,8.09-.55,1.03-1.25,1.98-1.89,2.96-.95,1.45-1.95,2.88-2.95,4.3l.73.11c-2.75-2.87-5.26-5.98-7.75-9.07-.36-.45-1.09-.1-.68.41,2.49,3.1,4.99,6.21,7.75,9.07.16.17.54.37.73.11,1-1.42,2-2.84,2.95-4.3.66-1,1.36-1.99,1.94-3.04,1.42-2.61,2.49-5.43,3.57-8.19.18-.46-.68-.96-.88-.45h0Z"/>
              <path class="cls-8" d="M101.34,181.12c.03.05.02.11,0-.03,0,.03.02.07.03.1.02.1.04.21.05.31.02.17.03.24.04.36.02.2.03.4.05.6.08,1.24.11,2.48.14,3.71,0,.25.2.48.44.54.21.05.48-.05.47-.3-.03-1.28-.06-2.55-.15-3.83-.03-.37-.05-.74-.11-1.1-.03-.19-.05-.41-.15-.58-.12-.2-.36-.39-.62-.32-.23.06-.31.33-.19.52h0Z"/>
              <path class="cls-8" d="M84.4,163.4c.48.43.98.83,1.49,1.22.1.07.22.13.35.13.1,0,.23-.04.29-.12.14-.2.04-.48-.14-.62-.51-.39-1.02-.79-1.49-1.22-.09-.08-.23-.13-.35-.13-.1,0-.23.04-.29.12-.15.21-.03.46.14.62h0Z"/>
              <path class="cls-8" d="M81.47,167.74c1.09,2.77,2.15,5.6,3.56,8.24.59,1.1,1.34,2.11,2.01,3.16.91,1.42,1.92,2.78,2.91,4.15.16.22.52.32.73.11,2.75-2.87,5.26-5.98,7.75-9.07.32-.4-.46-1.03-.78-.63-2.49,3.1-4.99,6.21-7.75,9.07l.73.11c-1-1.38-2.03-2.75-2.93-4.19-.63-1-1.35-1.95-1.9-3-1.38-2.61-2.43-5.4-3.51-8.14-.2-.5-1.05-.4-.81.2h0Z"/>
              <path class="cls-8" d="M101.64,186.19c.13,4.93.14,9.87.14,14.8,0,.49.92.82.92.24,0-4.93,0-9.87-.14-14.8-.01-.48-.93-.82-.92-.24h0Z"/>
              <path class="cls-8" d="M59.9,181.68c-.31,4.17-.89,8.34-1.37,12.5-.26,2.27-.53,4.54-.79,6.81-.06.48.85.82.92.24.68-5.86,1.39-11.72,2-17.58.06-.57.12-1.15.16-1.72.04-.49-.87-.83-.92-.24h0Z"/>
              <path class="cls-8" d="M142.78,181.68c.31,4.18.89,8.35,1.37,12.51.27,2.3.53,4.61.8,6.91.06.5.97.64.89.02-.68-5.82-1.38-11.64-1.98-17.47-.06-.57-.12-1.15-.16-1.72-.04-.48-.96-.81-.92-.24h0Z"/>
            </g>
          </g>
        </g>
      </g>
      <g>
        <g>
          <g id="Layer0_10_FILL" data-name="Layer0 10 FILL">
            <path class="cls-3" d="M116.6,52.56c-1.22-3.32-1.83-5.18-1.83-5.59l-.83.55c-.26.66-2.14,2.88-5.64,6.64-2.74,2.94-4.9,5.12-6.47,6.53-.64-.33-2.14-1.21-4.48-2.66-4.48-2.69-8.39-5.03-11.73-7.03-.72.95-1.59,2.15-2.6,3.6-2.1,3.07-3.62,5.56-4.54,7.47-.94-.85-2.1-1.99-3.49-3.43-2.23-2.23-3.95-4.21-5.15-5.92-.03.01-.07.03-.11.06-5.64,2.91-9.66,5.02-12.06,6.31-1.16.66-2.28,1.25-3.37,1.77-.52-.15-1.12-.35-1.83-.61-2.32-.85-3.63-1.57-3.93-2.16-1.18-2.11-2.12-3.82-2.82-5.15-.23.96-.45,2.05-.66,3.26-.74,4.17-1,10.66-.77,19.47.18,8.82.94,15.42,2.27,19.81.26-.04.5-.06.72-.06,1.62,0,2.95.04,3.98.11v-1.72c0-6.9.09-14.51.28-22.85-.52.41-1.07.83-1.66,1.27.59-.44,1.14-.87,1.66-1.27,3.17-2.36,5.26-3.87,6.25-4.54,1.7-1.14,4.13-2.67,7.3-4.59,1.29-.77,2.71-1.62,4.26-2.54-1.55.92-2.97,1.77-4.26,2.54.18.37.41.77.66,1.22.85,1.59,3.23,4.15,7.14,7.69,1.07,1,3.58,1.81,7.52,2.43,1.4.22,2.77.39,4.09.5-.63-.7-1.25-1.66-1.88-2.88.63,1.22,1.25,2.18,1.88,2.88.44.55.89.98,1.33,1.27.89.52,2.29,1,4.2,1.44,1.48.37,2.71.66,3.71.89-.11-1.11-.24-2.12-.39-3.04-.37-3.32-1.18-6.42-2.43-9.29-.63-.85-1.11-1.68-1.44-2.49.33.81.81,1.64,1.44,2.49,1.73,2.32,4.57,4.7,8.52,7.14,4.06,2.54,7.62,4.11,10.68,4.7.18-1.07.33-2.27.44-3.6.07-1.22.13-3.37.17-6.47v-5.7,5.7c4.98,5.39,10.35,8.91,16.1,10.57-.74-2.32-1.25-4.15-1.55-5.48-.3-1.36-.52-2.86-.66-4.48-.04-.26-.07-.48-.11-.66-.89-.74-1.68-1.46-2.38-2.16.7.7,1.49,1.42,2.38,2.16,1.81,1.48,3.96,3.01,6.47,4.59,4.24,2.69,7.87,4.32,10.9,4.87.11-1.73.28-3.43.5-5.09.07-.37.13-.79.17-1.27.07-.85.11-1.77.11-2.77,0,1-.04,1.92-.11,2.77.74,1.36,1.51,2.91,2.32,4.65.96,1.7,2.08,3.04,3.37,4.04.66.52,1.38.94,2.16,1.27-.77-.33-1.49-.76-2.16-1.27.22,4.65.33,9.77.33,15.38v1.72c1.03-.07,2.42-.11,4.15-.11.22,0,.42.02.61.06,1.25-5.94,1.77-12.63,1.55-20.08-.18-6.86-.57-12.5-1.16-16.93-.22-.33-.41-.61-.55-.83-.07-.15-.15-.3-.22-.44.07.15.15.3.22.44.15.22.33.5.55.83.74,1.18,1.86,3.14,3.37,5.86-.52-8.19-1.09-13.54-1.72-16.04-.19-.79-.52-1.79-1-2.99-1.55,3.01-3.72,7.11-6.53,12.28-.33-.78-.66-1.48-1-2.1-.97-1.68-2.04-3.02-3.21-4.04-.41.82-.86,1.82-1.33,2.99-.43,1.12-1.03,2.72-1.83,4.81-2.14-.49-4.2-1.01-6.2-1.55-4.56-1.21-8.34-2.75-11.34-4.65-1.16,1.04-2.76,2.51-4.81,4.43-.25-1.04-.76-2.69-1.55-4.92Z"/>
            <path class="cls-5" d="M78.33,62.24c-.95-.86-2.12-2.01-3.5-3.44-2.16-2.16-3.86-4.11-5.06-5.79-5.71,2.95-9.64,5-12,6.27-1.16.66-2.3,1.26-3.39,1.78l-.08.04-.08-.02c-.52-.15-1.13-.36-1.84-.61-2.4-.88-3.73-1.62-4.05-2.27-1.16-2.07-2.11-3.8-2.82-5.14l-.04-.08.02-.09c.67-2.43,1.49-4.11,2.44-4.97.17-.12.6-.33,2.55-1.03-.72-3.28-.94-5.54-.68-6.92.48-2.57,2.19-5.8,5.08-9.61.27-.34,2.32-2.47,6.27-6.49,2.16-2.27,3.83-4.09,4.97-5.41l.48-.55-.2,1.67c-.05.57-.12,1.07-.2,1.5,3.33-2.26,8.98-4.24,16.81-5.89,3.32-.73,6.82-1.46,10.4-2.16l.16.41c-.37.22-.79.48-1.27.77l-.84.56c1.62-.34,4.37-.66,8.29-.97,5.7-.48,10.97-.72,15.67-.72,1.74,0,3.57.24,5.42.73,1.17.29,2.04.5,2.59.61l.69.14-.65.28c-1.2.52-1.97.84-2.35.95-.12.05-.47.23-1.35.72l6.43-.1c4.02.33,8.59,1.94,13.61,4.79,4.25,2.44,7.45,4.93,9.52,7.41l.3.36h-3.68c4.23,7.23,7.13,12.71,8.62,16.29l.04.09-.05.09c-1.54,3-3.73,7.13-6.53,12.29l-.22.4-.18-.42c-.33-.77-.66-1.47-.99-2.08-.89-1.54-1.88-2.81-2.94-3.79-.37.76-.77,1.67-1.19,2.71-.42,1.11-1.89,4.99-1.89,4.99l-.19-.04c-2.13-.49-4.21-1.01-6.2-1.55-4.49-1.19-8.28-2.73-11.26-4.59-1.15,1.03-2.71,2.47-4.69,4.31l-.28.26-.09-.37c-.24-1.03-.76-2.68-1.54-4.9-1.23-3.36-1.65-4.7-1.78-5.29l-.49.33c-.36.76-2.21,2.94-5.66,6.64-2.73,2.93-4.91,5.13-6.49,6.54l-.11.1-.14-.07c-.65-.33-2.16-1.23-4.5-2.66-4.4-2.64-8.25-4.95-11.56-6.92-.69.92-1.52,2.07-2.48,3.43-2.09,3.04-3.61,5.55-4.52,7.44l-.13.27-.22-.2Z"/>
            <path class="cls-5" d="M90.04,15.44c.89-.59,1.61-1.07,2.16-1.44.48-.3.9-.55,1.27-.77-3.58.7-7.04,1.42-10.4,2.16-8.22,1.73-13.96,3.8-17.21,6.2.15-.52.26-1.2.33-2.05.04-.33.07-.65.11-.94-1.14,1.33-2.8,3.14-4.98,5.42-3.91,3.98-5.99,6.14-6.25,6.47-2.88,3.8-4.56,6.97-5.03,9.52-.26,1.36-.02,3.71.72,7.03-1.55.55-2.43.9-2.66,1.05-.92.84-1.72,2.47-2.38,4.87.7,1.32,1.64,3.04,2.82,5.15.3.59,1.6,1.31,3.93,2.16.7.26,1.31.46,1.83.61,1.09-.52,2.22-1.11,3.37-1.77,2.4-1.29,6.42-3.39,12.06-6.31.04-.02.08-.04.11-.06,1.2,1.71,2.91,3.69,5.15,5.92,1.39,1.44,2.55,2.58,3.49,3.43.92-1.91,2.43-4.4,4.54-7.47,1.01-1.44,1.88-2.64,2.6-3.6,3.34,1.99,7.25,4.33,11.73,7.03,2.35,1.44,3.84,2.33,4.48,2.66,1.58-1.41,3.73-3.59,6.47-6.53,3.5-3.76,5.38-5.98,5.64-6.64l.83-.55c0,.41.61,2.27,1.83,5.59.79,2.24,1.3,3.88,1.55,4.92,2.05-1.91,3.66-3.39,4.81-4.43,3,1.89,6.78,3.44,11.34,4.65,1.99.54,4.06,1.06,6.2,1.55.79-2.09,1.4-3.7,1.83-4.81.47-1.17.91-2.17,1.33-2.99,1.17,1.01,2.24,2.36,3.21,4.04.33.62.67,1.32,1,2.1,2.81-5.17,4.98-9.27,6.53-12.28-1.51-3.64-4.44-9.17-8.8-16.6h3.6c-2.07-2.47-5.22-4.92-9.46-7.36-5.02-2.84-9.52-4.43-13.5-4.76l-7.3.11c-.44-.04-.9-.06-1.38-.06.48,0,.94.02,1.38.06,1.18-.66,1.9-1.05,2.16-1.16.37-.11,1.14-.42,2.32-.94-.55-.11-1.42-.31-2.6-.61-1.84-.48-3.63-.72-5.37-.72-4.72,0-9.94.24-15.66.72-5.67.44-8.91.92-9.74,1.44Z"/>
            <path class="cls-2" d="M51.26,95.55c-1.03-.07-2.36-.11-3.98-.11-.22,0-.46.02-.72.06-3.28.18-5.81,1.68-7.58,4.48-1.4,2.18-2.1,4.46-2.1,6.86,0,3.47,1.7,6.2,5.09,8.19,2.66,1.59,5.5,2.38,8.52,2.38.33,0,.66-.02,1-.06-.11-4.13-.18-9.85-.22-17.15l-.06-.06c-.18-.04-.55-.06-1.11-.06-1.62,0-2.99.53-4.09,1.6-.3.26-.57.57-.83.94.92,2.4,1.53,3.73,1.83,3.98-.3-.26-.9-1.59-1.83-3.98-.11.22-.24.44-.39.66-1.11,1.84-1.46,3.63-1.05,5.37-.41-1.73-.06-3.52,1.05-5.37.15-.22.28-.44.39-.66.26-.37.53-.68.83-.94,1.11-1.07,2.47-1.6,4.09-1.6.55,0,.92.02,1.11.06l.06.06v-4.65M153.33,95.49c-.18-.04-.39-.06-.61-.06-1.73,0-3.12.04-4.15.11v4.65c.11,0,.2-.02.28-.06.15-.04.5-.06,1.05-.06,1.62,0,2.99.53,4.09,1.6.3.26.57.57.83.94.11.22.24.44.39.66,1.11,1.84,1.46,3.63,1.05,5.37.41-1.73.06-3.52-1.05-5.37-.15-.22-.28-.44-.39-.66-.92,2.4-1.51,3.73-1.77,3.98.26-.26.85-1.59,1.77-3.98-.26-.37-.53-.68-.83-.94-1.11-1.07-2.47-1.6-4.09-1.6-.55,0-.9.02-1.05.06-.07.04-.17.06-.28.06-.04,7.3-.11,13-.22,17.1.37.07.76.11,1.16.11,3.02,0,5.88-.79,8.58-2.38,3.36-1.99,5.03-4.72,5.03-8.19,0-2.4-.7-4.68-2.1-6.86-1.81-2.84-4.37-4.33-7.69-4.48M70.57,100.8c-1.07.74-1.84,1.75-2.32,3.04-.48,1.33-.55,2.62-.22,3.87.3,1.29.96,2.4,1.99,3.32,1.03.92,2.19,1.46,3.49,1.6,1.62.26,3.17-.15,4.65-1.22,1.48-1.03,2.38-2.36,2.71-3.98.26-1.29.11-2.58-.44-3.87-.55-1.25-1.38-2.23-2.49-2.93-1.07-.74-2.29-1.09-3.65-1.05-1.4.04-2.64.44-3.71,1.22M130.15,99.09c-1.48-.41-2.88-.37-4.2.11-1.36.48-2.45,1.36-3.26,2.66-.81,1.29-1.18,2.66-1.11,4.09.07,1.48.63,2.8,1.66,3.98.81.92,1.86,1.57,3.15,1.94,1.29.33,2.54.31,3.76-.06,1.44-.41,2.6-1.22,3.49-2.43.85-1.14,1.27-2.47,1.27-3.98s-.42-2.84-1.27-3.98c-.89-1.14-2.05-1.92-3.49-2.32Z"/>
            <path class="cls-1" d="M124.62,67.33c.15,1.62.37,3.12.66,4.48.3,1.33.81,3.15,1.55,5.48-5.75-1.66-11.12-5.18-16.1-10.57-.04,3.1-.09,5.26-.17,6.47-.11,1.33-.26,2.53-.44,3.6-3.06-.59-6.62-2.16-10.68-4.7-3.95-2.43-6.79-4.81-8.52-7.14,1.25,2.88,2.07,5.98,2.43,9.29.15.92.28,1.94.39,3.04-1-.22-2.23-.52-3.71-.89-1.92-.44-3.32-.92-4.2-1.44-.44-.3-.89-.72-1.33-1.27-1.33-.11-2.69-.28-4.09-.5-3.95-.63-6.45-1.44-7.52-2.43-3.91-3.54-6.29-6.1-7.14-7.69-.26-.44-.48-.85-.66-1.22-3.17,1.92-5.61,3.45-7.3,4.59-1,.66-3.08,2.18-6.25,4.54-.18,8.34-.28,15.95-.28,22.85v6.36c.04,7.3.11,13.02.22,17.15.07,2.54.17,4.48.28,5.81.41,5.57,1.53,9.33,3.37,11.29.92,1.03,4.2,3.63,9.85,7.8,5.61,4.17,14.64,9.2,27.11,15.1,4.79,1.77,10.01,1.77,15.66,0,12.47-5.9,21.5-10.94,27.11-15.1,5.61-4.17,8.87-6.77,9.79-7.8,1.84-1.95,2.97-5.72,3.37-11.29.11-1.33.22-3.28.33-5.86.11-4.09.18-9.79.22-17.1v-6.36c0-5.61-.11-10.73-.33-15.38-1.29-1-2.42-2.34-3.37-4.04-.81-1.73-1.59-3.28-2.32-4.65-.04.48-.09.9-.17,1.27-.22,1.66-.39,3.36-.5,5.09-3.02-.55-6.66-2.18-10.9-4.87-2.51-1.59-4.67-3.12-6.47-4.59.04.18.07.41.11.66M125.95,99.2c1.33-.48,2.73-.52,4.2-.11,1.44.41,2.6,1.18,3.49,2.32.85,1.14,1.27,2.47,1.27,3.98s-.42,2.84-1.27,3.98c-.89,1.22-2.05,2.03-3.49,2.43-1.22.37-2.47.39-3.76.06-1.29-.37-2.34-1.01-3.15-1.94-1.03-1.18-1.59-2.51-1.66-3.98-.07-1.44.3-2.8,1.11-4.09.81-1.29,1.9-2.18,3.26-2.66M68.24,103.85c.48-1.29,1.25-2.31,2.32-3.04,1.07-.77,2.31-1.18,3.71-1.22,1.36-.04,2.58.31,3.65,1.05,1.11.7,1.94,1.68,2.49,2.93.55,1.29.7,2.58.44,3.87-.33,1.62-1.24,2.95-2.71,3.98-1.48,1.07-3.02,1.48-4.65,1.22-1.29-.15-2.45-.68-3.49-1.6-1.03-.92-1.7-2.03-1.99-3.32-.33-1.25-.26-2.54.22-3.87Z"/>
          </g>
          <g id="Layer0_10_1_STROKES" data-name="Layer0 10 1 STROKES">
            <g>
              <path class="cls-8" d="M46.2,53.16c.4-1.45.86-3.01,1.8-4.22.68-.88,1.96-1.12,2.97-1.48.19-.07.31-.25.26-.45-.47-2.15-1.09-4.58-.73-6.79s1.54-4.32,2.71-6.17c.92-1.46,1.89-2.89,3.08-4.14,1.45-1.52,2.92-3.02,4.39-4.52,2.06-2.11,4.1-4.25,6.02-6.49l-.86-.42c-.12.96-.17,1.94-.42,2.88-.1.38.37.89.75.61,3.17-2.32,7.08-3.58,10.83-4.63,5.47-1.53,11.1-2.59,16.68-3.68l-.5-.83c-1.17.7-2.29,1.46-3.4,2.24-.48.33.15,1.07.61.78.82-.52,2.05-.59,2.98-.73,2.21-.33,4.43-.5,6.66-.68,5.08-.41,10.18-.7,15.28-.71,2.8,0,5.37.76,8.08,1.32l-.17-.88c-.79.34-1.59.64-2.38.97s-1.48.78-2.2,1.18c-.44.25.02.85.39.85,2.4-.04,4.82-.16,7.21-.11s4.74.82,6.89,1.63c3,1.13,5.86,2.63,8.56,4.34s5.15,3.55,7.15,5.93l.27-.69h-3.6c-.29,0-.49.32-.34.58,2.78,4.74,5.54,9.52,7.86,14.5.85,1.83,1.65,3.71,2.06,5.7.36,1.77.57,3.57.76,5.36.35,3.31.59,6.64.8,9.96l.89-.14c-1.11-2.01-2.23-4.02-3.44-5.97-.24-.39-.89-.24-.82.24.59,4.43.86,8.89,1.04,13.35.21,5.24.26,10.48-.25,15.71-.26,2.63-.64,5.25-1.19,7.84-.07.31.3.55.56.56,2.1.11,4.07.82,5.62,2.27,1.77,1.65,2.97,4.06,3.42,6.43.39,2.09.23,4.32-.8,6.21s-2.86,3.28-4.77,4.27c-2.47,1.28-5.7,2.22-8.5,1.72-.23-.04-.49.07-.5.34-.2,4.67-.18,9.72-1.93,14.12-.51,1.27-1.21,2.4-2.21,3.34-1.12,1.05-2.34,1.99-3.55,2.93-3.35,2.62-6.74,5.2-10.34,7.48-3.87,2.44-7.89,4.64-11.95,6.74-2.46,1.27-4.93,2.5-7.42,3.71-1.46.7-2.86,1.43-4.43,1.84-1.43.37-2.89.65-4.37.78-2.74.25-5.51.02-8.16-.75-1.43-.42-2.74-1.11-4.08-1.76s-2.57-1.25-3.85-1.89c-4.42-2.2-8.8-4.5-13.04-7.02-3.54-2.1-6.87-4.44-10.16-6.91-1.66-1.25-3.32-2.51-4.93-3.83-.84-.69-1.73-1.39-2.4-2.26-1.15-1.49-1.72-3.39-2.11-5.21-.51-2.35-.72-4.76-.85-7.16-.07-1.29-.11-2.59-.15-3.88,0-.28-.24-.59-.56-.56-2.53.25-5.17-.29-7.48-1.33-2-.9-3.95-2.16-5.2-4-2.62-3.86-1.22-9.34,1.67-12.65,1.61-1.85,3.83-2.81,6.26-2.97.23-.01.45-.22.38-.47-1.5-5.02-1.89-10.39-2.13-15.6-.28-6.16-.39-12.38.06-18.53.2-2.76.57-5.5,1.25-8.19.13-.52-.75-.99-.89-.43-1.28,5.03-1.51,10.23-1.56,15.4-.06,6.54.05,13.15.84,19.66.32,2.6.75,5.2,1.5,7.72l.38-.47c-2.27.15-4.39.91-6.08,2.45-1.91,1.74-3.22,4.28-3.73,6.8-.47,2.28-.32,4.75.78,6.83s2.99,3.57,5.04,4.69c2.73,1.48,5.98,2.3,9.09,2l-.56-.56c.14,4.73.16,9.77,1.88,14.24.53,1.39,1.29,2.64,2.36,3.68s2.19,1.88,3.32,2.77c3.45,2.7,6.95,5.36,10.65,7.71,3.96,2.52,8.08,4.78,12.25,6.93,2.62,1.36,5.26,2.67,7.92,3.95,1.3.63,2.57,1.27,3.95,1.69,1.3.39,2.63.65,3.98.79,2.83.29,5.7.03,8.46-.62,2.91-.69,5.55-2.2,8.21-3.52,4.63-2.29,9.22-4.69,13.66-7.32,3.69-2.18,7.15-4.61,10.56-7.2,1.67-1.27,3.35-2.54,4.96-3.89.9-.75,1.82-1.51,2.49-2.48,1.09-1.56,1.67-3.42,2.07-5.25.53-2.39.73-4.84.88-7.29.08-1.34.14-2.69.2-4.03l-.5.34c2.68.48,5.71-.25,8.15-1.33,2.23-.99,4.41-2.42,5.73-4.52,2.7-4.29,1.22-10.27-2.11-13.8-1.82-1.93-4.22-2.9-6.85-3.04l.56.56c2.07-9.9,1.8-20.12,1.07-30.16-.17-2.33-.39-4.65-.69-6.97l-.82.24c1.17,1.88,2.24,3.82,3.31,5.76.23.42.93.46.89-.14-.31-4.95-.55-10-1.47-14.89-.78-4.14-2.94-8.01-4.91-11.69-1.65-3.09-3.39-6.14-5.17-9.16l-.34.58h3.6c.37,0,.49-.43.27-.69-1.76-2.09-3.9-3.82-6.16-5.34-2.7-1.83-5.58-3.44-8.59-4.7-2.6-1.1-5.33-1.94-8.14-2.24-1.19-.13-2.41-.02-3.6,0-1.41.02-2.81.04-4.22.06l.39.85c.67-.38,1.34-.82,2.05-1.11.77-.32,1.56-.61,2.32-.94.45-.19.27-.79-.17-.88-2.4-.49-4.71-1.2-7.17-1.32s-5.07.02-7.59.12c-5.08.21-10.21.5-15.24,1.21-1.16.16-2.64.25-3.67.9l.61.78c1.12-.78,2.23-1.54,3.4-2.24.49-.3-.09-.91-.5-.83-4.49.88-8.98,1.77-13.43,2.84-3.55.85-7.1,1.86-10.42,3.37-1.35.61-2.66,1.31-3.86,2.19l.75.61c.27-1.01.34-2.06.47-3.1.05-.42-.57-.76-.86-.42-3.24,3.76-6.8,7.22-10.22,10.8-1.21,1.26-2.2,2.66-3.14,4.13-1.23,1.93-2.39,4.01-2.89,6.26-.55,2.45.11,5.17.64,7.56l.26-.45c-1.09.39-2.48.67-3.24,1.6-1.05,1.28-1.58,2.97-2.01,4.54-.14.52.74.99.89.43Z"/>
              <path class="cls-8" d="M117.62,17.11c.46,0,.92.02,1.38.06.11,0,.24-.06.3-.14.07-.09.1-.22.07-.32-.03-.12-.09-.24-.2-.32-.11-.08-.22-.11-.35-.13-.46-.04-.92-.05-1.38-.06-.24,0-.43.23-.38.47.06.25.29.44.55.44h0Z"/>
              <path class="cls-8" d="M110.26,60.92v5.31c0,.62.16.78.58,1.23,1.57,1.65,3.24,3.2,5.03,4.59,3.27,2.54,6.94,4.52,10.92,5.68.26.08.59-.16.5-.45-.69-2.18-1.38-4.38-1.78-6.63-.23-1.27-.25-2.59-.52-3.84-.11-.53-.66-.83-1.05-1.17-.53-.47-1.05-.95-1.55-1.45-.45-.45-.98.22-.53.66.76.76,1.56,1.47,2.38,2.16l-.2-.32c.35,1.85.43,3.72.87,5.56.41,1.71.92,3.39,1.45,5.06l.5-.45c-6.17-1.8-11.44-5.69-15.77-10.36l.11.34v-5.7c0-.53-.94-.82-.94-.21h0Z"/>
              <path class="cls-8" d="M124.24,67c2.84,2.31,5.93,4.38,9.12,6.18,2.65,1.49,5.48,2.82,8.49,3.39.23.04.49-.08.5-.34.2-3.05.77-6.07.77-9.13,0-.53-.94-.82-.94-.21,0,3.06-.57,6.08-.77,9.13l.5-.34c-2.93-.55-5.67-1.85-8.25-3.31-3.11-1.76-6.12-3.78-8.89-6.04-.49-.4-1.02.26-.53.66h0Z"/>
              <path class="cls-8" d="M64.66,61.98c1.27,2.5,3.11,4.48,5.1,6.43.73.72,1.48,1.42,2.24,2.11.49.45.95.87,1.53,1.2,1.25.72,2.72,1.09,4.12,1.4,2.29.51,4.62.83,6.95,1.03.37.03.48-.45.27-.69-.73-.84-1.3-1.79-1.82-2.77-.26-.5-1.15-.33-.85.25.55,1.05,1.16,2.09,1.95,2.99l.27-.69c-2.01-.17-4.02-.45-6-.85-1.43-.29-2.9-.63-4.22-1.27s-2.29-1.81-3.31-2.79c-1.12-1.07-2.21-2.17-3.22-3.34-.86-1.01-1.55-2.07-2.15-3.25-.26-.51-1.15-.33-.85.25h0Z"/>
              <path class="cls-8" d="M51.84,71.37c2.44-1.82,4.87-3.65,7.43-5.31,3.4-2.22,6.9-4.28,10.39-6.36.5-.3-.14-1.06-.61-.78-3.49,2.08-6.99,4.15-10.39,6.36-2.55,1.66-4.98,3.5-7.43,5.31-.47.35.17,1.1.61.78h0Z"/>
              <path class="cls-8" d="M90.57,65.19c2.33,3.08,5.59,5.35,8.83,7.37s6.85,3.92,10.69,4.68c.25.05.46-.08.5-.34.56-3.33.57-6.7.61-10.07,0-.53-.93-.82-.94-.21-.04,3.37-.04,6.74-.61,10.07l.5-.34c-3.67-.73-7.09-2.51-10.24-4.47s-6.36-4.16-8.63-7.16c-.36-.48-1.11-.05-.72.47h0Z"/>
              <path class="cls-8" d="M89.06,62.59c.49,1.16,1.31,2.13,1.78,3.3.49,1.23.9,2.49,1.23,3.77.63,2.49.96,5.08,1.22,7.64l.5-.45c-1.65-.37-3.31-.75-4.94-1.2-.73-.2-1.46-.43-2.16-.74-.75-.33-1.29-.82-1.81-1.45-.38-.46-1.13-.04-.72.47.54.65,1.13,1.25,1.89,1.63.68.34,1.4.59,2.13.8,1.82.55,3.7.96,5.55,1.37.31.07.53-.15.5-.45-.27-2.63-.6-5.29-1.27-7.86-.32-1.22-.71-2.41-1.17-3.58-.23-.59-.48-1.09-.83-1.61-.41-.6-.75-1.23-1.03-1.89-.22-.53-1.11-.35-.85.25h0Z"/>
              <path class="cls-8" d="M152.52,57.33c.06.13.13.25.19.38.07.13.15.25.23.37.14.21.28.42.42.63.07.1.21.18.33.21.1.02.25.01.34-.05s.16-.17.17-.29c0-.13-.04-.23-.11-.34-.18-.28-.37-.55-.55-.83l.07.11c-.07-.15-.15-.3-.22-.44-.06-.12-.15-.22-.27-.28-.1-.05-.25-.07-.35-.04s-.21.11-.24.22-.03.24.02.34h0Z"/>
              <path class="cls-8" d="M142.12,69.89c.55,1.02,1.07,2.05,1.58,3.09s1.03,2.13,1.73,3.11c1.24,1.73,2.86,3.17,4.82,4.03.59.26.86-.56.31-.8-1.86-.82-3.35-2.18-4.5-3.83-.64-.92-1.09-1.92-1.58-2.93s-.98-1.96-1.5-2.92c-.27-.5-1.16-.32-.85.25h0Z"/>
              <path class="cls-8" d="M148.66,96c.69-.05,1.39-.07,2.08-.09.42,0,.83-.02,1.25-.02s.88-.04,1.31.04c.64.12.63-.78.07-.89-.45-.08-.91-.07-1.37-.07s-.9,0-1.35.02c-.72.02-1.44.04-2.16.09-.63.04-.38.95.17.91h0Z"/>
              <path class="cls-8" d="M147.77,78.35c.34,7.24.33,14.49.33,21.74,0,.28.25.59.56.56.93-.08,1.81-.17,2.74.06s1.78.76,2.47,1.45c.78.77,1.36,1.93,1.72,2.95.39,1.12.45,2.29.2,3.45-.11.52.81.81.94.21.27-1.24.18-2.5-.22-3.7s-1.06-2.52-1.97-3.43c-.79-.8-1.72-1.42-2.81-1.74s-2.15-.25-3.25-.15l.56.56c0-7.25,0-14.5-.33-21.74-.02-.53-.97-.81-.94-.21h0Z"/>
              <path class="cls-8" d="M154.38,102.41c-.36.93-.72,1.86-1.13,2.77-.12.27-.24.54-.38.8-.02.03-.11.19-.03.06-.02.03-.04.07-.06.1-.03.05-.07.11-.12.15-.18.19-.05.51.12.64.2.16.47.17.66-.01.13-.13.22-.32.3-.47.14-.26.26-.53.38-.79.41-.92.78-1.87,1.14-2.81.19-.5-.68-.97-.89-.43h0Z"/>
              <path class="cls-8" d="M148.11,100.09c-.03,5.7-.07,11.4-.22,17.1-.01.53.92.82.94.21.15-5.7.19-11.4.22-17.1,0-.53-.94-.82-.94-.21h0Z"/>
              <path class="cls-8" d="M50.18,72.65c.56-.42,1.11-.84,1.66-1.27l-.77-.5c-.28,12.73-.36,25.46-.2,38.19.03,2.73.08,5.45.15,8.18.01.53.96.81.94.21-.31-11.65-.29-23.31-.15-34.97.05-3.8.12-7.6.2-11.4,0-.34-.45-.75-.77-.5-.55.43-1.1.85-1.66,1.27-.46.35.18,1.11.61.78h0Z"/>
              <path class="cls-8" d="M51.17,95.09c-.71-.05-1.41-.08-2.12-.09-.85-.02-1.73-.08-2.58.04-.63.09-.37.98.17.91.85-.12,1.73-.06,2.58-.04.71.02,1.42.04,2.12.09.25.02.42-.24.38-.47-.05-.27-.29-.43-.55-.44h0Z"/>
              <path class="cls-8" d="M47.27,106.28s.08.12.02.02c-.02-.03-.05-.06-.07-.09-.01-.02-.09-.15-.03-.04-.03-.05-.06-.1-.08-.15-.14-.25-.26-.52-.38-.78-.41-.9-.77-1.81-1.12-2.73-.14-.37-.69-.45-.87-.09-.28.54-.62,1.03-.88,1.58-.23.5-.42,1.02-.55,1.56-.24,1.03-.26,2.08-.03,3.12.06.25.29.45.55.44.24,0,.43-.22.38-.47-.21-.95-.2-1.92.04-2.86.13-.5.32-.99.55-1.46.25-.51.57-.98.83-1.48l-.87-.09c.37.96.74,1.92,1.18,2.86.21.46.43.98.81,1.33.18.16.5.18.66-.01.17-.21.05-.49-.12-.64h0Z"/>
              <path class="cls-8" d="M51.53,99.86c-.19-.19-.43-.19-.68-.21-.33-.03-.66-.03-.99-.02-.66.01-1.32.11-1.95.32-1.26.42-2.36,1.29-3.13,2.36-.32.45.46,1.08.78.63.65-.91,1.56-1.68,2.62-2.07.51-.19,1.05-.29,1.6-.32.29-.02.58-.01.88,0,.12,0,.24.02.36.02.03,0,.07.02.08,0,.04-.02-.18-.12-.11-.05.17.17.5.17.66-.01.18-.21.04-.48-.12-.64h0Z"/>
            </g>
          </g>
        </g>
        <g>
          <g id="Layer0_10_MEMBER_0_FILL" data-name="Layer0 10 MEMBER 0 FILL">
            <path class="cls-8" d="M123.1,99.74c-1.32,1.32-1.97,2.91-1.97,4.78s.66,3.46,1.97,4.78,2.91,1.97,4.78,1.97,3.46-.66,4.78-1.97,1.97-2.91,1.97-4.78-.66-3.46-1.97-4.78c-1.32-1.32-2.91-1.97-4.78-1.97s-3.46.66-4.78,1.97M129.7,102.6c.52.52.78,1.16.78,1.92s-.26,1.46-.78,1.97-1.14.78-1.87.78-1.4-.26-1.92-.78-.78-1.18-.78-1.97.26-1.4.78-1.92c.52-.52,1.16-.78,1.92-.78s1.35.26,1.87.78M81.43,104.52c0-1.87-.66-3.46-1.97-4.78-1.32-1.32-2.91-1.97-4.78-1.97s-3.46.66-4.78,1.97c-1.32,1.32-1.97,2.91-1.97,4.78s.66,3.46,1.97,4.78,2.91,1.97,4.78,1.97,3.46-.66,4.78-1.97,1.97-2.91,1.97-4.78M76.65,102.6c.52.52.78,1.16.78,1.92s-.26,1.46-.78,1.97c-.52.52-1.16.78-1.92.78s-1.35-.26-1.87-.78c-.52-.52-.78-1.18-.78-1.97s.26-1.4.78-1.92c.52-.52,1.14-.78,1.87-.78s1.4.26,1.92.78Z"/>
            <path class="cls-10" d="M130.48,104.52c0-.76-.26-1.4-.78-1.92-.52-.52-1.14-.78-1.87-.78s-1.4.26-1.92.78c-.52.52-.78,1.16-.78,1.92s.26,1.46.78,1.97,1.16.78,1.92.78,1.35-.26,1.87-.78.78-1.18.78-1.97M77.43,104.52c0-.76-.26-1.4-.78-1.92-.52-.52-1.16-.78-1.92-.78s-1.35.26-1.87.78c-.52.52-.78,1.16-.78,1.92s.26,1.46.78,1.97c.52.52,1.14.78,1.87.78s1.4-.26,1.92-.78c.52-.52.78-1.18.78-1.97Z"/>
            <path class="cls-5" d="M133.91,95.38c.9.55,1.77.54,2.6-.05s1.13-1.51.88-2.75c-.8-.73-1.58-1.33-2.34-1.82-1.63-1-3.31-1.51-5.04-1.51-2.39,0-4.73.49-7.02,1.46-1.45.59-2.62,1.21-3.48,1.87-.17,1.91.59,3.22,2.29,3.95.35-.17.74-.35,1.2-.52,2.29-.97,4.62-1.46,7.02-1.46,1.73,0,3.03.28,3.9.83M80.75,96.52c1.7-.73,2.46-2.04,2.29-3.95-.87-.66-2.03-1.28-3.48-1.87-2.29-.97-4.62-1.46-7.02-1.46-1.73,0-3.41.5-5.04,1.51-.76.48-1.54,1.09-2.34,1.82-.24,1.25.05,2.17.88,2.75.83.59,1.7.61,2.6.05.87-.55,2.17-.83,3.9-.83,2.39,0,4.73.49,7.02,1.46.45.17.85.35,1.2.52Z"/>
          </g>
          <g id="Layer0_10_MEMBER_0_1_STROKES" data-name="Layer0 10 MEMBER 0 1 STROKES">
            <g>
              <path class="cls-8" d="M69,95.75c1.08-.68,2.46-.79,3.7-.8.61,0,.19-.82-.25-.81-1.37,0-2.9.11-4.09.87-.42.26.27.98.64.75h0Z"/>
              <path class="cls-8" d="M65.87,95.59c.47.33,1.01.58,1.59.6.55.02,1.07-.15,1.54-.44.42-.26-.27-.97-.64-.75-.18.11-.4.22-.59.28-.1.03-.19.05-.29.07-.04,0-.08.01-.12.02-.03,0-.06,0-.08,0,.03,0,.03,0-.02,0-.1,0-.19-.01-.29-.02-.05,0-.05,0-.01,0-.03,0-.05-.01-.08-.02-.04-.01-.08-.02-.12-.04-.02,0-.18-.07-.09-.03-.04-.02-.08-.04-.12-.06-.05-.03-.11-.06-.16-.09-.03-.02-.05-.03-.08-.05.04.03.04.03,0,0-.16-.11-.44-.25-.6-.05-.14.18.02.47.18.58h0Z"/>
              <path class="cls-8" d="M64.77,92.34c-.12.61-.15,1.24.05,1.84s.57,1.06,1.05,1.41c.16.11.45.24.6.05.15-.18-.02-.47-.18-.58-.09-.07-.18-.14-.27-.22-.05-.04.07.08,0,0-.02-.02-.04-.04-.06-.06-.03-.04-.07-.08-.1-.12-.07-.09.03.06,0,0-.01-.02-.03-.05-.05-.07-.03-.05-.06-.1-.08-.15-.01-.02-.02-.04-.03-.06-.05-.1.02.05,0,0-.02-.06-.04-.11-.06-.16-.02-.05-.03-.1-.04-.15,0-.03-.01-.06-.02-.09-.01-.07.01.09,0-.02s-.03-.24-.03-.36c0-.28.02-.51.07-.78.04-.23-.13-.47-.33-.57-.15-.07-.49-.14-.53.1h0Z"/>
              <path class="cls-8" d="M65.59,92.89c1.21-1.09,2.52-2.06,4.05-2.65s3.01-.65,4.57-.52c2.99.26,6.24,1.31,8.66,3.12l-.23-.4c.13,1.72-.58,3.01-2.16,3.72l.42.04c-2.63-1.28-5.5-2.03-8.44-2.05-.61,0-.19.81.25.81,2.68.02,5.29.64,7.71,1.77.47.22.62.23,1.08-.02.4-.21.77-.48,1.08-.81.55-.59.85-1.35.93-2.14.04-.36.12-.91-.06-1.25-.2-.37-.79-.64-1.14-.85-.97-.59-2.02-1.05-3.07-1.47-2.29-.92-4.84-1.45-7.31-1.33-2.78.14-5.11,1.59-7.12,3.41-.32.29.43.94.78.63h0Z"/>
              <path class="cls-8" d="M91.43,135.36c.58,1.57,2.44,2.74,3.89,3.38,2.05.91,4.12,1.17,6.34.99,4.14-.32,8.17-2.02,10.69-5.43.27-.37-.51-.99-.78-.63-2.22,3-5.65,4.65-9.3,5.14-1.96.26-3.92.27-5.81-.38-1.01-.35-1.93-.81-2.78-1.46-.53-.41-1.16-.89-1.4-1.54-.15-.4-1.06-.64-.85-.08h0Z"/>
              <path class="cls-8" d="M97.96,112.6c-.02,1.26-.62,2.6-1.04,3.77-.72,2-1.56,3.96-2.36,5.94-.22.54-.44,1.09-.64,1.64-.1.26-.19.48-.13.76.27,1.3,2.36,1.89,3.4,2.25,2.38.81,4.82.87,7.1-.28.43-.22-.25-.94-.64-.75-1.96.99-4.07,1.03-6.15.37-.81-.26-1.68-.54-2.4-1.01-.16-.1-.33-.22-.43-.38-.08-.14-.04-.03,0-.15.23-.96.74-1.92,1.11-2.83.74-1.8,1.49-3.59,2.14-5.43.4-1.13.91-2.39.94-3.6,0-.42-.88-.83-.88-.28h0Z"/>
              <path class="cls-8" d="M134.05,95.05c-1.67-1.02-3.85-1-5.72-.83-2.36.2-4.68.91-6.8,1.94l.42.04c-1.49-.67-2.07-1.87-1.94-3.47l-.12.23c2.42-1.8,5.59-2.88,8.57-3.2,1.56-.17,3.1-.13,4.59.39,1.6.56,2.95,1.57,4.19,2.7l-.23-.4c.13.74.14,1.52-.35,2.14-.67.83-1.68.99-2.58.47-.57-.33-.67.4-.2.67,1.23.7,2.79.61,3.66-.64.32-.47.45-1.02.45-1.58,0-.29,0-.73-.15-.99-.19-.33-.61-.59-.9-.83-1.25-1.04-2.65-1.92-4.21-2.4s-3.05-.5-4.6-.34c-1.69.17-3.35.59-4.94,1.22-.76.3-1.51.62-2.23,1-.34.18-.67.36-.99.57-.23.15-.62.32-.77.55-.24.35-.06,1.25.02,1.63.12.57.36,1.11.71,1.57.33.44.77.8,1.24,1.08.21.13.48.31.72.36.34.07.66-.18.97-.31,1.88-.8,3.81-1.38,5.85-1.57,1.67-.15,3.69-.22,5.18.69.56.35.66-.39.2-.67Z"/>
            </g>
          </g>
        </g>
        <g id="Layer0_10_MEMBER_1_FILL" data-name="Layer0 10 MEMBER 1 FILL">
          <path class="cls-4" d="M80.19,23.9c-.18-.52-.5-.89-.94-1.11-.33-.15-.87-.18-1.6-.11-.55.15-.94.31-1.16.5-.41.3-.61.72-.61,1.27-.04.48.17.92.61,1.33.26.26.7.42,1.33.5.48.07.85.07,1.11,0,.52-.11.9-.42,1.16-.94.26-.48.3-.96.11-1.44M82.74,25.78c.48-.18.77-.52.89-1,.11-.37.04-.76-.22-1.16-.26-.33-.61-.5-1.05-.5v.11c-.33-.11-.66.02-1,.39-.37.52-.41,1.05-.11,1.6.41.55.9.74,1.49.55M92.03,26.28c.52-.04,1.07-.26,1.66-.66.55-.41.9-.77,1.05-1.11.3-.7.26-1.35-.11-1.94-.37-.63-.92-.94-1.66-.94l-.22.11c-.37-.04-.85.13-1.44.5-.52.41-.9.83-1.16,1.27-.26.7-.18,1.33.22,1.88.41.59.96.89,1.66.89M122.52,25.28c-.22-.04-.42,0-.61.11-.18.15-.33.33-.44.55-.11.3-.11.59,0,.89.15.3.33.48.55.55.37.26.77.26,1.22,0l.39-.5c.18-.41.15-.79-.11-1.16-.26-.37-.59-.55-1-.55v.11M115.16,25.89c.26-.55.24-1.07-.06-1.55-.26-.55-.7-.87-1.33-.94-.41,0-.7.04-.89.11-.37.04-.7.18-1,.44-.52.37-.74.87-.66,1.49,0,.41.15.79.44,1.16.59.66,1.38.77,2.38.33.55-.26.92-.61,1.11-1.05M108.91,22.24c-.37-.33-.81-.53-1.33-.61-.55-.07-1.03.02-1.44.28-.3.22-.61.55-.94,1-.44.59-.68,1-.72,1.22-.11.33-.17.72-.17,1.16,0,.77.15,1.31.44,1.6.26.3.74.48,1.44.55,1.14.07,2.01-.15,2.6-.66.52-.41.83-1,.94-1.77.18-1.11-.09-2.03-.83-2.77Z"/>
        </g>
      </g>
    </g>
  </g>
</svg>